<?xml version="1.0" standalone="no"?>
<!DOCTYPE svg PUBLIC "-//W3C//DTD SVG 1.1//EN" "http://www.w3.org/Graphics/SVG/1.1/DTD/svg11.dtd" >
<svg xmlns="http://www.w3.org/2000/svg">
<metadata></metadata>
<defs>
<font id="cihandregular" horiz-adv-x="1026" >
<font-face units-per-em="2048" ascent="1536" descent="-512" />
<missing-glyph horiz-adv-x="614" />
<glyph horiz-adv-x="0" />
<glyph horiz-adv-x="682" />
<glyph unicode=" "  horiz-adv-x="614" />
<glyph unicode="&#x09;" horiz-adv-x="614" />
<glyph unicode="&#xa0;" horiz-adv-x="614" />
<glyph unicode="!" horiz-adv-x="395" d="M39 150q0 31 12 43q19 16 53 16q48 0 86 -41q31 -31 31 -64q-7 -76 -74 -84q-36 0 -72 43.5t-36 86.5zM82 793q0 137 58.5 400t64.5 382q4 15 13.5 30t21.5 19l4 2q4 2 8 2q24 0 51 -18q17 -16 26 -25.5t18 -27.5t9 -37q0 -3 -2 -9.5t-2 -9.5l-6 -24q-66 -393 -92 -562 q-2 -18 -8.5 -68.5t-9.5 -86t-3 -70.5q0 -88 21 -174q0 -6 2 -13t2 -9q0 -24 -12 -37t-31 -13q-17 0 -55 23q-78 147 -78 326z" />
<glyph unicode="&#x22;" horiz-adv-x="681" d="M94 979q0 18 10 31q32 47 92.5 128t82.5 111q68 91 90 121q26 45 45 45q16 0 47 -31q9 -8 17 -20t17 -28.5t15 -26.5q-7 -9 -14.5 -24t-10.5 -19l-262 -330q-35 -39 -63 -39q-15 0 -31 8q-13 7 -24 30.5t-11 43.5zM399 934q0 18 2 24q22 62 68 156l92 195q19 32 47 32 q9 0 21 -6q25 -10 43 -44t18 -68q0 -26 -8 -37l-158 -271q-6 -10 -17 -20.5t-22.5 -19.5t-15.5 -13q-31 0 -50.5 21.5t-19.5 50.5z" />
<glyph unicode="#" horiz-adv-x="1302" d="M12 547v14q0 23 11.5 33t39.5 10q52 2 147.5 9.5t123.5 9.5q33 3 50.5 20t23.5 53q57 270 116 498q4 17 19 35t24 18q24 0 45 -16.5t21 -42.5l-41 -221q-10 -50 -32.5 -147.5t-31.5 -141.5h25q32 0 47 7.5t35.5 61.5t38 140t53.5 276q5 30 15.5 46t33.5 16q3 0 8.5 -1 t8.5 -1q63 -15 63 -68q0 -19 -2 -29l-68 -356v-37q212 18 412 43q3 0 9.5 2t9.5 2t10 -2t10 -2q4 -1 15.5 -4t17 -5t12.5 -7t10.5 -13t3.5 -20q0 -15 -4 -25t-15.5 -14.5t-17 -6t-22.5 -3.5q-38 -7 -140 -23.5t-157 -27.5q-24 -5 -54 -9.5t-48 -7t-37.5 -7.5t-30 -12.5 t-17.5 -20.5t-8 -33q-7 -65 -24 -168q250 37 326 37q65 0 73 -17l10 -14q0 -2 1.5 -5t1.5 -5q0 -13 -12 -23t-25 -14q-103 -40 -344 -99q-30 -6 -44 -22t-14 -47q0 -53 -10 -115q-5 -14 -17.5 -29.5t-21.5 -15.5q-20 2 -40.5 13t-24.5 24q-10 31 -27 147q-66 -14 -92 -22 q-7 -1 -13 -12t-6 -21q0 -15 1 -48t1 -48q0 -31 -2 -45q0 -9 1 -20t1 -15q0 -30 -36 -37q-18 0 -35.5 14t-22.5 29q-10 24 -17 50t-14.5 65t-11.5 55q-12 -4 -117 -25q-10 -4 -30 -4q-38 0 -62 22.5t-24 61.5v13q0 9 12.5 21t24.5 15q31 9 95 21.5t95 21.5q10 1 22 14.5 t15 24.5q9 39 27 166q-39 -1 -123 -6.5t-129 -5.5q-41 0 -68 22t-33 56zM461 309q9 2 24.5 4t23.5 3t17.5 3.5t16.5 6.5q35 13 41 30q5 23 26 174q-2 5 -8 5q-28 0 -64 -10t-40 -25q-10 -26 -16 -56t-11.5 -72.5t-9.5 -62.5z" />
<glyph unicode="$" horiz-adv-x="763" d="M6 721q0 66 76 102l61 27q103 54 170 68q18 6 53.5 19t41.5 15q15 44 18 92q16 92 35 166q0 13 2 21q3 20 6.5 32t17 26.5t37.5 19.5q18 0 47 -29q37 -41 37 -86q-5 -59 -18 -123q0 -2 -3 -21t-3 -28q0 -8 2 -8q5 0 12.5 1t11.5 1q50 0 80 -33q29 -29 29 -84 q-4 -18 -19.5 -40.5t-29.5 -22.5l-140 -29l-36 -143l36 -19q38 -16 105 -53q47 -31 65 -57q33 -51 33 -91q0 -14 -2 -24q-9 -55 -67 -94l-43 -29q-104 -70 -170 -98l-76 -33l-35 -234q-3 -27 -14 -43q-17 -28 -56 -34q-16 0 -34 15t-25 40q-2 37 -2 110q0 74 8 117 q0 3 2 8.5t2 8.5q-99 22 -143.5 51t-44.5 86q0 19 4 31q4 36 55 36q16 0 74 -12q10 -3 28 -6.5t23 -5.5h43l43 184l-33 6l-110 13q-59 0 -99.5 43.5t-52.5 119.5q0 3 -1 10.5t-1 10.5zM221 700q13 -3 119 -16l10 37l8 31q-19 -3 -32 -13q-78 -18 -105 -39zM426 358q2 0 5 2 t5 2l36 16.5t33 17t31.5 21t19.5 23.5t9 29q-43 25 -96 25z" />
<glyph unicode="%" horiz-adv-x="1474" d="M2 633v31q3 154 117.5 268.5t263.5 114.5h18q79 -3 152 -86q68 -81 68 -175v-18q-12 -104 -73.5 -186.5t-148.5 -126t-182 -43.5q-83 0 -143 62t-72 159zM143 608q3 -26 30.5 -42.5t41.5 -16.5q92 0 166 80t88 178q0 3 2 8t2 8q0 31 -47 39q-14 6 -43 6q-76 0 -162 -86 q-78 -75 -78 -174zM375 0l2 12q25 64 31 88q37 127 65 179q13 27 285 559l166 325q66 132 127 271q24 59 61 59q23 0 55 -37q21 -24 28.5 -33t14.5 -21.5t7 -23.5q0 -15 -14.5 -39t-16.5 -34l-148 -271q-197 -363 -270 -506q-66 -127 -147 -307l-74 -158q-14 -32 -49 -92 q-17 -20 -49 -20q-2 0 -6 1t-7 1q-5 2 -11.5 6t-14 10t-11.5 8q-2 2 -7.5 8.5t-8.5 8.5zM918 344q5 93 39.5 167t107.5 146l115 99q2 1 9.5 6t17 9.5t16.5 4.5q1 0 5.5 -1t6.5 -1q21 -14 63 -24q29 -7 46.5 -12.5t40.5 -23.5t36 -44q31 -71 31 -121q0 -47 -18 -88 q-85 -208 -316 -301q-27 -10 -47 -10q-39 0 -72.5 21.5t-50.5 57.5q-7 18 -15 51t-9 35q0 11 -6 29zM1081 340q52 18 106 64.5t85 105.5q26 45 26 86q-105 -51 -161 -113t-56 -127v-16z" />
<glyph unicode="&#x26;" horiz-adv-x="690" d="M33 664q0 71 41 106q87 76 211 148q21 13 28 26t9 35q10 110 34 336q5 35 13 45q5 8 8.5 26.5t11 29.5t23.5 11q35 -6 57.5 -37t22.5 -63q0 -3 -2.5 -8t-2.5 -8q-4 -20 -55 -285q0 -8 2 -20t2 -17h70h35q3 0 7 1t7 1q37 0 68 -45q16 -19 16 -49q0 -19 -4 -25 q-3 -7 -12.5 -11.5t-24 -8.5t-20.5 -8h-19q-87 0 -111 -10.5t-24 -59.5q0 -30 6 -86q11 -4 35.5 -13t40.5 -16.5t29 -17.5q24 -24 24 -45q0 -34 -47 -55l-33 -13q-55 -15 -55 -55q0 -16 2 -24l92 -29l6 -19q-5 -5 -35 -33.5t-45 -45.5q-18 -14 -18 -33q-5 -263 -8 -312 q0 -13 -1 -20t-4 -17t-12 -15t-24 -5q-19 0 -27 2q-23 227 -28 311q-2 37 -13 54.5t-45 21.5q-22 2 -39.5 11t-27.5 20t-18 31t-11 33.5t-8 37.5q-9 29 -19.5 44.5t-34.5 25.5q-33 18 -53 61.5t-20 90.5zM141 641q4 -16 13 -31l143 11q7 1 12.5 10t5.5 16q4 41 4 121 q-2 1 -5.5 2.5t-6.5 2.5t-6 1q-31 -24 -160 -133z" />
<glyph unicode="'" horiz-adv-x="577" d="M190 995q0 6 3 15q5 10 22 33.5t21 37.5q33 70 59 150q0 1 3 14.5t3 20.5q0 27 -25 63q-12 20 -12 25q0 22 62 28h24q65 0 82 -36l25 -48q-3 -95 -68 -198q-46 -63 -92 -109q-11 -11 -30 -20.5t-31 -9.5q-20 0 -33 10t-13 24z" />
<glyph unicode="(" horiz-adv-x="497" d="M27 702v50q0 111 22 213.5t63.5 189.5t84.5 153t100 138q12 15 35 29q24 12 33 12q8 0 28 -12q19 -19 19 -62q-4 -62 -15 -106.5t-41 -81.5q-67 -77 -105.5 -148.5t-51.5 -161.5q-9 -71 -9 -135q0 -196 93 -471q30 -86 98 -264l55 -143l-18 -4q-6 0 -18 -1t-17 -1 q-14 -7 -27 -7q-20 0 -28 13q-61 61 -111 143q-24 45 -57 123l-13 35q-111 262 -120 499z" />
<glyph unicode=")" horiz-adv-x="559" d="M37 -43q0 11 12 43q39 71 51 100q93 174 140 287q80 199 104 358q8 57 8 123q0 260 -190 441q0 1 -3.5 5t-4.5 7t-5.5 14t-7.5 17q-16 40 -16 61q0 13 4 19q17 30 51 30q36 0 72 -41l27 -37q113 -130 153 -221q80 -186 80 -364q0 -219 -111 -430q-92 -179 -221 -400 q-5 -9 -12.5 -18t-13 -14t-16.5 -14t-15 -13q-11 -7 -29 -21l-8 -6l-10 6q-39 28 -39 68z" />
<glyph unicode="*" horiz-adv-x="854" d="M55 2071l21 20q37 37 84 37q36 0 63 -21q24 -18 90 -71q0 55 2 80q6 85 31 104q12 12 37 12q24 0 48 -16t32 -29q35 -35 35 -78q0 -7 -2.5 -21.5t-3.5 -21.5l73 84q31 31 64 31q18 0 30 -4q5 -2 13 -4t12.5 -3.5t9.5 -4t8 -6.5q2 -1 4 -5t3 -4q0 -4 2 -8l2 -4 q0 -14 -19 -43q-85 -130 -166 -233q-18 -27 -18 -47q0 -13 18 -37q24 -24 50.5 -52.5t57.5 -63t48 -52.5l61 -74q6 -6 11 -6q18 -22 18 -29q6 -36 6 -37q0 -17 -12 -45q-12 -12 -41 -12q-19 0 -25 6q-2 2 -8 2q-67 34 -104 74q-79 79 -135 145l-11 8q-2 -12 -2 -38v-56 q0 -35 -4 -53q0 -66 -24 -82q-17 -12 -39 -12q-50 0 -78 76q-20 57 -21 73q-54 -51 -86 -51q-35 0 -86 39l-12 10q-14 17 -18 33q0 21 14 35l188 180l9 12q4 10 4 25q-10 15 -13 18q-19 21 -41.5 42.5t-50 46.5t-41.5 38z" />
<glyph unicode="+" horiz-adv-x="958" d="M27 850v16q0 20 10 37q12 12 33 12q16 0 24 -4h238q19 0 30 11q9 9 9 30q0 31 -1 92t-1 89v129h30q46 0 77.5 -26t39.5 -69q8 -71 8 -163q4 -20 4 -64l50 6l178 8q8 4 30 4q58 0 86 -49q19 -38 19 -43q0 -2 -2 -6.5t-2 -5.5q-9 -20 -49 -29q-154 -34 -283 -49 q-31 -5 -43.5 -15.5t-13.5 -41.5q0 -18 -11 -232l-8 -94q0 -6 2 -10q0 -25 -6 -33q-24 -39 -63 -53q-13 0 -31 14t-19 27q0 1 -2 4t-2 4q-24 74 -24 127q0 84 10 197q0 44 2 67h-186q-70 0 -97 22.5t-36 90.5z" />
<glyph unicode="," horiz-adv-x="364" d="M-25 -283q0 1 1 6t1 7q8 28 50 106l16 29q55 104 55 149q0 17 -4 31q0 32 41 59q23 13 51 13h19q32 -11 47 -23q5 0 14 -6l23 -8l-17 -84q-17 -58 -30.5 -94.5t-48 -94.5t-82.5 -106q-13 -13 -41 -27l-37 -24l-15 18q-4 0 -10 6q-1 1 -6.5 4.5t-9 6.5t-8 7.5t-7 11 t-2.5 13.5z" />
<glyph unicode="-" horiz-adv-x="712" d="M37 657q0 22 8 43q4 8 19 13.5t28 5.5q223 0 334 -4q76 0 139 -8q64 -10 64 -62q-3 -61 -74 -61h-37q-200 -11 -340 -23h-49q-41 4 -66.5 31.5t-25.5 64.5z" />
<glyph unicode="." horiz-adv-x="387" d="M125 104q0 87 61 95q35 0 78 -37q43 -43 43 -88q0 -73 -86 -78q-96 0 -96 108z" />
<glyph unicode="/" horiz-adv-x="1069" d="M20 61q0 23 13 52q94 170 184 323q66 113 182 301l9 15q21 32 71 102q9 15 31 46t31 46l159 266q70 116 119 185q35 53 96 53q77 0 117 -84q1 -1 2.5 -6t3.5 -8v-23q0 -1 -2 -4t-2 -4q-11 -23 -24 -29q-38 -18 -70.5 -55t-71.5 -94l-8 -17q-3 -8 -11.5 -22t-12.5 -21 q-68 -106 -145.5 -228t-169.5 -268.5t-144 -228.5l-94 -153q-37 -59 -72 -123l-49 -80q-20 -45 -58 -45q-22 0 -47 25q-37 37 -37 79z" />
<glyph unicode="0" horiz-adv-x="1114" d="M20 322v16q0 225 134 420q-50 89 -50 121q0 24 18 44.5t64 55.5q116 85 222 131.5t221 46.5q54 0 98 -8q195 -38 287 -215q73 -137 73 -295q0 -177 -85 -344t-222 -268q-172 -125 -325 -125q-49 0 -90 8q-148 31 -245 147t-100 265zM154 291q0 -211 239 -223h25 q43 0 61 2q82 11 168 65.5t156 134.5t115.5 187t48.5 215q-2 7 -19.5 82.5t-32.5 111.5q-26 80 -98 80q-15 0 -65 -12h-62q-14 -3 -43 -7.5t-51.5 -9.5t-40.5 -14q-351 -197 -399 -553q-2 -23 -2 -59z" />
<glyph unicode="1" horiz-adv-x="749" d="M12 57q0 56 74 56h107q61 5 76.5 21t15.5 77q4 195 4 590q-11 -1 -31.5 -4.5t-30.5 -3.5q-72 3 -104 79q-10 23 -10 43q0 37 24 64q142 161 176 362q0 4 13 17q69 -4 105 -38.5t36 -94.5v-21q-25 -261 -25 -559q0 -224 9 -452q0 -1 1 -3t4 -6.5t5 -9.5q122 27 166 41 q4 1 15.5 3.5t16.5 2.5q41 0 62 -35q10 -20 10 -30q0 -29 -37 -62q-5 -4 -14.5 -13t-18 -15t-16.5 -9q-40 -13 -116 -40.5t-124 -44t-116.5 -30.5t-128.5 -14q-54 0 -93 26.5t-49 70.5q-6 18 -6 32z" />
<glyph unicode="2" horiz-adv-x="1099" d="M12 70q0 56 45 98q101 96 162 158t138.5 158t129.5 188q54 99 54 219q0 55 -6 86q-15 82 -66 82q-9 0 -45 -12q-106 -42 -195 -107q-40 -29 -73 -29q-45 0 -80 41q-21 24 -21 52q0 45 49 77q165 98 254 138q43 22 91 22q96 0 169 -82.5t84 -181.5q7 -54 7 -92 q0 -271 -193 -502l-121 -141q438 27 471 28h37q61 0 123 -12q24 -6 42.5 -20.5t18.5 -38.5q0 -21 -14 -35.5t-29 -16.5q-83 -29 -202 -43q-26 -4 -147 -19.5t-169 -23.5t-136 -29.5t-157 -49.5q-68 -31 -114 -31h-15q-26 5 -53 29.5t-33 50.5q-6 18 -6 39z" />
<glyph unicode="3" horiz-adv-x="874" d="M0 74q0 24 14 55q0 21 47 21q25 0 108 -10.5t122 -10.5q29 0 41 2q94 14 239 98q37 23 58.5 64t21.5 84q0 37 -18 72q-27 45 -69 68.5t-89 23.5q-34 0 -80 -19q-42 -20 -112 -24q-5 0 -14.5 -2t-14.5 -2q-60 0 -82 28q-22 26 -22 56q0 44 40 69q10 8 22 14t21 8.5 t26.5 6.5t25.5 6q3 0 9 3t9 3q2 0 5 1t5 1q101 21 179 82t155 158l10 12l7 10q32 44 32 82q0 3 -1 9.5t-1 9.5q-41 49 -110 49q-5 0 -14.5 -1t-14.5 -1q-75 -11 -233 -74q-32 -16 -56 -16q-42 0 -61 43q-8 16 -8 41q0 28 17 52.5t44 33.5q25 8 76.5 27t92.5 32t79 21 q25 6 72 6q109 0 186 -66q92 -74 92 -184q0 -95 -68 -166q-56 -70 -159 -180q10 -11 60 -61.5t69 -80.5q47 -80 47 -170q0 -76 -34.5 -148.5t-94.5 -117.5q-186 -135 -416 -135q-72 0 -129 8q-37 5 -76 29q-55 27 -55 80z" />
<glyph unicode="4" horiz-adv-x="800" d="M31 659q0 41 20 74q71 75 190.5 179t219 199.5t166.5 193.5q-4 12 -4 30q0 56 55 56q33 0 62.5 -23.5t29.5 -58.5q0 -19 -6 -31q-7 -46 -25 -121q-6 -24 -6 -27q-2 -6 -2 -16l-92 -418q0 -3 -2 -7t-2 -7v-12q3 -10 29 -25q4 0 7 -2t5 -2q22 -4 39 -12l41 -19 q24 -13 61 -61q2 -2 2 -8q0 -11 -12 -13h-156h-12q-2 0 -5 -2t-5 -2q-11 0 -19 -12q-22 -99 -33.5 -157t-22.5 -145.5t-11 -160.5v-43q0 -3 -1 -5.5t-1 -4.5q0 -3 -2 -6.5t-4.5 -9t-4.5 -9.5l-14 -12q-1 0 -5.5 -1t-12.5 -1q-17 0 -25 2q-15 0 -35 12q0 2 -12 19 q-25 45 -25 78q2 66 12.5 152t17.5 128t26 152q4 10 4 22q0 5 -2 10l-2 5q-9 15 -27 18q-49 7 -172.5 20t-189.5 23q-37 15 -37 61zM258 725l234 -41l55 281l-12 6z" />
<glyph unicode="5" horiz-adv-x="972" d="M6 156q0 41 6 61l105 -67q94 -64 184 -64q55 0 117 27q98 52 106 141q0 6 2 18t2 17q0 112 -120 112q-91 0 -193 -30q-58 -15 -80 -15q-102 0 -102 113q0 29 4 47q6 38 18.5 80t30 93.5t25.5 80.5q39 170 45 191q11 39 41 98q27 2 68.5 4t64.5 3t53 4t55 7q62 10 332 66 q18 3 111 8q73 0 73 -49q0 -33 -45 -74q-26 -20 -78 -31q-55 0 -127 -19.5t-163 -53t-123 -43.5q-100 -23 -121 -111q-4 -21 -11.5 -46t-13.5 -42.5t-18 -49t-18 -48.5q15 0 120 -6q145 -9 239.5 -111t94.5 -240q0 -53 -18 -114q-43 -131 -168 -172q-82 -27 -160 -27 q-131 0 -250 82q-88 59 -88 160z" />
<glyph unicode="6" horiz-adv-x="874" d="M12 295q0 115 51 242q37 92 88 180t116 171.5t123.5 149.5t139.5 150q35 41 68 41t68 -41q34 -37 34 -70q0 -42 -41 -80q-179 -187 -282 -311q-46 -57 -71 -91t-54.5 -93t-42.5 -119l98 43q81 37 168 37q102 0 193 -51.5t149 -143.5q31 -57 31 -106q0 -70 -43 -123 q-170 -213 -434 -213q-68 0 -105 6q-128 22 -196 164q-58 135 -58 258zM205 82q0 -39 65 -51q20 -6 62 -6q180 3 289 104q21 21 39 50.5t18 47.5q-7 21 -23.5 40.5t-33 31.5t-41.5 27l-13 6q-11 8 -39 8q-6 0 -17 -1t-17 -1q-206 -29 -277 -207q-12 -30 -12 -49z" />
<glyph unicode="7" horiz-adv-x="964" d="M25 1059q0 32 8 71h49q190 0 510 82q119 32 166 60q27 12 49 12q37 0 74 -37t37 -78q0 -15 -15 -49q-16 -25 -56.5 -91t-64.5 -101q-244 -377 -395 -717q-25 -54 -55 -209q0 -1 -2 -4t-2 -4q-1 -3 -3.5 -17t-4 -18.5t-6 -15t-9 -14.5t-13.5 -9t-20 -6h-12q-56 0 -76 63 q-10 38 -10 66q0 21 4 31q6 20 21.5 71t24.5 77.5t24 67t31 72.5q105 213 335 635l27 56l-352 -70q-71 -15 -139 -18h-15q-58 0 -84 23t-26 71z" />
<glyph unicode="8" horiz-adv-x="958" d="M25 1028v29q0 65 24 98q19 38 76 62q249 94 405 94q93 0 172 -25q19 -4 51 -6.5t46 -5.5q23 -4 39 -12q21 -16 30 -33q54 -85 54 -148q0 -53 -35 -96q-76 -111 -248 -319q-14 -14 -78 -45l-12 -11l10 -12q97 -162 119 -203q47 -77 47 -172q0 -117 -80 -217 q-71 -93 -170 -133q-35 -14 -76 -14q-87 0 -166 51q-82 48 -122 133q-50 97 -50 197q0 131 101 241q16 18 34 40t40 49.5t36 43.5l11 13l-11 8q-47 44 -131 123q-97 105 -116 270zM184 954q0 -43 37 -80q9 -10 162 -147l12 -12l11 12q257 257 321 324l12 12l-12 8 q-65 55 -154 55q-28 0 -100 -14q-134 -28 -250 -92q-39 -23 -39 -66zM240 180q0 -50 20 -86q8 -7 35 -20q21 -6 45 -6q19 0 37 6q67 19 115 80q37 51 57 125q6 18 6 40q0 39 -27 87q-18 25 -77 67l-9 -6q-73 -55 -127 -117q-59 -68 -73 -127q-2 -14 -2 -43z" />
<glyph unicode="9" horiz-adv-x="948" d="M39 940q0 86 27 153t72 109t109.5 70t132.5 39t148 12q92 0 181.5 -61.5t144.5 -156t55 -187.5q0 -38 -12 -76q-19 -58 -34 -122.5t-31 -150t-25 -125.5q-21 -105 -111 -583q-40 -19 -69 -19q-41 0 -68 37q-37 55 -37 121q0 36 8 63q60 273 127 607l-16 -11 q-69 -38 -125 -61q-92 -39 -166 -39q-124 0 -208 86.5t-99 233.5q-4 20 -4 61zM203 905q0 -36 8 -67q23 -80 86 -80q25 0 37 4q273 64 366 289q-37 52 -75 75t-90 23q-42 0 -129 -25q-88 -28 -145.5 -89t-57.5 -130z" />
<glyph unicode=":" horiz-adv-x="356" d="M80 111q0 14 2 20q7 17 26.5 30t34.5 13q2 0 5.5 -1t5.5 -1q36 -14 86 -80q8 -13 8 -49q0 -26 -6 -41q-5 -15 -24.5 -32t-20.5 -19q-38 0 -77.5 57t-39.5 103zM119 672q0 49 18 61q6 6 25 6q29 0 60 -23.5t44 -58.5q10 -27 10 -47q0 -40 -23 -69t-63 -29q-2 3 -21.5 25.5 t-27.5 40.5q-22 43 -22 94z" />
<glyph unicode=";" horiz-adv-x="395" d="M-25 -258q0 8 9 20q5 5 18.5 17t23.5 22.5t17 20.5q63 91 88 135q12 17 12 49q0 29 -12 51q-6 18 -6 19q0 24 41 24q2 0 10 -1t14 -1q83 -10 99 -59l14 -51q-28 -101 -110 -178q-56 -52 -113 -91q-36 -18 -60 -18q-1 0 -4 2t-4 2q-37 12 -37 37zM55 604q15 78 80 78 q4 0 13.5 -2t13.5 -2q55 -11 86 -45q55 -64 55 -103q-6 -26 -37 -45t-63 -24q-51 0 -92 45q-13 14 -23 30.5t-20 39.5t-13 28z" />
<glyph unicode="&#x3c;" horiz-adv-x="940" d="M57 524q0 16 13 34t28 28l185 98q31 16 202 109q67 36 156 100q27 18 53 18q35 0 62 -37q30 -45 30 -79q0 -3 -2 -9.5t-2 -9.5q-9 -40 -61 -74l-438 -247q104 -93 276 -148l57 -18l109 -37q92 -37 92 -123q0 -3 1 -8t1 -8q0 -15 -9 -26t-22 -11q-3 0 -11.5 2.5t-12.5 3.5 q-376 48 -653 299q-54 49 -54 143z" />
<glyph unicode="=" horiz-adv-x="1271" d="M137 1008q0 63 53 63q19 0 27 -2q73 -12 184 -12h56q18 0 50 1t48 1q215 0 410 -39q29 -7 49 -35.5t20 -60.5q0 -15 -2 -21q-4 -11 -21.5 -20t-31.5 -9l-215 23q-154 14 -270 14q-82 0 -125 -2q-25 0 -74 -2t-74 -2q-49 0 -65 20t-19 83zM174 653v25q0 37 9 66t26 36 q1 0 5.5 1t6.5 1q1 0 5.5 -1t6.5 -1q34 -17 76.5 -26t73 -10.5t80.5 -2.5t74 -2q380 -24 569 -32q37 -18 37 -41q0 -29 -53.5 -55.5t-106.5 -26.5h-594q-74 12 -156 18q-51 0 -59 51z" />
<glyph unicode="&#x3e;" horiz-adv-x="890" d="M129 807v18q9 62 51 62q21 0 37 -8l109 -54q81 -45 141 -67q73 -35 186 -68l29 -12q24 -6 46.5 -28t35.5 -52q16 -32 16 -57q0 -17 -4 -23q-13 -40 -57 -61q-210 -82 -379 -295l-12 -15q-22 -43 -58 -43q-12 0 -18 2q-74 25 -74 97v14q4 61 39 102q99 95 182 173l76 69 l-67 35q-23 11 -62.5 29t-71 32.5t-59.5 26.5q-40 17 -63 50.5t-23 72.5z" />
<glyph unicode="?" horiz-adv-x="813" d="M39 1217q0 32 43 57q210 121 477 121h57q40 -3 80 -29.5t66 -67.5q24 -36 24 -86q0 -36 -16 -69q-55 -125 -154 -269q-30 -45 -89.5 -128.5t-82.5 -116.5q-19 -25 -60.5 -83.5t-64.5 -88.5q-7 -15 -16 -45q-3 -15 -14 -41q-16 -37 -31 -39q-4 -4 -16 -4q-31 0 -52 18 q-47 53 -47 109q0 35 17 63q30 58 135 209l6 10q33 50 150 215l139 197l37 74q-9 0 -28 -2t-28 -2q-68 0 -139 -9q-157 -23 -254 -92q-25 -22 -53 -22q-32 0 -55 41q-31 53 -31 80zM168 131q0 19 12 43q20 31 49 31q30 0 60 -25q44 -44 57 -106q4 -6 4 -19q0 -15 -10 -30 q-19 -25 -61 -25q-27 1 -52.5 22t-40.5 48q-18 35 -18 61z" />
<glyph unicode="@" horiz-adv-x="1366" d="M18 604q0 194 117 330q79 98 211 149q195 68 373 68q154 0 315 -51q135 -45 209 -152.5t74 -263.5v-25q-12 -289 -295 -374l-70 -21q27 -44 27 -80q0 -60 -57 -86q-185 -84 -355 -84q-149 0 -297 68q-167 81 -227 332q-25 103 -25 190zM156 522q0 -133 72 -223.5 t221 -114.5q31 -6 86 -6q45 0 99 8t87.5 16.5t101 27t92.5 24.5q-109 5 -153 117l-117 -62q-52 -20 -90 -20q-55 0 -88 33q-98 98 -98 219q0 57 26 108t72 82q138 88 272 88q91 0 164 -33q32 -13 51 -43t19 -65q0 -32 -15 -55q-24 -36 -24 -82q0 -16 3.5 -47.5t4.5 -44.5 q19 8 50.5 20t54 22.5t40.5 24.5q45 35 76 94.5t31 120.5q0 84 -64 137q-92 74 -188 97q-101 26 -209 26q-106 0 -211 -24q-304 -69 -356 -344q-10 -55 -10 -101zM516 512q0 -1 8.5 -7.5t22.5 -13t24 -6.5q132 0 160 150q-120 0 -194 -74q-21 -21 -21 -49z" />
<glyph unicode="A" horiz-adv-x="960" d="M8 111q0 12 17 43l118 184l7 8q14 30 18 74q2 23 3.5 32.5t6.5 22.5t15.5 20t27.5 11l8 10l74 186q10 28 25.5 81.5t21.5 70.5l125 467q13 68 60 68q35 0 75 -29t47 -64q27 -126 45 -276q13 -110 23 -252l8 -111v-12l12 -4q5 0 14.5 -1t14.5 -1q5 -1 19.5 -2.5t21.5 -2.5 t19 -3.5t18.5 -6t13.5 -8.5t10 -12.5t3 -17.5q-2 -20 -27.5 -51.5t-50.5 -52.5l-25 -21l90 -283q2 -14 15 -35q0 -3 2.5 -7.5t3.5 -6.5l4 -10q14 -35 14 -51q0 -20 -20 -37t-37 -17q-33 0 -72 54q-41 56 -61 118q-11 25 -29.5 78.5t-21.5 61.5q-2 7 -11 30t-12 37l-6 13 l-88 -25q-132 -35 -176 -53q-15 -7 -31 -21.5t-24.5 -26t-24.5 -34.5l-107 -183q-35 -55 -65 -55q-9 0 -13 4q-7 3 -14 8t-12.5 9.5t-13.5 12.5l-12 12t-12.5 14.5t-11 13.5t-12 15.5t-10.5 13.5zM412 510l180 51l-6 68q-18 175 -25 215q0 2 -1 13t-2.5 21t-4.5 21t-9 18 t-14 7q-9 -3 -38.5 -106.5t-54.5 -205.5z" />
<glyph unicode="B" horiz-adv-x="935" d="M33 1204q0 13 4 19q8 28 61 49l6 1q6 1 9 1q15 9 34 12q46 9 66 33.5t20 71.5q0 14 10 33t11 22q14 22 37 22q17 0 41 -12q7 -6 27 -21.5t30 -25.5q9 -7 17 -31h118q118 0 207 -57q47 -30 72.5 -74t25.5 -92q0 -61 -34 -111q-42 -73 -102 -129.5t-140 -113.5 q24 -6 88 -31q164 -74 219 -205q19 -55 19 -98q0 -101 -78 -207q-186 -244 -500 -285q-4 0 -29 -10q-27 -18 -51 -18q-55 0 -84 47q-18 30 -39 57q-2 3 -14.5 14t-22.5 25t-10 27q3 11 34.5 18t31.5 12l37 474q0 29 -23 49q-23 23 -33 43q-16 24 -16 43q0 3 2.5 10t3.5 10 q3 7 8 12.5t10 8t12 5t11 3t10.5 1.5t7.5 1q15 0 21.5 6t9.5 23q3 98 19 211q0 2 1 6.5t1 5.5q0 8 2 24t2 25q-40 -14 -56 -14q-17 0 -32.5 6t-22 11t-22 21t-19.5 19q-18 36 -18 53zM291 137l24 10q42 12 109 43q102 52 165 113.5t95 140.5q12 30 12 68q0 37 -12 59 q-32 53 -113 68q-18 4 -76.5 6t-107.5 2h-49q-4 -2 -4 -12q-3 -47 -12 -94l-19 -176l-8 -179q-4 -14 -4 -49zM365 899l12 10q75 50 104 76q41 30 67 53t55 63t44 85q0 18 -14 18h-29q-25 2 -67 2q-35 0 -76 -6q-61 -5 -72 -14q-8 -8 -8 -66q0 -4 -2 -11.5t-2 -12.5v-19 q-1 -8 -12 -178z" />
<glyph unicode="C" horiz-adv-x="970" d="M43 571v111q0 133 62.5 274t174 252.5t242.5 151.5q33 10 74 10q115 0 215.5 -76.5t128.5 -185.5l1 -4q1 -4 1 -8q0 -15 -7.5 -33.5t-16.5 -24.5q-12 -12 -39 -12q-20 0 -29 6q-29 13 -57 64q-49 78 -123 78q-19 0 -56 -11q-99 -23 -174.5 -79.5t-119.5 -133t-65.5 -161 t-21.5 -173.5q0 -40 7 -94q11 -83 44.5 -159t93.5 -129.5t132 -53.5q65 0 120.5 20t93 49t70 57.5t65 48.5t63.5 20q5 0 11 -1t10 -2t5 -1q19 -9 19 -39q0 -42 -31 -102.5t-80 -104.5q-138 -135 -321 -135q-166 0 -292.5 111.5t-172.5 299.5q-7 31 -27 170z" />
<glyph unicode="D" horiz-adv-x="1032" d="M63 123q0 1 2.5 3.5t4.5 2.5q25 8 42.5 22t26.5 28t14.5 36t6.5 37t2 39q0 8 2 23.5t2 23.5l39 737q0 3 2 14t2 17t1 19t1 20q0 22 -6 43q-12 34 -12 61q0 55 43 133q1 0 4.5 3.5t7.5 3.5q10 0 36.5 -10.5t34.5 -12.5l21 -6q116 -28 219 -64q162 -54 258 -150.5 t137 -246.5q23 -73 23 -154q0 -151 -90 -288q-197 -300 -525 -383q-14 -4 -33.5 -16t-34.5 -22l-15 -11l-13 -11q-36 -26 -51 -26q-20 0 -55 43q-6 7 -31.5 27.5t-45.5 38.5t-20 26zM297 209l41 14q187 87 304 210.5t175 297.5q19 59 19 107q0 70 -30 131t-85 102 q-103 78 -217 78q-50 0 -127 -25l-19 -6l-12 -123q-49 -457 -49 -741v-45z" />
<glyph unicode="E" horiz-adv-x="1357" d="M92 156q0 136 62 239q39 65 98 228q52 143 106 307q7 25 23 71.5t20 57.5q11 33 11 43q0 22 -25 47q-18 13 -18 61q0 45 8 86q6 50 74 50h22q75 0 148 6q189 6 196 6h45q179 -6 400 -31q28 -4 57 -27.5t29 -56.5q-3 -21 -19 -37q-25 -20 -110 -20h-58q-187 -12 -522 -25 q-32 0 -47.5 -13.5t-24.5 -47.5q-17 -80 -69 -246l-29 -80h305q25 2 70 2q22 0 54 -1t44 -1q28 -3 55.5 -21t34.5 -40q2 -10 2 -29q0 -18 -8 -31q-18 -31 -68 -37l-213 -26q-89 -11 -153 -23l-156 -20q-31 -5 -48 -20.5t-26 -47.5l-86 -282l138 12q6 0 13 1t9 1 q212 23 326 25h37q43 4 141 4q46 0 82.5 -1.5t78.5 -7.5t71.5 -16.5t51.5 -28.5t29 -43v-14q0 -19 -12 -37q-34 -43 -158 -43q-233 0 -542 -24q-57 -4 -183 -41q-18 -2 -57 -15q-12 -4 -37 -4q-61 0 -113.5 38.5t-56.5 94.5q0 10 -1 29.5t-1 28.5z" />
<glyph unicode="F" horiz-adv-x="1210" d="M150 1274q0 46 53 67q22 9 69 37q13 11 37 23q17 11 37 18q58 12 188.5 42t202.5 44q117 19 197 19h37q15 -1 30.5 -7.5t21.5 -10t23.5 -17t18.5 -14.5t4.5 -6.5t7.5 -6.5q47 -38 47 -84q-6 -39 -53 -63q-12 -4 -31 -4q-9 0 -49 10q-11 8 -26 8q-85 0 -220 -43 q-96 -23 -100 -24q-11 -2 -29 -13q-2 -1 -5.5 -2.5t-6.5 -2.5t-6 -1l-37 -12q-75 -24 -99.5 -51t-37.5 -109l-10 -55l-6 -80q0 -31 -2 -45q83 0 239 24l8 3q7 0 15 1t17.5 2.5t14.5 2.5l64 10q134 18 182 27h19q61 0 88 -56q6 -12 6 -24q0 -22 -8 -33q-17 -28 -54.5 -45 t-72.5 -23l-482 -114q-40 -9 -58 -28t-22 -58l-22 -138q-27 -189 -27 -299q0 -57 2 -88v-16q0 -23 -8 -31q-15 -12 -28 -12q-17 0 -43 16q-80 49 -80 160q12 210 22 309l6 66q8 112 25 260l31 172q1 2 12 53q2 8 2 27q0 45 -39 78q-38 33 -61 116q-4 6 -4 21z" />
<glyph unicode="G" horiz-adv-x="1210" d="M68 537q0 75 24 219l6 26q46 304 185 527q59 91 100 137q87 90 182 90q85 0 209 -78q175 -108 205 -297q0 -11 12 -35l10 -20q1 -4 4 -16.5t3 -18.5q0 -49 -47 -67q-14 -7 -33 -7q-50 0 -62 47l-10 21q-2 8 -8 31.5t-9 39t-3 31.5q0 75 -60 117q-95 68 -160 68 q-84 0 -178 -146q-95 -150 -145 -328t-60 -415v-12q0 -35 9 -76q0 -2 2 -5t2 -5q17 -70 110 -70h15q171 12 348 92q23 13 37 45q19 48 39 109l10 24l-43 -10q-38 -6 -146 -20q-4 0 -14.5 -2.5t-15.5 -2.5q-52 0 -87.5 28.5t-47.5 76.5q-1 8 -4 20.5t-3 16.5q0 15 11 30 q13 19 45 19h16q7 0 21 -1t22 -1q155 0 389 104l25 15q43 34 71 34q33 0 76 -49q35 -38 35 -73q0 -37 -43 -80q-109 -97 -164 -262l-92 -283q-12 -49 -51 -168q-19 -55 -60 -55q-17 0 -49 14q-63 42 -63 121q0 33 8 57l29 68l-66 -8q-147 -23 -198 -25h-23 q-100 0 -176.5 66.5t-108.5 160.5q-30 74 -30 181z" />
<glyph unicode="H" horiz-adv-x="823" d="M33 682q0 27 35 27h12q10 0 24 -1t19 -1q35 0 44 13.5t17 67.5q17 93 35.5 197.5t41 232t34.5 197.5q3 47 31 47q4 0 32 -12q53 -28 72 -47t19 -51q0 -18 -11 -68q-7 -35 -43.5 -213t-54.5 -272l-6 -56q121 15 139 19q8 1 16.5 14.5t10.5 24.5q40 334 129 559 q5 13 15.5 35.5t14.5 31.5q10 30 22 45t32 15q18 0 39 -12q30 -13 48.5 -41.5t18.5 -57.5q0 -22 -8 -35q-43 -69 -75 -159t-45 -150t-34 -172l-10 -43q0 -3 -1 -8.5t-1 -7.5q0 -10 5 -17t8.5 -9.5t16 -7.5t13.5 -5q37 -18 37 -37q0 -18 -31 -35q-35 -19 -47 -46.5t-12 -70.5 v-73q0 -47 -1 -144t-1 -145q0 -91 -60 -98q-26 0 -48 36.5t-25 73.5v387q-19 -3 -60.5 -9.5t-66.5 -11.5t-47 -11q-12 -4 -23.5 -23.5t-13.5 -36.5q-14 -81 -36.5 -232.5t-29.5 -197.5q0 -3 -30 -100q-50 19 -71.5 44.5t-21.5 65.5v19q18 237 25 407q-67 28 -88 135 q-4 6 -4 23z" />
<glyph unicode="I" horiz-adv-x="731" d="M33 76q0 6 3 16t3 12q12 28 27 39t38 11q16 0 50 -8.5t49 -8.5q13 0 30 10q11 9 17 35.5t7.5 49.5t2 59t0.5 41q32 385 117 897q-52 -23 -92 -23q-50 0 -83.5 25.5t-33.5 77.5v18q3 28 31.5 51t73.5 38t86.5 25t90.5 19.5t66 14.5l12 2l-49 -13q8 5 37 11q6 2 21 2 q50 0 103.5 -34.5t53.5 -78.5q0 -17 -4 -23q-6 -20 -23 -29.5t-34.5 -10.5t-39.5 -4t-34 -11q-27 -18 -68.5 -358.5t-54.5 -538.5q-1 -4 -7.5 -41t-11.5 -72.5t-5 -60.5q0 -41 12 -53q8 -12 37 -12h31q42 0 61 -31q14 -25 14 -43q0 -33 -36.5 -59t-92 -39.5t-110 -20 t-101.5 -6.5q-35 0 -47 2q-51 9 -99 43t-48 80z" />
<glyph unicode="J" horiz-adv-x="1046" d="M33 590q0 26 12 61q4 1 13 3.5t12 2.5q7 0 13.5 -2t12 -8t9.5 -10t9.5 -14.5t7.5 -14.5t8 -18t7 -17l17 -36q42 -100 81.5 -168t98.5 -123q52 -49 129 -49q31 0 47 2q91 18 94 114q11 368 29 602v246l-55 -16l-99 -25q-36 -6 -37 -6q-43 0 -80 49q-30 33 -30 80 q0 30 8 49q3 8 20.5 17.5t38.5 13.5q201 39 461 80q15 3 43 6t37 4h33q49 0 59 -55q0 -18 -6 -37t-12 -25q-29 -23 -111 -71q-14 -5 -61 -33l-11 -10q-4 -28 -30.5 -167t-30.5 -216q-14 -315 -14 -410q0 -88 2 -131v-18q0 -113 -51 -164q-59 -62 -172 -62q-10 0 -22 1 t-26.5 2.5t-23.5 2.5q-105 18 -221 134q-110 115 -191 346q-18 56 -18 90z" />
<glyph unicode="K" horiz-adv-x="921" d="M43 104q0 192 80 455q29 97 86.5 279t69.5 219l33 99t44 134l9 39l18 55q4 12 16 24.5t31 16.5q24 0 50 -16t44 -43q25 -39 25 -70q0 -16 -2 -22l-90 -211l-101 -301l31 26q65 57 94 97q137 165 264 340q26 35 54 35q19 0 45 -23q4 -4 14 -13t16 -15t13.5 -16t11.5 -19 q6 -15 6 -35q0 -31 -12 -43q-37 -47 -57 -74q-79 -102 -118.5 -151t-114.5 -128t-146 -133q-21 -18 -21 -32q0 -15 13 -31q76 -117 153 -211.5t174 -169.5l37 -23q23 -12 36 -20t25.5 -24.5t12.5 -35.5q0 -12 -2 -20q-34 -37 -66 -37q-27 0 -69 25q-168 99 -320 291 l-108 141q-20 33 -46 59l-67 -368q-9 -45 -12 -99l-11 -98q-4 -17 -23 -29t-40 -12q-41 11 -56.5 39.5t-21.5 71.5q-2 25 -2 77z" />
<glyph unicode="L" d="M57 70q0 20 13 43q12 19 12 55q4 6 4 18q18 139 51 309t57 277t70 303l19 76q25 98 32 139l7 25q0 2 3.5 24t8.5 33q9 19 30 33t42 14q36 -5 69 -47q43 -54 43 -100q0 -3 -1 -8.5t-1 -8.5q-38 -149 -53 -217q-113 -478 -137 -587q-16 -67 -35 -209l-6 -58l92 37 q122 45 175.5 64t151.5 42.5t181 28.5q32 -4 69 -10q22 -2 36 -13.5t14 -31.5q0 -9 -3 -18q-7 -16 -22.5 -29.5t-26.5 -19.5l-12 -5l-31 -18q-73 -30 -84 -33q-50 -12 -109 -33.5t-97.5 -38t-108 -48t-98.5 -44.5l-183 -75q-22 -11 -39 -11q-50 0 -77 47q-1 5 -11 14.5 t-10 10.5q-35 39 -35 70z" />
<glyph unicode="M" horiz-adv-x="1370" d="M33 61q0 10 16 37q13 21 125.5 195.5t159.5 271.5q34 70 71.5 157.5t59 143t64.5 169.5t57 151q24 58 24 125q5 55 41 55q16 0 37 -8q123 -62 123 -201q0 -1 -6 -463q0 -22 6 -43h12l357 842q11 33 32 33q9 0 35 -13q51 -33 79 -70.5t28 -94.5q0 -31 -2 -45 q-67 -364 -80 -467q-4 -26 -14 -97t-15 -108t-11.5 -95.5t-9.5 -108.5t-3 -99q0 -92 16 -193q3 -25 19 -68t20 -65q4 -6 4 -20q2 -10 2 -23q0 -14 -11 -22.5t-26 -8.5q-19 0 -45 13q-122 94 -133 288q0 19 -1 57.5t-1 57.5q0 67 3.5 189t4.5 161v27q0 36 -8 59 q-13 -38 -61 -168.5t-72 -203.5q-12 -41 -35 -135t-39 -144q-27 -59 -74 -59q-45 0 -85 63.5t-40 124.5v31q0 148 -34 426q-45 -114 -68 -150q-91 -180 -283 -540q-3 -3 -5 -6t-4 -7l-3 -6q-29 -96 -88 -96q-12 0 -22 4q-24 5 -43 18t-32 35t-20.5 39t-17.5 45q0 2 -2 5 t-2 5z" />
<glyph unicode="N" horiz-adv-x="1050" d="M-47 -92q0 11 3.5 24.5t6.5 22t10.5 27t10.5 24.5q74 165 129 393q50 208 116 578q7 31 7 55q0 6 -1.5 20t-1.5 23q0 10 -2 30t-2 32q0 42 23 69q2 6 20 6q20 0 47 -6q87 -23 125 -131q32 -81 105.5 -273.5t116.5 -301.5q5 -14 13.5 -29t21.5 -35.5t18 -29.5 q1 -3 5.5 -10.5t6.5 -12.5v25q0 242 28 657t54 473l6 16l17 -6l32 -16q57 -22 80 -45q29 -42 29 -92q0 -19 -4 -29q-76 -320 -76 -690q0 -178 8 -295q2 -32 10 -92.5t9 -73.5l10 -68q0 -5 1 -16.5t1 -17.5q0 -70 -62 -93q-11 -8 -32 -8q-23 0 -41.5 14t-42.5 42 q-223 271 -369 659q-5 17 -12 23l-43 -220q-29 -148 -48 -234.5t-56 -213.5t-80 -227q-7 -23 -30 -46.5t-46 -23.5q-32 0 -80 45q-41 41 -41 78z" />
<glyph unicode="O" d="M45 528q0 159 59.5 308.5t167.5 308.5q49 75 152 182q95 98 178 98q96 0 178 -108q208 -261 211 -592q-23 -476 -420 -639q-88 -37 -184 -37q-38 0 -68 6q-101 13 -166.5 97.5t-91.5 216.5q-16 73 -16 159zM233 426q1 -89 33.5 -131.5t98.5 -42.5q34 0 92 14 q68 11 138.5 55t126 106t91 140t35.5 152q0 27 -10 69q-51 198 -95 312q-36 80 -90 80q-35 0 -75 -37q-165 -153 -255 -320t-90 -368v-29z" />
<glyph unicode="P" horiz-adv-x="860" d="M74 752q0 7 6 16q11 14 24 14h37q21 82 58 253t59 257q-36 -6 -37 -6q-27 0 -46.5 11.5t-30 33t-14.5 36t-7 34.5v12q0 18 12.5 35.5t30.5 26.5q117 55 227 55q102 0 196.5 -43t166.5 -121q75 -81 75 -197q0 -53 -18 -118q-77 -282 -356 -422q-57 -32 -148 -43 q-12 -1 -15 -5t-3 -14q0 -31 -6 -86v-26q-1 -18 -2.5 -50t-2.5 -58t-1 -50q0 -99 16 -178v-21q0 -2 1 -6.5t1 -5.5q0 -3 2 -12t2 -13q0 -51 -53 -61q-6 -4 -19 -4q-58 0 -86 72q-43 128 -43 288q0 30 13 88v129q0 6 2 20.5t2 20.5q0 21 -13 64l-4 10l-12 31q-4 12 -12 20 q0 2 -1 7t-1 6zM328 780q110 42 205 155.5t114 221.5q4 12 4 31q0 61 -53 96q-73 49 -160 49h-30q21 -18 28.5 -33.5t7.5 -37.5q0 -38 -20 -99q-7 -23 -80 -297q-11 -55 -16 -86z" />
<glyph unicode="Q" horiz-adv-x="1032" d="M31 436q0 158 69 340q49 128 122 243t179 253q38 51 152 119l37 22q32 19 61 19q46 0 94 -48q37 -30 37 -73q0 -37 -14 -58q98 -96 145.5 -217t47.5 -280q0 -12 -1.5 -37t-1.5 -37q-7 -118 -55.5 -220t-128.5 -173q-104 -95 -104 -219q0 -41 8 -82q4 -12 4 -41v-15 q-4 -6 -4 -16q0 -55 -37 -55q-59 0 -80 43q-21 47 -43 127q-6 37 -12 37q-1 0 -11.5 -4.5t-15.5 -8.5q-90 -43 -170 -43q-187 0 -254 246q-24 86 -24 178zM209 264q0 -50 18.5 -67t48.5 -17q7 0 21.5 3t17.5 3q48 11 123 43q56 24 56 80v19q0 3 -1 9t-1 9q-17 90 -17 160 q0 87 29 141q12 6 31 6t43 -12q42 -30 67 -64t25 -85q0 -37 2 -60q73 101 106 186t33 175q0 39 -4 57q-7 91 -35 161.5t-94 121.5q-40 30 -76 30q-39 0 -74 -43q-238 -286 -301 -555q-18 -77 -18 -215v-86z" />
<glyph unicode="R" horiz-adv-x="1069" d="M27 55q0 4 6 58q56 307 160 798l24 123q6 28 19 82.5t16 69.5q3 6 5 14.5t4 19t3 15.5q-57 15 -71 100q0 11 -7 25q-2 10 -2 29q0 27 13 43q19 29 63 32q20 8 31 19l31 22q40 15 65 15q10 0 29 -4t26 -5q50 -10 62 -10h57q127 0 191 -37q120 -59 153 -180q10 -42 10 -74 q0 -75 -43 -153q-114 -198 -319 -342l-49 -33l31 -23q17 -13 56.5 -42t59.5 -46q240 -181 326 -249q5 -3 13 -12.5t11 -12.5l13 -18q18 -15 18 -37q0 -16 -16 -43q-10 -19 -43 -19q-21 0 -33 6l-25 17q-121 60 -194 112l-418 299l-18 -114q-16 -91 -47 -279.5t-48 -286.5 q-3 -28 -9 -40.5t-19 -20.5l-6 -12h-15q-72 0 -96 73q-18 64 -18 121zM365 854q245 127 366 365q8 16 8 43q-2 5 -13.5 11t-25.5 7q-25 3 -70 6t-59 4h-59q-18 0 -29 -9.5t-14 -37.5l-98 -356q0 -21 -6 -33z" />
<glyph unicode="S" horiz-adv-x="964" d="M43 1139q0 110 104 157q188 82 433 166q50 13 79 13q15 0 41.5 -3.5t30.5 -3.5q104 -7 137 -129q6 -15 6 -30q0 -22 -8 -35q-21 -25 -53 -25q-3 0 -10 2t-10 2q-60 13 -111 13q-58 0 -115 -12.5t-120 -41t-97.5 -47t-103.5 -57.5q-7 -4 -16.5 -13t-15 -17t-5.5 -9 q0 -22 49 -41l143 -55q21 -8 75 -30t92.5 -38t72.5 -33q221 -108 274 -311q13 -59 13 -80q0 -127 -111 -209q-217 -173 -502 -223q-12 -4 -39 -4q-68 0 -118.5 43t-63.5 115q0 25 4 37q2 6 2 24l4 25l21 -17q50 -36 111 -36q44 0 114 24q133 44 221.5 90.5t153.5 128.5 q39 53 39 94q-9 38 -55 68q-71 46 -242 123q-4 1 -55 24q-52 24 -105 41q-37 12 -80 31q-137 55 -178 221q-6 20 -6 58z" />
<glyph unicode="T" horiz-adv-x="1150" d="M137 1384q0 28 23 72q21 30 86 39h381q6 4 18 16l21 39q11 23 36 25q20 0 29 -6l57 -43q10 -10 13 -19l227 13h37q52 0 92 -13q44 -11 70 -37t26 -61q0 -34 -24 -58t-62 -30q-139 -21 -256 -31h-32q-71 -9 -84 -18q-12 -10 -45 -111q-23 -80 -69.5 -228.5t-66.5 -213.5 q-61 -193 -108 -350q-25 -82 -37 -136q-2 -9 -11 -33.5t-14.5 -47t-5.5 -41.5q-5 -60 -57 -86q-11 -7 -23 -7q-63 3 -88 43q-22 27 -22 64q0 39 22 98q1 4 3.5 13t2.5 12q68 268 136 491l159 510l-10 -2l-166 -10q-25 -2 -69 -2q-48 0 -66 2q-66 9 -106 84q-17 34 -17 63z " />
<glyph unicode="U" horiz-adv-x="1112" d="M98 580q0 251 74 587q6 23 12.5 71t12.5 71q2 11 16.5 24t26.5 13q60 0 101.5 -45.5t41.5 -102.5q0 -23 -2 -31q-98 -337 -98 -614q0 -138 24 -270q4 -22 12 -46.5t20 -54.5t17 -45q9 -12 19 -12q4 0 14 10q78 75 154 199q60 100 97.5 204.5t76.5 259.5t57 216 q10 32 21.5 94.5t15.5 77.5q39 147 51 209q8 28 19 41.5t30 13.5q14 0 37 -10q115 -39 115 -129q0 -8 -2.5 -26t-3.5 -23q-13 -74 -43 -224.5t-46.5 -240.5t-31 -217.5t-14.5 -235.5q0 -138 14 -227v-13q0 -38 -22.5 -62t-53.5 -24q-34 0 -55 12.5t-41 37.5q-25 36 -33 69 q-3 12 -10 96q-12 -17 -32 -47t-34.5 -48.5t-31.5 -33.5q-4 -4 -28 -26t-31.5 -29t-28.5 -25t-33.5 -27t-30.5 -20.5t-35 -19.5q-22 -12 -53 -12q-72 0 -131 73q-75 82 -106 180.5t-42 227.5v72q-6 40 -6 82z" />
<glyph unicode="V" horiz-adv-x="884" d="M125 1100q0 35 31 57q30 10 49 10q51 0 74 -47q33 -42 51 -156q1 -8 2 -12q49 -316 106 -581q40 99 76.5 245t56.5 252.5t45 261.5q0 4 2.5 13.5t2.5 13.5q34 205 49.5 268.5t36.5 69.5q14 4 36 4q55 0 80 -35q25 -28 25 -92q0 -33 -10 -88q-10 -50 -42 -218t-48 -245 t-46.5 -210.5t-63 -240.5t-71.5 -210q-9 -23 -30 -97q-7 -22 -29 -45.5t-41 -23.5h-16q-62 0 -89 55q-23 53 -42.5 117t-28.5 101.5t-27 115.5l-24 109q-55 261 -84 450q-2 18 -13 43q-2 6 -12 66q0 3 -1 9t-1 9q-4 8 -4 31z" />
<glyph unicode="W" horiz-adv-x="1118" d="M61 344q2 258 27 817l10 172q0 74 52 74q22 0 49 -16q80 -39 80 -136q-4 -61 -17 -246.5t-20.5 -337t-8.5 -288.5q8 21 21 59.5t21.5 62t21.5 59t22.5 58t22 50.5t23 45t22 32.5t23 23t22.5 7.5q5 0 13 -2t12 -2q52 -12 79 -47t35 -83.5t11.5 -99.5t17 -107t41.5 -93 q116 508 274 928l70 145q17 39 55 39q19 0 47 -14l9 -10q33 -16 43 -39q16 -19 16 -54q0 -13 -10 -30q-95 -149 -178 -439l-13 -41q-43 -139 -75 -301q-10 -58 -23 -104q-32 -155 -49 -297q-3 -42 -12 -80v-22q-1 -29 -3 -48t-8 -44t-19.5 -38.5t-33.5 -13.5h-29 q-48 0 -72 26.5t-38 86.5l-6 35q-22 102 -39 153q-52 105 -74 162l-24 62q-7 -10 -7 -15q-39 -77 -65 -147q-12 -32 -25 -69t-28 -81.5t-23 -68.5l-6 -25q-26 -70 -80 -70q-29 0 -72 31q-28 23 -44.5 56.5t-20.5 58t-8 69.5q-9 95 -9 197z" />
<glyph unicode="X" horiz-adv-x="1193" d="M106 172q0 29 23 55l301 467q8 11 8 31q0 25 -12 55q-6 18 -6 19q-56 178 -178 510q-16 33 -45 80q-24 37 -35 61q-12 21 -12 49q0 4 2 11t2 10l2 18q27 43 61 43q28 0 53 -20l-6 -13l12 8q6 -5 25 -18.5t28.5 -21t22 -20.5t19.5 -26q48 -75 90 -168t66.5 -161.5 t58.5 -175.5l354 647q23 30 40 44.5t36 14.5l12 -4q2 0 5 -1t5 -1q92 -20 92 -96q0 -69 -72.5 -211t-226.5 -400l-18 -30q-102 -176 -135 -240q-2 -10 -2 -31v-12q35 -151 104 -296.5t172 -315.5q18 -18 21 -45v-13q0 -46 -25 -71q-15 -15 -43 -15q-29 0 -49 13 q-81 35 -150 164q-4 7 -6 10q-47 90 -133 274q-21 48 -39 82q-10 -17 -71 -117q-121 -188 -135 -211q-30 -49 -82 -49q-30 0 -66 25l-8 6q-48 25 -55 68q-5 8 -5 18z" />
<glyph unicode="Y" horiz-adv-x="847" d="M14 1389v12q3 21 24.5 41t43.5 20l18 -4q40 -17 63 -29t54 -42t47 -70q35 -89 92 -199l15 -28l276 374q20 47 62 47q20 0 39 -14t25.5 -23t25.5 -36l20 -31q35 -27 35 -68q0 -31 -29 -71l-303 -389q-22 -35 -22 -72q9 -93 12 -319t12 -310q0 -6 2.5 -19.5t3.5 -17.5 q7 -28 7 -59q0 -69 -43 -107q-48 -36 -93 -36q-30 0 -50 15t-28.5 43t-11.5 48t-4 49q0 25 -4 35q-12 90 -24.5 303.5t-12.5 269.5v78q0 119 -6 119q0 2 -1 5t-1 5l-227 424q-17 20 -17 56z" />
<glyph unicode="Z" horiz-adv-x="1148" d="M14 2q0 31 31 84q85 134 170.5 273.5t214.5 353.5t168 278q44 71 80 142l-12 16q-15 -9 -78 -40t-94 -52q-113 -73 -218 -164q-42 -39 -77 -39q-39 0 -74 49q-16 22 -21 31l-6 8q-24 44 -24 62q0 28 51 61q176 114 315.5 190t286.5 123q24 6 47 6q55 0 107 -30t67 -74 q6 -18 6 -37q0 -31 -14 -63q-29 -50 -274 -461l-334 -557q-5 -6 -8 -14.5t-8 -25.5t-9 -28q224 61 289 74q113 25 319 59q4 0 12 1t13 1q32 7 57 7q140 0 140 -62q0 -58 -152 -94q-193 -56 -555 -152q-120 -30 -240 -57q-18 -6 -34 -6q-63 0 -113 69q-29 40 -29 68z" />
<glyph unicode="[" horiz-adv-x="651" d="M12 104q0 3 1 10.5t1 10.5l19 96q37 193 47 291q3 34 13.5 137.5t15 155.5t9.5 138t5 159q4 45 12 80q0 37 -4 55v35q0 29 12 45.5t26.5 21.5t39.5 7q172 13 270 36q3 0 19.5 3.5t23.5 3.5q47 0 80 -41q25 -25 25 -50q0 -4 -2 -9l-2 -5q-11 -33 -50 -41 q-125 -28 -239 -45q-25 -3 -34 -13.5t-11 -35.5q-11 -144 -80 -975v-18q0 -9 2 -13q12 -6 22 -6q13 0 42 -1t44 -1q44 0 126 -7.5t135 -23.5q43 -6 43 -30q0 -22 -21 -43q-37 -44 -121 -56l-8 -4q-74 -12 -123 -12q-78 0 -246 31q-41 9 -66.5 41.5t-25.5 72.5z" />
<glyph unicode="\" d="M55 1372l6 10q31 39 86 39q34 0 64 -18.5t49 -50.5l105 -195q12 -22 62 -116t79 -144q41 -71 119 -202t108 -183l176 -295q23 -49 58 -137l4 -10q0 -3 3 -14.5t3 -18.5q0 -18 -10 -35q-12 -18 -33 -18q-10 0 -16 4q-75 18 -105 67q-150 229 -270 437q-188 340 -267 509 l-215 363z" />
<glyph unicode="]" horiz-adv-x="616" d="M-78 25q0 29 31 55q69 49 201 76q24 5 67 16q45 11 98 14q6 0 18.5 2t18.5 2l9 43q18 67 18 117q9 218 12 445q1 28 4 164.5t7 209.5q0 18 -5 23.5t-20 5.5q-55 5 -287 33q-54 7 -76 49q-12 19 -12 49q0 25 6 37q6 16 29.5 25.5t46.5 9.5l117 -12q73 -11 121 -13h30 q47 0 86 8q21 7 33 7q58 0 96 -64q9 -18 9 -43q0 -6 -1 -20.5t-1 -20.5v-12q0 -2 -7 -51q-10 -38 -10 -60q-1 -38 -12 -731q0 -15 1 -32.5t2.5 -39t2.5 -34.5q6 -43 6 -90v-33q0 -58 -8 -115q-3 -30 -31.5 -55t-60.5 -25q-15 0 -35 12q-42 31 -104 31q-54 0 -119 -20 q-57 -14 -78 -17l-25 -12q-24 -12 -45 -12q-72 9 -108 35q-25 21 -25 43z" />
<glyph unicode="^" horiz-adv-x="2557" />
<glyph unicode="_" d="M2 -117q0 21 12 56q3 8 15 16t22 10l84 -2q54 2 305 11.5t385 13.5q12 0 32 1t30 1q45 0 86 -6q19 -2 39 -11t20 -22q0 -25 -14.5 -40.5t-32.5 -21.5q-76 -27 -160 -30l-690 -43h-29q-4 0 -11.5 -2t-12.5 -2q-38 0 -59 19t-21 52z" />
<glyph unicode="`" horiz-adv-x="1124" d="M172 1919q13 19 52 52.5t59 33.5q10 0 26 -12q90 -75 221 -191q31 -26 43.5 -43t12.5 -39q0 -28 -27 -90q-16 8 -83.5 42t-100.5 54q-79 47 -158 113q-45 41 -45 80z" />
<glyph unicode="a" horiz-adv-x="794" d="M25 283q0 91 61 233q22 52 107 178l6 8q77 107 239 121h13q50 0 89 -24t81 -66q35 -44 55 -80l20 -32q17 -27 17 -48q0 -14 -4 -20q-11 -28 -37 -35q-1 0 -6 -1t-7 -1q-11 0 -24 5.5t-20.5 10.5t-20.5 16l-14 11q-11 17 -21 43q-9 28 -12 31q-46 49 -98 49q-39 0 -84 -31 q-185 -145 -185 -411q0 -24 19 -62q6 -4 18 -4q20 0 40.5 12t27.5 23q116 128 133 246q3 32 18 69l6 25q4 15 8 24t15.5 17t28.5 8h16q41 -6 63.5 -32t22.5 -66q0 -10 -10 -68q0 -28 -6 -55v-31q-1 -8 -4 -37t-3 -43q0 -28 5 -45q9 -64 35 -97.5t77 -43.5q57 -14 72 -41 q0 -3 1 -10.5t1 -10.5q0 -12 -6 -24q-9 -23 -42.5 -41.5t-62.5 -18.5q-42 4 -76.5 20.5t-60.5 45.5t-42.5 53t-35.5 60l-6 22l-12 -10l-43 -49q-67 -70 -137 -70q-53 0 -99.5 34t-79.5 95q-36 71 -36 148z" />
<glyph unicode="b" horiz-adv-x="731" d="M12 76q0 25 2 37q14 64 36 195.5t36 195.5q30 149 131 604l41 184q17 86 74 86q18 0 26 -2q48 -16 48 -65q0 -16 -5 -31l-135 -614h62h22q147 0 245.5 -97.5t98.5 -242.5q0 -10 -1 -22t-2.5 -26.5t-2.5 -23.5q-11 -59 -38 -105.5t-67.5 -80t-84 -56.5t-99.5 -43 q-92 -30 -176 -30q-68 0 -129 20q-82 34 -82 117zM190 86q221 22 320 172q31 53 31 98q0 73 -49 125q-45 54 -93 54q-55 0 -98 -62q-22 -33 -38.5 -68.5t-27.5 -79.5t-17 -72.5t-15 -85.5t-13 -81z" />
<glyph unicode="c" horiz-adv-x="737" d="M49 276q0 50 2 70q27 246 215 391q74 56 152 56q66 0 126.5 -42.5t100.5 -117.5l14 -31q7 -18 13 -24q10 -20 10 -37q0 -3 -2 -11.5t-2 -11.5q-12 -29 -37 -37q-2 -1 -5.5 -2.5t-6.5 -2.5t-6 -1q-23 0 -58 29q-34 26 -37 61q-19 70 -84 70q-22 0 -57 -14 q-112 -71 -158 -195q-19 -53 -32 -129l-11 -39l4 -12q0 -14 3 -29q0 -7 6 -55q12 -68 80 -68q22 0 34 4q40 7 125 43q36 14 47 15q12 9 33 16q39 19 53 21q2 4 15 4q38 0 55 -25q12 -12 12 -41q0 -25 -12 -37q-57 -57 -88 -74q-98 -54 -166 -73q-54 -13 -74 -13 q-155 0 -233 179q-31 66 -31 163z" />
<glyph unicode="d" horiz-adv-x="860" d="M2 289q0 97 102 196q157 145 418 215q12 4 25.5 24.5t13.5 25.5q83 408 209 688q12 30 33.5 48.5t44.5 18.5q38 0 74 -53q26 -39 26 -76q0 -13 -6 -22q-69 -127 -113 -272.5t-79 -338.5l-11 -41v-12q0 -13 12.5 -34.5t12.5 -32.5q24 -36 24 -50q0 -1 -1 -5.5t-1 -6.5 q-4 -16 -20.5 -35.5t-32.5 -19.5q-8 -4 -14 -20.5t-6 -22.5q3 -78 13.5 -222t12.5 -180l6 -102q0 -20 -26 -20h-12q-71 15 -94 31t-42 63l-49 -8q-106 -26 -147 -31q-8 0 -22 -2t-21 -2q-155 0 -256 123q-74 89 -74 176zM186 227q0 -16 7 -28q19 -26 47 -31q9 -1 23.5 -2.5 t26.5 -2.5t23 -1q106 0 209 53q3 0 6 3t6 7l3 4v287q-105 -35 -175.5 -78.5t-121.5 -105.5q-28 -30 -50 -80q-4 -10 -4 -25z" />
<glyph unicode="e" horiz-adv-x="761" d="M31 377q0 106 42.5 202t123.5 164q101 89 180 123q62 25 90 25q70 0 125 -84q43 -58 43 -123q0 -63 -45 -117q-39 -45 -74.5 -78.5t-83 -68.5t-104.5 -55.5t-119 -24.5q-5 0 -11.5 -5t-7.5 -9q2 -71 28.5 -120.5t88.5 -49.5q35 0 74 16q51 18 168 88q47 30 74 43l41 25 q20 16 36 16q12 0 15 -10q12 -17 12 -49q0 -59 -68 -123q-134 -137 -276 -160q-3 0 -21.5 -3t-29.5 -3q-92 0 -164.5 56.5t-106.5 156.5q-30 72 -30 168zM248 528q68 15 132 69t83 112q-50 -6 -119 -64.5t-96 -116.5z" />
<glyph unicode="f" horiz-adv-x="847" d="M33 578q0 18 10 38q8 21 33 34.5t47 15.5q52 12 125 12q14 0 19 1.5t8.5 11t3.5 30.5l4 72q3 195 14 352q11 124 38 222t91 183q37 60 86 60q20 0 68 -25q200 -117 237 -354q2 -8 2 -27q0 -59 -55 -78q-24 -6 -31 -6q-46 0 -74 60q-14 32 -14 61v19q0 38 -20 69.5 t-60 73.5l-16 12q-6 -6 -8 -18l-6 -15q-49 -120 -56 -188q-12 -112 -24 -332q0 -18 -2 -56.5t-2 -60.5v-14l213 51q6 4 14 4q18 9 41 9q47 0 63 -50q6 -12 6 -30q0 -26 -18 -49.5t-49 -36.5q-133 -62 -246 -94q-18 -7 -22 -14t-4 -27q-5 -102 -29 -375q-6 -62 -32 -92.5 t-60 -30.5q-3 0 -9.5 2t-9.5 2q-67 22 -67 98q0 33 6 56q5 25 16.5 117t11.5 149q0 55 -12 55q-70 -12 -102 -12q-65 7 -105 47q-24 24 -24 68z" />
<glyph unicode="g" horiz-adv-x="905" d="M61 309q0 125 80 246q55 83 137.5 139.5t172.5 73.5q4 0 27.5 3t37.5 3q62 0 131 -16q1 0 5.5 -1t11.5 -1q73 -14 98 -17q26 -3 55 -43q43 -64 43 -135q0 -7 -6 -37q-105 -313 -117 -714q-6 -128 -27 -220.5t-83 -171.5q-52 -62 -128.5 -98.5t-158.5 -36.5q-41 0 -94 17 q-55 19 -106.5 67t-65.5 94q-4 10 -4 25q0 21 12 37q15 18 35 18q19 0 39 -20q10 -10 12 -10q70 -37 141 -37q89 0 151 59.5t77 161.5q2 15 9.5 63t10.5 70.5t7.5 62t6.5 75t2 71.5q12 76 13 80q-3 -1 -17.5 -8t-21.5 -9l-117 -49q-56 -18 -111 -18q-107 0 -178 59 q-56 43 -73 148q-7 23 -7 69zM211 295q0 -34 18 -55q28 -31 68 -31h12q151 0 252 94q4 3 7 6.5t6 8.5t5 8.5t4.5 10.5t3.5 10.5t3 11.5t2.5 11t2.5 12.5t3 12.5q0 1 4 21t8 28q11 33 11 60q2 18 2 49q0 26 -7 33q-14 18 -92 18q-103 0 -196 -83t-113 -195q-4 -10 -4 -31z " />
<glyph unicode="h" horiz-adv-x="727" d="M8 92l6 39q10 163 35 299q72 371 150 703q20 79 34.5 127.5t44 116.5t66.5 122q43 62 86 62q25 0 62 -29q38 -28 38 -64q0 -33 -32 -77q-81 -107 -133 -320q-91 -404 -113 -530l-16 -86q20 44 65 116q30 54 148 252q31 49 79 49q24 0 45 -12q78 -26 78 -98 q0 -76 -21.5 -232t-21.5 -233q0 -122 37 -209q8 -16 8 -39q0 -14 -6 -29q-20 -30 -55 -30q-5 0 -16 2.5t-15 3.5q-59 29 -86 72q-51 89 -51 211q0 12 1 31.5t1 29.5q0 8 10 145l-59 -110q-74 -150 -80 -164q-18 -31 -88 -172q-26 -44 -46 -57q-18 -11 -40 -11q-3 0 -11.5 2 t-11.5 2q-43 11 -67.5 41.5t-24.5 75.5z" />
<glyph unicode="i" horiz-adv-x="376" d="M57 197q0 96 34 252t38 229q3 82 31 104q10 13 37 13q22 0 45.5 -15.5t33.5 -29.5q33 -33 33 -78q-1 -79 -41.5 -275t-40.5 -291q0 -33 -4 -51q0 -68 -24 -84q-21 -12 -39 -12q-29 0 -48.5 24t-29.5 54q-25 60 -25 160zM258 1241q3 15 12 31q14 24 49 24q43 0 82 -36 q15 -15 22 -23.5t14 -23.5t7 -31q0 -30 -26 -56q-33 -26 -62 -26q-51 0 -77 63q-21 40 -21 78z" />
<glyph unicode="j" horiz-adv-x="561" d="M-360 -545q0 13 4 19q10 30 39 30q34 0 84 -57q75 -84 172 -84q38 0 122 25q88 35 137.5 120t49.5 193q6 43 6 84q0 20 -1 59.5t-1 57.5q0 16 -2 46.5t-2 45.5q0 44 -1 135t-1 137q-4 49 -4 148q0 41 18 55q15 18 47 18h15q96 -18 96 -116v-113q0 -96 2 -141l10 -219 l6 -234q0 -63 -4 -92q-3 -70 -31 -131t-71.5 -104.5t-100 -74.5t-118 -46t-123.5 -15q-137 0 -228 64q-40 30 -80 90t-40 100zM266 829q0 3 2 9.5t2 9.5q7 44 45 67q21 7 25 7q10 0 49 -13q36 -20 47 -35l15 -18q28 -32 28 -55q0 -9 -4 -15q-11 -44 -69 -86q-6 -6 -25 -6 q-18 0 -38.5 9.5t-29.5 23.5l-12 16q-3 6 -13.5 23.5t-16 32t-5.5 30.5z" />
<glyph unicode="k" horiz-adv-x="849" d="M43 0v12q79 706 88 781q35 265 154 614q12 37 28 74q26 61 76 61q15 0 47 -12q62 -29 62 -80q0 -10 -13 -49q-114 -275 -190 -744l106 113q31 31 72 31q50 0 98 -45q27 -24 27 -54q-23 -49 -64.5 -92.5t-101.5 -91.5t-88 -76q-6 -6 -6 -16q0 -19 6 -25q117 -166 363 -247 q27 -8 45 -23q1 -1 4.5 -3.5t5.5 -2.5q37 -25 37 -55l-2 -6q-2 -6 -2 -9q-17 -49 -74 -49h-12l-31 6q-113 15 -178 49q-93 49 -187 113l-16 12q-19 16 -45 31l-4 -27q-1 -28 -7.5 -93t-7.5 -101q-2 -18 -3.5 -28t-7.5 -30.5t-15 -32.5t-26 -22t-40 -10q-39 0 -67 31 q-31 43 -31 96z" />
<glyph unicode="l" horiz-adv-x="454" d="M70 172q0 129 11 268t25 219q47 241 115 435q6 18 6 20q10 33 18 55.5t22.5 51t34.5 43.5t44 16q35 0 76 -34.5t48 -65.5v-13q0 -39 -38 -108l-6 -15q-58 -114 -92 -219q-41 -140 -74 -333q-25 -159 -31 -398q0 -10 3 -31t4 -32q6 -43 6 -78q0 -67 -27 -94 q-22 -25 -65 -25q-19 0 -33 14q-47 55 -47 324z" />
<glyph unicode="m" horiz-adv-x="972" d="M27 184q0 243 127 547l6 12q29 76 76 76q14 0 30 -8q53 -21 53 -68q0 -17 -16 -65l-2 -12q-18 -47 -46 -135t-38 -117l-27 -88l199 331q4 7 6 9l25 28q13 15 17.5 20t14.5 14.5t18 13t17 3.5q40 -6 63 -34.5t23 -71.5v-23l-24 -192q-1 -11 -6.5 -45t-5.5 -57 q117 178 151 307q5 25 24 49.5t44 28.5q17 0 40 -16.5t35 -33.5q28 -51 31 -108q4 -37 4 -111q5 -120 13 -162q6 -40 36 -108l27 -62q23 -20 23 -45q0 -9 -19 -47q-21 -14 -41 -14q-17 0 -37 12q-26 12 -47 29t-35.5 33.5t-26 39.5t-18 41.5t-12.5 46.5t-8.5 46t-6.5 48.5 t-7 47.5l-17 -35q-87 -194 -98 -217l-2 -12q-23 -48 -41 -66q-50 -43 -98 -43q-20 3 -41 30t-23 50q-6 135 -6 275v69l-31 -57q-24 -50 -70 -137t-63 -121q-37 -84 -88 -84q-12 0 -29 10q-27 10 -47 44.5t-22 66.5q0 10 -2 32.5t-2 34.5z" />
<glyph unicode="n" horiz-adv-x="757" d="M25 98q20 173 63 310q35 104 102 256l25 57q32 78 88 78q19 0 41 -11q57 -29 57 -81q0 -22 -14 -66l-108 -246l47 66q67 98 116 186l7 10q9 17 16 26.5t22.5 17.5t36.5 8q105 -7 111 -82q4 -43 4 -127q-4 -14 -4 -43q0 -27 4 -39q3 -187 14 -336q3 -19 13 -37t22 -25 q43 -19 43 -57q0 -28 -22 -43q-40 -37 -93 -37q-18 0 -24 2q-51 21 -98 97q-58 106 -58 254q0 52 6 98v18l-22 -33q-70 -96 -80 -108l-31 -45q-73 -102 -100 -127q-20 -21 -50.5 -38t-54.5 -17q-4 0 -8 2l-4 2q-26 6 -46.5 40t-20.5 70z" />
<glyph unicode="o" horiz-adv-x="694" d="M61 319q0 12 13 62q0 1 1 4t1 4q6 23 18 49t22 42t29.5 45t26.5 40q59 103 150 191q12 0 13 -18t11 -19q12 1 19 21t22 24h12q19 0 25 -6q71 -25 118 -70t68.5 -104.5t29 -112t7.5 -119.5q0 -58 -27 -121.5t-65 -101.5l-37 -37q-30 -30 -63 -49q-45 -23 -72 -29 q-36 -8 -70 -8q-29 0 -90 14q-27 11 -43.5 26t-36.5 42q-37 54 -51 92q-18 41 -22 72q-7 16 -7 39q-2 10 -2 28zM215 221q0 -38 14 -65q3 0 11.5 -1t11.5 -1q64 0 136 61t110 141q14 32 14 82q0 45 -8 84q-6 12 -6 27q-4 23 -14 47.5t-21 24.5q-1 0 -6 -6t-12.5 -12 t-12.5 -7q-16 -10 -31 -25.5t-23.5 -26.5t-24 -34t-21.5 -31q-29 -41 -44 -64t-34.5 -61.5t-30.5 -74.5q-8 -27 -8 -58z" />
<glyph unicode="p" horiz-adv-x="825" d="M0 -625q0 151 23.5 353t56.5 354l100 467q-31 10 -49 37q-25 41 -25 71q0 17 5 27q6 25 39 41l96 39q29 17 33 29q23 36 61 36q22 0 49 -18q48 -25 68 -31q91 -27 157 -62t113 -97q53 -74 53 -154q0 -61 -35 -133q-111 -234 -389 -328q-20 -7 -98 -16h-31l-10 -58 q-21 -158 -24 -194q-35 -384 -37 -418q-5 -42 -13 -57q-3 -6 -8 -15t-22.5 -24t-36.5 -15q-19 4 -37 19.5t-27 34.5q-12 20 -12 73v39zM258 147l12 7q65 24 99 39q163 89 233 239q12 34 12 49q0 29 -34 56q-65 59 -187 65q-14 0 -22 -18q-14 -59 -54.5 -202t-56.5 -222 q0 -2 -1 -7t-1 -6z" />
<glyph unicode="q" horiz-adv-x="825" d="M55 340v35q3 53 19.5 101t47 91t60 75.5t72.5 72.5q70 61 154 61q79 0 141 -45q75 -51 196 -172q13 -13 13 -41q0 -4 -1 -12.5t-1 -11.5q-16 -148 -92 -252q-50 -64 -50 -123q0 -51 33 -105q22 -35 33 -87.5t12.5 -88.5t1.5 -102v-19q-7 -307 -102 -497q-3 -6 -10.5 -23 t-14 -28t-14.5 -17q-4 -3 -19 -16t-23.5 -19t-21.5 -15t-24.5 -13t-22.5 -4q-28 6 -55 36.5t-41 63.5q-45 115 -45 252q0 134 43 313q30 144 70 301q-55 -12 -101 -12q-129 0 -193.5 85t-64.5 216zM203 352q3 -159 82 -159q6 0 16 2.5l14 3.5q101 26 163.5 107.5t62.5 187.5 q0 58 -32.5 92.5t-82.5 34.5q-36 0 -64 -17q-79 -38 -113.5 -102t-45.5 -150zM457 -578q0 -16 10 -16q8 0 18 16q33 65 54.5 164.5t21.5 186.5q0 85 -20 129z" />
<glyph unicode="r" horiz-adv-x="819" d="M111 143v35q13 388 36 602q9 68 52 68q10 0 30 -10q80 -39 80 -136q0 -6 -1 -18t-1 -18l-6 -52q0 -3 -2 -8t-2 -8q-2 -17 -5 -49t-6 -57.5t-7 -47.5l10 17q44 95 69 131q50 71 134 151q42 39 98 39q51 0 98.5 -30t75.5 -80q12 -22 12 -43q0 -5 -1 -20t-1 -25 q-23 -23 -37 -23q-10 0 -30 10q-35 21 -60 21q-52 0 -119 -76q-117 -139 -221 -399q-4 -4 -4 -11q0 -1 -1 -4t-1 -4l-10 -16q-9 -26 -16.5 -41.5t-23.5 -32t-36 -18.5q-4 0 -22 6q-36 11 -59 56.5t-23 90.5z" />
<glyph unicode="s" horiz-adv-x="720" d="M39 178q0 27 13.5 44.5t39.5 17.5q75 -60 156 -60q107 0 225 68q27 17 27 28q0 12 -27 27q-30 20 -111 53l-98 39q-57 22 -96 49q-50 36 -74 76t-24 109q0 71 26.5 108.5t87.5 73.5q104 67 242 88q10 4 29 4q67 0 119 -48t61 -110q0 -15 -8 -33.5t-19 -27.5 q-10 -8 -37 -8q-29 0 -41 12q-31 31 -69 31q-16 0 -66 -12q-18 -7 -119 -54l-18 -8q-6 -2 -16.5 -12.5t-12.5 -11.5q-8 -8 -8 -23q0 -10 12 -14q60 -32 142 -60q120 -35 192 -100q58 -52 86 -141q6 -24 6 -41q0 -67 -67 -125l-12 -13q-126 -96 -310 -96q-5 0 -15.5 2 t-14.5 2q-6 2 -23 2q-105 6 -162 105q-16 26 -16 59z" />
<glyph unicode="t" horiz-adv-x="669" d="M-31 559q4 37 27.5 54.5t71.5 25.5l8 2h16q12 6 33 6l47 17l18 38q23 99 90.5 287.5t90.5 278.5q9 31 29 49t44 18q37 0 71 -39.5t34 -85.5q0 -31 -6 -49q-8 -26 -25 -72t-24 -67q-51 -160 -107 -309l49 6q54 6 58 6h28l5 -2q5 -2 8 -2l18 -2q6 -6 18 -6l15 -13 q18 -18 18 -41q0 -56 -63 -86l-78 -26q-21 -11 -86 -25q-27 -9 -39 -18q-2 -10 -10 -40.5t-9 -45.5q-18 -95 -18 -160q0 -72 31 -72q1 0 5.5 1.5t11 3t9.5 2.5l228 200l49 -53l6 -21q4 -3 4 -34q0 -9 -6 -21l-4 -10q-44 -100 -124 -174.5t-177 -97.5q-51 1 -90.5 18t-65 45 t-42 67t-23.5 81t-7 90q0 64 13 161h-37l-4 -1q-4 -1 -8 -1q-43 0 -62 21l-6 10q-9 9 -12 12.5t-8 10t-7.5 12.5t-3.5 14v25q0 1 -1 5t-1 7z" />
<glyph unicode="u" horiz-adv-x="731" d="M33 297q0 77 16 152q13 80 37 149q3 8 7 26t7 27q27 83 35 129q16 51 74 51q21 0 37 -2q15 -6 24.5 -12.5t18 -21.5t8.5 -37q0 -21 -2 -31q0 -1 -2 -4t-2 -4l-21 -84q-38 -125 -61 -246l-4 -8q-12 -62 -12 -90q0 -40 24 -98q3 -1 9.5 -7t9.5 -6q10 4 18 6q149 67 190 258 q26 101 41 142q0 3 3.5 9t3.5 9l18 84q2 6 2 39q4 10 4 29q1 15 3.5 25.5t9.5 23t23 19.5t40 7q60 -3 84 -30q14 -16 14 -49v-19l-63 -291q-54 -181 -54 -360q0 -27 -22.5 -55.5t-46.5 -36.5q-10 -6 -25 -6q-58 0 -71 79q-2 0 -4.5 4t-2.5 7q-6 -3 -26.5 -18t-40.5 -25 q-50 -29 -94 -29q-59 0 -105 33t-67 88q-35 74 -35 174z" />
<glyph unicode="v" horiz-adv-x="733" d="M45 645q0 22 5.5 40.5t12.5 23.5q2 0 8 2t9 2q11 0 51 -17q44 -23 62.5 -58.5t26.5 -99t13 -81.5q6 -27 31 -205q9 0 15 -4q216 350 344 774q6 18 24 18q16 0 23 -12q12 -16 12 -24q1 -12 4.5 -51t3.5 -60q0 -35 -6 -62q-85 -389 -319 -786q-27 -48 -58 -68 q-24 -12 -49 -12q-31 0 -56 18t-34 50q-46 138 -64 243q-23 123 -59 369z" />
<glyph unicode="w" horiz-adv-x="923" d="M39 242q0 8 2 23.5t2 23.5q8 124 45 383l10 59q9 54 52 68q16 0 31 -11.5t20.5 -19.5t15.5 -25q12 -42 12 -104q0 -61 -21.5 -184t-21.5 -183q57 63 103 177q19 35 31 109t27.5 121.5t47.5 47.5q22 0 38 -5.5t25 -12t14.5 -21.5t7.5 -23.5t4 -28t3 -26.5q8 -27 14 -115 t16.5 -153.5t31.5 -65.5q11 0 29 21q41 97 49 127q41 133 100 362l68 248q4 4 4 10q6 39 39 39q19 0 29.5 -7t17.5 -25q0 -2 1 -5.5t1 -5.5q16 -37 16 -51q0 -3 -2 -9t-2 -9q-153 -646 -174 -729q-18 -72 -74 -156q-37 -55 -84 -55q-38 0 -80 45q-11 13 -22 30.5t-17.5 30 t-17.5 35.5t-16 33l-2 10l-17 37q-13 40 -20 55l-13 -35q-5 -10 -21 -45.5t-26 -54.5l-6 -12q-52 -110 -88 -154q-27 -47 -74 -47q-28 0 -48.5 20t-28.5 52q-31 138 -31 211z" />
<glyph unicode="x" horiz-adv-x="843" d="M68 14q0 36 14 80q5 16 14 31t21 33t18 28l31 47q76 83 76 156q0 54 -33 111q-19 32 -30.5 76t-15 73t-7.5 84q0 41 -6 84q0 2 -1.5 10.5t-1.5 14.5q0 52 43 69q2 4 15 4q60 -9 89 -38t38 -89q6 -55 43 -227l2 -14q0 -3 2 -8.5t2 -8.5l27 31q35 47 147 182l84 105l4 4 q4 5 7 7.5t8 7t10.5 7.5t12 6.5t13.5 5t15 1.5q17 0 47 -15q40 -34 49 -73v-13q0 -26 -19 -55q-9 -13 -28.5 -34.5t-26.5 -30.5l-37 -43q-5 -6 -31 -36.5t-53.5 -64t-56.5 -69.5t-47.5 -62.5t-18.5 -34.5v-16l164 -215q19 -19 19 -43v-31q-20 -33 -54 -33q-14 0 -36 13 q-64 30 -129 82q-12 11 -24.5 24.5t-27 30t-22.5 25.5l-8 10q-78 -93 -154 -240q-20 -43 -84 -43q-21 0 -41 18.5t-20 38.5q0 6 -1 18.5t-1 18.5z" />
<glyph unicode="y" horiz-adv-x="811" d="M27 -780q0 8 1 17.5t2.5 21t2.5 18.5q42 180 133 508q21 77 55 149l39 111q4 10 4 31q0 18 -4 28q-29 103 -131 408q-27 81 -61 141q-23 48 -23 72q0 54 43 76q20 10 41 10q28 0 54.5 -18t39.5 -48q45 -88 68 -172q33 -101 65 -235l9 -35l16 31q86 178 100 203 q53 100 158 270l14 29l49 69q28 35 62 35q37 0 72 -35q20 -20 20 -61q0 -23 -8 -39q-18 -37 -47 -66l-31 -43q-185 -294 -303 -598l-6 -37q0 -2 -2 -12t-2 -18q0 -30 -15 -43q-40 -68 -73 -143t-61.5 -168t-44.5 -152t-44.5 -174t-38.5 -156l-8 -55q-4 -20 -18 -36.5 t-37 -16.5q-33 0 -53.5 21t-26.5 44q-10 45 -10 68z" />
<glyph unicode="z" horiz-adv-x="964" d="M39 49q0 15 4 19v12q16 88 49 125l-4 -8q0 1 3 7t3 7l37 47q4 6 31 33l18 28l264 316l-282 -80q-1 0 -3.5 -0.5t-7.5 -1t-10 -0.5q-23 0 -35 6q-3 1 -6.5 4.5t-7 8.5t-4.5 6q-8 8 -8 14q-4 4 -4 12q-2 6 -2 19q0 61 45 73q188 56 305 86q73 23 186 49q54 -3 86 -43 q19 -19 19 -43q0 -27 -31 -63q-3 -5 -352 -418q-19 -19 -19 -24l-10 -17q247 99 477 99q63 0 138 -7q16 -32 16 -55q0 -88 -109 -88q-58 0 -117.5 -8t-98 -15.5t-104.5 -31t-87.5 -31.5t-98.5 -41t-90 -39l-86 -24q-1 0 -4.5 -1t-9 -2.5t-10.5 -1.5q-13 0 -27 7l-24 10 l-17 14q-12 20 -12 41z" />
<glyph unicode="{" horiz-adv-x="651" d="M-16 639v14q1 14 8 23t13 12t20 6.5t20 5.5q141 34 215 68q66 28 66 68q0 25 -29 75q-31 53 -44.5 75.5t-34 66t-32.5 80.5q-14 61 -14 96q0 156 186 227q8 3 24 7t29.5 8.5t24.5 9.5q32 14 51 14q42 0 91 -49q26 -30 26 -57q-6 -22 -24 -36.5t-39 -19.5 q-29 -12 -84.5 -26t-79.5 -23q-76 -37 -76 -98q0 -38 12 -62q11 -34 68 -123q8 -17 33 -57.5t35 -64.5q24 -53 24 -91q0 -89 -98 -147l-53 -31q77 -82 77 -204q0 -54 -12 -109q-10 -42 -10 -74t18.5 -54t46.5 -22h13q18 3 30 3q44 0 101 -46q-4 -45 -41.5 -73.5t-87.5 -28.5 q-34 0 -82 25q-69 44 -107.5 114t-38.5 148q0 30 11 76l6 36q8 31 8 56q0 78 -100 78q-6 0 -20.5 -2.5t-20.5 -2.5h-13q-47 0 -81.5 30.5t-34.5 78.5z" />
<glyph unicode="|" horiz-adv-x="374" d="M106 -84q8 52 13 190q0 47 4 72l-4 12v1090q9 24 12 47l10 37l43 -23q49 -16 58 -38q24 -47 24 -134q4 -217 4 -653q0 -80 1 -239.5t1 -239.5q0 -18 3 -51t4 -41q0 -18 2 -50.5t2 -48.5q0 -61 -29 -77q-13 -13 -37 -13q-29 0 -63 31q-48 56 -48 115v14z" />
<glyph unicode="}" horiz-adv-x="577" d="M55 1456q0 12 13 62q42 6 49 6q53 0 110 -30t100.5 -75.5t73 -102t31.5 -106.5q0 -13 -2.5 -27t-8 -29.5t-9.5 -25t-12 -27.5t-11 -24q-15 -34 -48 -95t-44 -83q-8 -11 -8 -31q0 -39 51 -39h18q29 0 41 2q45 0 76.5 -20.5t34.5 -60.5q0 -40 -30 -67t-72 -32 q-73 -10 -125 -41q-37 -18 -37 -51q0 -23 18 -47q28 -30 105 -82q119 -69 141 -194q2 -8 2 -27q0 -55 -39 -103q-67 -76 -135.5 -119.5t-153.5 -47.5q-42 0 -80 24q-12 9 -21 24.5t-9 26.5q0 4 18.5 20.5t30.5 20.5q117 36 209 131q30 34 30 60q0 34 -53 61 q-154 71 -205 242q-10 38 -10 59q0 67 62 117q28 21 28 39q0 12 -10 29q-33 49 -33 112q0 78 56 160q16 24 42 71.5t31 55.5q15 25 15 57q0 36 -21 63.5t-61 39.5q-16 8 -41 8q-107 15 -107 96z" />
<glyph unicode="~" horiz-adv-x="997" d="M74 1634q0 22 37 68q7 8 24 29.5t27 31.5q82 95 157 95q57 0 156 -70q34 -31 53 -43q73 -55 125 -55q50 0 129 57l11 6q7 2 21.5 15.5t27.5 13.5q20 0 37 -25q24 -31 24 -59q0 -27 -29 -56q-20 -18 -57.5 -44t-48.5 -35q-9 -1 -29 -4t-30 -3q-109 0 -222 84 q-72 58 -79 62q-3 3 -21.5 11.5t-30.5 8.5q-26 0 -59 -36q-37 -46 -74 -111q-25 -43 -49 -43q-21 0 -45 24q-30 29 -42.5 45.5t-12.5 32.5z" />
<glyph unicode="&#xa1;" horiz-adv-x="370" d="M25 -274q0 24 2 36q20 92 24 220q9 193 43.5 471t73.5 383l12 20q0 2 2.5 5.5t3.5 4.5l11 15l12 -9q67 -45 67 -135q0 -8 -2 -23.5t-2 -23.5v-26q-3 -69 -12 -140q0 -3 -1 -7t-1 -7q-4 -29 -16.5 -216t-14.5 -233q-6 -115 -6 -360q0 -47 -24 -74q-17 -20 -56 -20h-16 q-50 3 -80 45q-20 33 -20 74zM180 1206q4 3 7 5.5t5 4.5l1 3q8 8 28.5 18t24.5 10q45 0 100 -59q23 -27 23 -58q-9 -65 -90 -71q-36 0 -58 28q-41 41 -41 119z" />
<glyph unicode="&#xa2;" horiz-adv-x="546" d="M8 584q0 42 12 86q23 66 75 110.5t122 57.5q32 8 45 22t17 49q13 90 34 199l6 25q2 14 13 28.5t24 20.5q2 4 15 4q19 0 47 -17q43 -40 43 -86q0 -18 -4 -26q-2 -11 -11.5 -57.5t-13.5 -71.5l-14 -72q0 -8 2 -8q47 -18 80 -55q22 -29 22 -60q0 -20 -10 -33 q-18 -24 -45 -24q-30 0 -53 20q-3 6 -19 6q-6 0 -8 -2l-61 -258l14 9q51 22 74 22q25 0 37 -6l24 -6l-6 -29q-5 -34 -20.5 -53.5t-44 -38.5t-42.5 -33q-25 -10 -34 -10q-22 -2 -32.5 -12.5t-10.5 -38.5q0 -37 -6 -74q0 -8 -1.5 -25t-1.5 -24v-12q0 -14 -1 -22.5t-10.5 -22.5 t-28.5 -21q-24 -6 -25 -6q-39 0 -64 43q-18 29 -18 68q1 24 4 48.5t7.5 55.5t6.5 43q0 12 -10 18q-59 44 -94 117.5t-35 151.5zM143 553q0 -65 35 -104l49 223q-37 -20 -60.5 -51t-23.5 -68z" />
<glyph unicode="&#xa3;" d="M57 70q0 20 13 43q12 19 12 55q4 6 4 18q18 139 51 309t57 277t70 303l19 76q25 98 32 139l7 25q0 2 3.5 24t8.5 33q9 19 30 33t42 14q36 -5 69 -47q43 -54 43 -100q0 -3 -1 -8.5t-1 -8.5q-38 -149 -53 -217q-113 -478 -137 -587q-16 -67 -35 -209l-6 -58l92 37 q122 45 175.5 64t151.5 42.5t181 28.5q32 -4 69 -10q22 -2 36 -13.5t14 -31.5q0 -9 -3 -18q-7 -16 -22.5 -29.5t-26.5 -19.5l-12 -5l-31 -18q-73 -30 -84 -33q-50 -12 -109 -33.5t-97.5 -38t-108 -48t-98.5 -44.5l-183 -75q-22 -11 -39 -11q-50 0 -77 47q-1 5 -11 14.5 t-10 10.5q-35 39 -35 70zM215 1548q0 22 8 43q4 8 19 13.5t28 5.5q223 0 334 -4q68 0 139 -9q64 -10 64 -61q-3 -61 -74 -61h-37q-200 -11 -340 -23h-49q-41 4 -66.5 31.5t-25.5 64.5z" />
<glyph unicode="&#xa5;" horiz-adv-x="847" d="M-78 1008q0 63 53 63q19 0 27 -2q71 -12 176 -12l-147 276q-17 20 -17 56v12q3 21 24.5 41t43.5 20l18 -4q40 -17 63 -29t54 -42t47 -70q35 -89 92 -199l15 -28l276 374q20 47 62 47q20 0 39 -14t25.5 -23t25.5 -36l20 -31q35 -27 35 -68q0 -31 -29 -71l-180 -230 l105 -18q29 -7 49 -35.5t20 -60.5q0 -15 -2 -21q-4 -11 -21.5 -20t-31.5 -9l-215 23h-12l-15 -18q-22 -35 -22 -72l6 -80q147 -9 385 -20q37 -18 37 -41q0 -29 -53 -55.5t-107 -26.5h-258q4 -322 14 -406q0 -6 2.5 -19.5t3.5 -17.5q7 -28 7 -59q0 -69 -43 -107 q-48 -36 -93 -36q-30 0 -50 15t-28.5 43t-11.5 48t-4 49q0 25 -4 35q-20 160 -33 455h-96q-73 12 -156 18q-51 0 -59 51v25q0 37 9 66t26 36q1 0 5.5 1t6.5 1q1 0 5.5 -1t6.5 -1q23 -12 46 -19.5t53.5 -11.5t44.5 -5.5t55 -3t49 -1.5v41q0 119 -6 119q0 3 -6 12 q-67 0 -100 -2q-24 0 -74 -2t-74 -2q-49 0 -65 20t-19 83z" />
<glyph unicode="&#xa6;" horiz-adv-x="393" d="M88 98q0 99 12 221l4 39q0 41 -4 68q0 15 -1 41.5t-1 38.5q0 85 25 104q10 13 37 13q22 0 46 -15t36 -30q41 -41 41 -78q0 -7 -2 -41t-2 -58q-19 -268 -19 -407q0 -19 4 -31q2 -29 2 -78q0 -69 -20 -82q-14 -12 -37 -12q-50 0 -84 76q-37 84 -37 231zM88 1065 q0 99 12 221l4 41q0 39 -4 68q0 14 -1 41t-1 39q0 82 25 104q12 12 37 12q22 0 46.5 -16t35.5 -31q41 -36 41 -76q0 -9 -2 -41.5t-2 -56.5q-19 -273 -19 -409q0 -19 4 -31q2 -27 2 -76q0 -71 -20 -84q-18 -12 -37 -12q-29 0 -50.5 24.5t-33.5 53.5q-37 84 -37 229z" />
<glyph unicode="&#xa7;" horiz-adv-x="792" d="M14 1008q0 35 35 63q51 45 135 62q30 6 56 6q25 0 49 -6q41 -8 45 -39q4 -4 4 -17q0 -12 -6 -18q-9 -12 -35 -12l-12 6q-21 6 -45 6q-54 0 -127 -43l-27 -33l92 -37q71 -40 94 -84q17 -31 17 -49q0 -23 -25 -55q-41 -44 -102 -62h-21q-38 0 -68 20.5t-30 41.5q0 8 8 16 q6 2 12 2h31q3 0 9.5 -1t9.5 -1q45 0 92 55l10 15l-16 12q-30 20 -62 31l-8 6l-23 6q-9 6 -18 6q-52 25 -70 78q-4 8 -4 25zM328 756q0 15 12 30q8 9 16 43l2 13q30 104 48 184l14 64q0 2 2 9t2 13l8 18q15 9 25 9q24 0 40 -24.5t21 -57.5l25 -62l10 -18l2 18l18 43l19 45 q10 30 10 37q0 2 1 6t1 7q6 18 29 18q6 0 12 -2q38 -14 51 -53l4 -9l31 -133q4 -15 7.5 -45t4.5 -35q5 -46 9 -61v-14q0 -42 -39 -54q-21 0 -29.5 14.5t-13.5 45.5q-2 11 -8.5 37.5t-11.5 47t-5 21.5l-6 23l-43 -109q0 -1 -2 -5t-2 -7q-1 -1 -6 -7.5t-9.5 -11.5t-12 -9.5 t-15.5 -4.5q-28 0 -43 37l-43 88l-31 -131q0 -5 -1 -14.5t-1 -14.5q-11 -25 -16 -32q-13 -19 -33 -19q-21 0 -37 19t-16 43z" />
<glyph unicode="&#xa8;" horiz-adv-x="837" d="M252 1278v18q0 19 6 27l6 12q14 42 39 49q2 0 5 2.5t5 2.5q19 0 62 -31q17 -14 33 -43l4 -10q18 -27 18 -56q0 -12 -4 -18q-10 -32 -45 -49q-19 -13 -41 -13q-48 0 -74 60q-4 7 -8 21.5t-4 15.5q0 6 -2 12zM528 1217q0 34 15 92q6 12 6 30q3 8 14 13.5t21 5.5q9 -6 18 -6 q38 -11 51 -29q49 -61 49 -100q0 -21 -8 -37q-11 -17 -43 -31l-28 -10q-40 0 -65 19.5t-30 52.5z" />
<glyph unicode="&#xa9;" horiz-adv-x="1021" d="M8 442q0 112 39.5 221t108.5 181q26 28 62 50t62 33t72 27l29 13q20 14 45 18q38 10 68 10q61 0 135 -24q237 -82 323 -275q45 -91 45 -186q0 -180 -178 -301q-178 -131 -315 -164q-19 -4 -52.5 -10.5t-45.5 -9.5q-5 0 -15 -2.5t-16 -2.5q-228 15 -320 201 q-47 96 -47 221zM131 424q0 -62 25 -160q37 -133 159 -139q103 0 203 53q213 98 307 228q49 63 49 137v24q-12 162 -153 246q-72 50 -143 59q3 -15 10 -41.5t10 -42.5h-14q-27 0 -78.5 21.5t-75.5 21.5q-26 0 -47 -8q-99 -36 -150 -104q-102 -135 -102 -295zM205 473 q0 56 41 117q45 63 87.5 96t104.5 33h19q57 -5 111.5 -40.5t60.5 -74.5v-12q0 -30 -8 -33q-10 -10 -29 -10q-3 0 -10 2t-9 2q-54 14 -79 14q-47 0 -80 -31t-56 -98q-1 -5 -3.5 -13.5t-2.5 -12.5q0 -29 35 -29h12q25 3 55.5 9t67 15t56.5 13q7 2 47.5 14.5t62.5 16.5 q15 0 34.5 -7t27.5 -18q2 -2 2 -12q0 -30 -15 -45q-57 -49 -92 -66q-66 -24 -209 -61l-6 12h-22q-56 0 -96 30t-76 87q-31 54 -31 102z" />
<glyph unicode="&#xaa;" horiz-adv-x="817" d="M55 1225q0 87 56 209q24 54 94 157l4 8q72 100 211 105h12q31 0 61 -12.5t47 -26t44 -37.5q27 -34 45 -72l22 -30q13 -26 13 -39q0 -15 -5 -23q-11 -23 -30 -26q-1 0 -6 -2t-7 -2q-9 0 -20.5 5t-19 10t-17.5 12.5t-12 8.5q-7 8 -19 41l-3 9t-4 10t-5 6q-42 45 -86 45 q-36 0 -74 -27q-163 -132 -163 -366q0 -7 16 -55q9 -3 18 -3q17 0 34.5 11t23.5 20q55 61 82.5 112t33.5 105q7 33 19 62l4 24q4 13 7.5 20t13.5 15t24 8h16q36 -6 55 -29.5t19 -58.5q0 -5 -6 -59q0 -1 -6 -49v-27q-6 -38 -6 -72q0 -26 2 -38q9 -57 33 -87.5t69 -39.5 q47 -8 62 -33q0 -3 1 -11.5t1 -11.5q0 -6 -7 -20q-6 -21 -35 -37t-57 -16q-67 7 -110.5 50t-79.5 109l-2 19l-12 -9l-37 -43q-61 -61 -123 -61q-46 0 -88 30t-70 83q-33 71 -33 129z" />
<glyph unicode="&#xab;" horiz-adv-x="942" d="M20 369q0 48 37 69q16 12 56 40.5t62.5 44t56.5 37t63 36.5q14 7 32.5 11.5t33.5 6l40 4t37 3.5q31 0 31 -48q0 -42 -18 -63q-6 -9 -43 -23q-109 -39 -215 -137l362 -203q26 -12 40.5 -38.5t14.5 -59.5v-16q-3 -39 -30 -39q-12 0 -25 8q-22 13 -73.5 40t-80.5 44 q-215 118 -327 190q-25 15 -39.5 40.5t-14.5 52.5zM424 326q0 72 27 116q8 12 17 21t24.5 19.5t20 13t24.5 14.5q201 126 227 141q2 0 5 1t5 1q22 0 33 -18q18 -27 18 -68q0 -31 -11 -57t-32 -35q-33 -19 -186 -100l49 -29q174 -115 217 -149q43 -32 43 -97q0 -25 -6 -43 q-10 -32 -33 -32q-21 0 -35 14q-37 42 -61 55l-289 164q-6 6 -8 6q-16 8 -24.5 13.5t-16.5 18.5t-8 30z" />
<glyph unicode="&#xad;" horiz-adv-x="712" d="M37 657q0 22 8 43q4 8 19 13.5t28 5.5q223 0 334 -4q76 0 139 -8q64 -10 64 -62q-3 -61 -74 -61h-37q-200 -11 -340 -23h-49q-41 4 -66.5 31.5t-25.5 64.5z" />
<glyph unicode="&#xae;" horiz-adv-x="688" d="M49 1255v13q0 152 107 245q105 91 213 91q14 0 41 -6.5t39 -6.5q27 -8 49 -21.5t39.5 -34t28 -35.5t26.5 -42q43 -82 43 -172q0 -45 -8 -86q-39 -168 -197 -229q-44 -17 -92 -17q-75 0 -145 29q-112 59 -136 178q-6 60 -6 64q-2 10 -2 30zM135 1235q0 -1 3 -14.5t3 -20.5 l19 -74q4 -15 16 -27.5t21 -17.5t32 -16q36 -6 50 -6q73 0 129 18q61 25 98 90t37 136q0 41 -13 73q-32 108 -141 123h-18q-83 0 -150 -67q-83 -83 -86 -197zM221 1274q0 12 21 24q16 7 20 18t4 38q-9 9 -21 26.5t-12 20.5q0 9 9.5 17t18.5 12l9 4q43 16 74 16q50 0 88 -35 q37 -27 37 -67q0 -30 -20 -56q-5 -5 -17 -10t-22 -8l-9 -2l43 -29q22 -15 31 -33q12 -22 12 -41q0 -12 -6 -18q-9 -12 -26 -12q-25 0 -41 16q-6 6 -37 22.5t-43 16.5q-6 0 -6 -6q-5 -42 -9 -55q-7 -21 -16 -33q-3 -10 -20 -10q-11 0 -23 6q-12 24 -14 37q-4 10 -4 30 q0 23 4 37q0 34 -13 47q-12 8 -12 27zM334 1309q20 0 37.5 10.5t17.5 26.5q0 1 -1 4t-1 4q-4 6 -29 6h-24v-51z" />
<glyph unicode="&#xb0;" horiz-adv-x="598" d="M61 1778v22q0 27 15.5 57.5t34 52.5t34 45t15.5 38q32 33 52 47t42 14q30 0 86 -24q154 -65 190 -199q11 -42 11 -59q0 -89 -84 -136q-89 -55 -174 -75q-28 -7 -41 -7q-64 0 -111.5 47.5t-62.5 127.5zM193 1759q0 -17 12 -37q17 -17 47 -20q82 4 143 70q16 16 19 34 q0 12 -25 37q-43 43 -82 43h-12q-35 -9 -66 -44t-36 -70v-13z" />
<glyph unicode="&#xb1;" horiz-adv-x="958" d="M27 850v16q0 20 10 37q12 12 33 12q16 0 24 -4h238q19 0 30 11q9 9 9 30q0 31 -1 92t-1 89v129h30q46 0 77.5 -26t39.5 -69q8 -71 8 -163q4 -20 4 -64l50 6l178 8q8 4 30 4q58 0 86 -49q19 -38 19 -43q0 -2 -2 -6.5t-2 -5.5q-9 -20 -49 -29q-154 -34 -283 -49 q-31 -5 -43.5 -15.5t-13.5 -41.5q0 -18 -11 -232l-8 -94q0 -6 2 -10q0 -25 -6 -33q-24 -39 -63 -53q-13 0 -31 14t-19 27q0 1 -2 4t-2 4q-24 74 -24 127q0 84 10 197q0 44 2 67h-186q-70 0 -97 22.5t-36 90.5zM137 -117q0 -37 25.5 -64.5t66.5 -31.5h50q148 13 342 23h36 q69 0 74 61q0 50 -65 61q-68 9 -138 9q-111 4 -335 4q-12 0 -27 -5.5t-19 -13.5q-10 -27 -10 -43z" />
<glyph unicode="&#xb2;" horiz-adv-x="1118" d="M12 805q0 56 45 98q149 140 252 255.5t178 248.5q54 99 54 217q0 55 -6 86q-15 84 -66 84q-9 0 -45 -12q-110 -47 -195 -109q-36 -26 -73 -26q-44 0 -80 39q-21 28 -21 53q0 48 49 76q157 94 254 139q44 20 91 20q96 0 169 -82.5t84 -181.5q7 -54 7 -92q0 -269 -193 -500 l-121 -141q71 3 229 13.5t242 13.5h37q70 0 123 -13q23 -6 42 -20.5t19 -36.5q0 -21 -13.5 -35t-29.5 -18q-85 -26 -202 -43q-27 -4 -101 -13t-107.5 -13.5t-97.5 -15t-106 -20.5t-96 -26t-101 -35q-77 -31 -114 -31h-15q-26 4 -53 29.5t-33 50.5q-6 18 -6 41z" />
<glyph unicode="&#xb3;" horiz-adv-x="921" d="M0 954q0 24 14 56q0 22 47 22q25 0 108 -11t122 -11q29 0 41 4q94 14 239 98q37 23 58.5 64t21.5 84q0 39 -18 69q-27 45 -69 68.5t-89 23.5q-37 0 -80 -18q-35 -17 -112 -25q-5 0 -14.5 -1t-14.5 -1q-61 0 -82 27q-22 29 -22 55q0 47 40 72q24 18 95 33q3 0 9 3t9 3 q2 0 5 2t5 2q101 21 179.5 82t154.5 157l10 13l7 8q32 44 32 84q0 3 -1 9t-1 9q-42 50 -110 50q-5 0 -14.5 -2.5t-14.5 -2.5q-79 -12 -233 -73q-37 -15 -56 -15q-43 0 -61 43q-8 16 -8 39q0 28 17 52.5t44 33.5q17 6 59.5 21.5t65 23.5t58 18.5t65.5 16.5q25 6 72 6 q109 0 186 -63q92 -74 92 -185q0 -94 -68 -165q-33 -43 -159 -183q10 -11 60 -60.5t69 -80.5q47 -77 47 -168q0 -78 -34 -150.5t-95 -117.5q-186 -135 -416 -135q-57 0 -129 10q-37 3 -76 26q-55 27 -55 80z" />
<glyph unicode="&#xb4;" horiz-adv-x="976" d="M457 1640q0 20 9.5 39.5t19 30t30.5 31.5q90 88 205 219q18 20 29 57q8 35 30 35q8 0 25 -10q58 -55 113 -113q18 -24 18 -43q0 -32 -33 -55q-35 -27 -117 -80q-111 -75 -190 -121q-18 -9 -39 -16.5t-49 -16t-39 -12.5q-12 30 -12 55z" />
<glyph unicode="&#xb7;" horiz-adv-x="528" d="M129 776q0 26 8 37t18.5 20.5t25.5 19.5t23 15t28.5 16.5t25.5 14.5q2 4 18 4q28 0 37 -12q24 -22 93 -105q43 -53 43 -108q0 -23 -7 -39q-12 -31 -61 -54.5t-96 -23.5q-75 0 -110.5 34.5t-39.5 113.5q-6 35 -6 67z" />
<glyph unicode="&#xb9;" horiz-adv-x="657" d="M98 1198q0 39 52 39h77q44 3 56 15t12 57q2 137 2 426q-8 -1 -23 -5t-22 -4q-53 3 -74 58q-6 12 -6 31q0 28 14 49q109 119 129 262q5 6 11 8q47 -1 73.5 -26t26.5 -68v-17q-18 -174 -18 -401q0 -8 6 -326q0 -2 2.5 -6.5t3.5 -9.5q106 26 121 31q4 0 12.5 2t11.5 2 q24 0 45 -25q6 -15 6 -22q0 -19 -26 -45q-2 -1 -15 -12.5t-20 -12.5q-15 -5 -81 -30.5t-94.5 -34.5t-80 -20t-94.5 -11q-38 0 -67 20t-38 52q0 4 -1 12.5t-1 11.5z" />
<glyph unicode="&#xba;" horiz-adv-x="684" d="M61 1458q0 19 13 62q0 2 1 5t1 5q6 22 18 47.5t22 41.5t29.5 45t26.5 40q58 101 150 190q12 0 13 -17t11 -19q12 2 19 22t22 25h12q18 0 25 -7q71 -26 118 -71t68.5 -104t29 -111.5t7.5 -118.5q0 -58 -27 -122.5t-65 -102.5l-37 -37q-30 -30 -63 -49q-38 -20 -72 -27 q-45 -10 -70 -10q-34 0 -90 16q-18 7 -33 18t-24 21t-23 29q-36 49 -51 92q-17 33 -22 70q-7 19 -7 41q-2 8 -2 26zM215 1360q0 -41 14 -64q3 0 11.5 -2t11.5 -2q64 0 136 61t110 142q14 34 14 84q0 46 -8 82q-6 15 -6 29q-4 21 -14 45t-21 24q-1 0 -6 -5t-12.5 -11 t-12.5 -8q-16 -9 -31 -24.5t-23.5 -27t-23.5 -34t-22 -31.5q-85 -121 -109 -199q-8 -31 -8 -59z" />
<glyph unicode="&#xbb;" horiz-adv-x="856" d="M45 494v16q6 43 41 43q12 0 20 -4q38 -14 109 -39.5t128.5 -47t107.5 -42.5q28 -9 55 -70q6 -9 6 -18q0 -11 -6 -20t-20.5 -20.5t-18.5 -15.5l-240 -219q-35 -35 -67 -43h-13q-43 0 -53 17q-2 6 -2 18q0 36 19 55q24 28 73 80t68 74l61 64l-194 73q-36 13 -55 39.5 t-19 59.5zM344 641v23q1 20 12 31.5t25 11.5q9 0 31 -11q9 -7 36 -30t44 -33q150 -95 198 -121q15 -10 43 -14q36 0 61 -23.5t25 -56.5q0 -29 -18 -56q-33 -50 -101.5 -143.5t-83.5 -114.5q-5 -10 -12 -12q-9 -2 -38.5 -15.5t-43.5 -13.5q-10 0 -12 5q-18 9 -18 26 q0 10 4.5 21t12 23.5t9.5 17.5q24 44 133 221q-35 23 -125 81.5t-137 90.5q-45 31 -45 92z" />
<glyph unicode="&#xbc;" horiz-adv-x="1972" d="M12 831q0 56 74 56h107q61 5 76.5 21t15.5 77q4 195 4 590q-11 -1 -31.5 -4.5t-30.5 -3.5q-72 3 -104 80q-10 23 -10 43q0 36 24 63q142 161 176 363q0 3 13 16q69 -4 105 -38.5t36 -94.5v-21q-25 -261 -25 -559q0 -224 9 -452q0 -1 1 -3t4 -6.5t5 -9.5q122 27 166 41 q4 1 15.5 3.5t16.5 2.5q41 0 62 -34q10 -20 10 -31q0 -29 -37 -62q-5 -4 -14.5 -13t-18 -15t-16.5 -9q-40 -13 -116 -40.5t-124 -44t-116.5 -30.5t-128.5 -14q-54 0 -93 26.5t-49 70.5q-6 18 -6 32zM338 61q0 30 12 52q75 140 185 323q41 73 106.5 180t73.5 121l10 15 q11 20 70 102q9 15 30.5 46t30.5 46l160 266q58 96 121 185q30 53 94 53q77 0 117 -84q2 -1 6 -14v-23q0 -1 -1 -4t-1 -4q-11 -22 -25 -29q-40 -18 -72.5 -55t-68.5 -94l-10 -17q-4 -10 -25 -43q-149 -232 -457 -725l-96 -153q-47 -73 -70 -123l-49 -80q-23 -45 -59 -45 q-23 0 -45 25q-37 37 -37 79zM1130 659q0 39 21 74q71 75 190.5 179t218 199.5t166.5 193.5q-4 12 -4 30q0 56 56 56q33 0 62.5 -23.5t29.5 -58.5q0 -19 -6 -31q-7 -46 -25 -121q-6 -24 -6 -27q-2 -6 -2 -16l-92 -418q0 -3 -2 -7t-2 -7v-12q3 -10 28 -25q5 0 8 -2t5 -2 q23 -4 39 -12l40 -19q25 -14 62 -61q2 -2 2 -8q0 -11 -12 -13h-156h-12q-2 0 -5 -2t-5 -2q-11 0 -19 -12q-23 -103 -34 -157.5t-22.5 -143.5t-11.5 -162v-43q0 -3 -1 -5.5t-1 -4.5q0 -3 -1.5 -6.5t-4.5 -9t-4 -9.5l-14 -12q-1 0 -6 -1t-13 -1q-16 0 -24 2q-15 0 -35 12 q0 2 -12 19q-25 45 -25 78q4 140 55 432q5 12 5 22q0 5 -3 10l-2 5q-9 15 -26 18q-50 7 -173.5 20t-189.5 23q-37 15 -37 61zM1358 725l233 -41l56 281l-13 6z" />
<glyph unicode="&#xbd;" horiz-adv-x="2322" d="M12 862q0 56 74 56h107q61 5 76.5 21t15.5 77q4 195 4 590q-12 -1 -32.5 -5t-29.5 -4q-72 3 -104 80q-10 23 -10 43q0 37 24 64q142 161 176 362q0 4 13 17q69 -4 105 -38.5t36 -94.5v-21q-25 -261 -25 -559q0 -225 9 -453q0 -1 1 -2.5t3.5 -6t5.5 -9.5q122 27 166 41 q4 1 15.5 3.5t16.5 2.5q41 0 62 -35q10 -20 10 -30q0 -29 -37 -62q-5 -4 -14.5 -13t-18 -15t-16.5 -9q-40 -13 -116 -40.5t-124 -44t-116.5 -30.5t-128.5 -14q-54 0 -93 26t-49 70q-6 18 -6 33zM322 61q0 25 12 52q94 170 184 323q66 113 182 301l9 15q21 32 71 102 q9 15 31 46t31 46l159 266q70 116 119 185q35 53 97 53q76 0 116 -84q1 -1 2.5 -6t3.5 -8v-23q0 -1 -2 -4t-2 -4q-11 -23 -24 -29q-38 -18 -70.5 -55t-71.5 -94l-8 -17q-3 -8 -11.5 -22t-12.5 -21q-68 -106 -145.5 -228t-169.5 -268.5t-144 -228.5l-94 -153 q-38 -59 -72 -123l-49 -80q-20 -45 -57 -45q-23 0 -48 25q-36 36 -36 79zM1212 70q0 55 48 98q101 96 162 158t138.5 158t129.5 188q51 94 51 219q0 55 -6 86q-12 82 -64 82q-11 0 -47 -12q-106 -42 -192 -107q-40 -29 -74 -29q-45 0 -80 41q-23 27 -23 52q0 42 50 77 q180 105 256 138q43 22 88 22q96 0 169.5 -82.5t86.5 -181.5q1 -10 2.5 -29t2.5 -34t1 -29q0 -269 -195 -502l-119 -141q427 26 469 28h37q65 0 123 -12q24 -6 43 -20.5t19 -38.5q0 -21 -14 -35.5t-29 -16.5q-77 -28 -203 -43q-29 -4 -146.5 -19t-167.5 -23.5t-137.5 -30 t-156.5 -49.5q-64 -31 -113 -31h-16q-25 5 -52 29.5t-34 50.5q0 2 -3.5 17t-3.5 22z" />
<glyph unicode="&#xbe;" horiz-adv-x="1869" d="M0 1004q0 24 14 55q0 22 47 22q25 0 108 -11t122 -11q29 0 41 4q94 14 239 98q37 23 58.5 64t21.5 84q0 39 -18 69q-27 45 -69 68.5t-89 23.5q-37 0 -80 -18q-35 -17 -112 -25q-5 0 -14.5 -1t-14.5 -1q-61 0 -82 27q-22 29 -22 55q0 47 40 72q24 18 95 33q3 0 9 3t9 3 q2 0 5 2t5 2q101 21 179 82t155 158l10 12l7 8q32 44 32 84q0 3 -1 9.5t-1 9.5q-41 49 -110 49q-5 0 -14.5 -2t-14.5 -2q-75 -11 -233 -74q-35 -14 -56 -14q-43 0 -61 43q-8 16 -8 38q0 28 17 52.5t44 33.5q17 6 59.5 21.5t65 23.5t58 18.5t65.5 16.5q25 6 72 6 q109 0 186 -63q92 -74 92 -184q0 -95 -68 -166q-33 -43 -159 -183q10 -11 60 -60.5t69 -80.5q47 -77 47 -168q0 -78 -34 -150.5t-95 -117.5q-186 -135 -416 -135q-57 0 -129 10q-35 3 -76 27q-55 27 -55 80zM215 61q0 30 12 52q75 140 185 323q41 73 106.5 180t73.5 121 l10 15q11 20 70 102q9 15 30.5 46t30.5 46l160 266q58 96 121 185q30 53 94 53q77 0 117 -84q2 -1 6 -14v-23q0 -1 -1 -4t-1 -4q-11 -22 -25 -29q-40 -18 -72.5 -55t-68.5 -94l-10 -17q-4 -10 -25 -43q-149 -232 -457 -725l-96 -153q-43 -67 -69 -123l-50 -80 q-23 -45 -59 -45q-23 0 -45 25q-37 37 -37 79zM1004 659q0 37 22 74q71 75 190 179t217 199.5t166 193.5q-2 12 -2 30q0 56 56 56q32 0 62 -24t30 -58q0 -7 -6 -31q-3 -24 -13 -66.5t-12 -54.5q-6 -12 -6 -27q-4 -6 -4 -16l-92 -418q0 -3 -1 -7t-1 -7v-12q1 -5 5 -9.5 t13 -10.5l8 -5q4 0 7 -1t4 -2t2 -1q25 -4 41 -12l39 -19q24 -13 61 -61q4 -2 4 -8q0 -10 -12 -13h-158h-12q-1 0 -4 -2t-4 -2q-15 0 -19 -12q-67 -287 -67 -463v-43q0 -3 -2.5 -5.5t-2.5 -4.5q0 -3 -3.5 -11.5t-4.5 -13.5l-16 -12h-1q-1 0 -2 -0.5t-3 -1t-5.5 -0.5h-7.5 q-14 0 -24 2q-17 0 -33 12q0 2 -1 3.5t-4.5 5.5t-6.5 10q-25 39 -25 78q0 34 3.5 74.5t6 66.5t10.5 78t10.5 66.5t13.5 78t12 68.5q2 10 2 22q0 5 -1 10l-1 5q-9 15 -29 18q-51 7 -174 20t-189 23q-36 16 -36 61zM1231 725l233 -41l56 281l-13 6z" />
<glyph unicode="&#xbf;" horiz-adv-x="890" d="M-18 -59q0 85 45 170q71 150 206 303l203 237q37 40 37 68q0 24 -22 67l4 9q20 36 57 36q26 0 59 -26q68 -56 68 -135q0 -64 -41 -111l-180 -203q-114 -118 -170 -200q-10 -14 -20.5 -30.5t-17 -28.5t-17 -34.5t-14 -30.5t-15.5 -36t-14 -33l-19 -43q-1 -4 -3.5 -12.5 t-2.5 -11.5q0 -4 2 -8t2 -5q13 -26 43 -30q72 -29 143 -29q68 0 160 29q55 16 139 61q19 8 50 8q40 0 76 -25t40 -67q0 -11 -7 -25t-17 -20l-19 -10q-79 -35 -125.5 -53.5t-125 -38t-146.5 -19.5h-39q-216 13 -293 164q-26 51 -26 113zM473 1081q0 69 86 80q20 0 51 -31 q49 -57 49 -114q-1 -20 -21 -34.5t-46 -16.5q-47 0 -86 39q-33 41 -33 77z" />
<glyph unicode="&#xc0;" horiz-adv-x="942" d="M8 111q0 12 17 43l118 184l7 8q14 30 18 74q2 23 3.5 32.5t6.5 22.5t15.5 20t27.5 11l8 10l74 186q10 28 25.5 81.5t21.5 70.5l125 467q13 68 60 68q35 0 75 -29t47 -64q27 -126 45 -276q13 -110 23 -252l8 -111v-12l12 -4q5 0 14.5 -1t14.5 -1q5 -1 19.5 -2.5t21.5 -2.5 t19 -3.5t18.5 -6t13.5 -8.5t10 -12.5t3 -17.5q-2 -20 -27.5 -51.5t-50.5 -52.5l-25 -21l90 -283q2 -14 15 -35q0 -3 2.5 -7.5t3.5 -6.5l4 -10q14 -35 14 -51q0 -20 -20 -37t-37 -17q-33 0 -72 54q-41 56 -61 118q-11 25 -29.5 78.5t-21.5 61.5q-2 7 -11 30t-12 37l-6 13 l-88 -25q-132 -35 -176 -53q-15 -7 -31 -21.5t-24.5 -26t-24.5 -34.5l-107 -183q-35 -55 -65 -55q-9 0 -13 4q-7 3 -14 8t-12.5 9.5t-13.5 12.5l-12 12t-12.5 14.5t-11 13.5t-12 15.5t-10.5 13.5zM172 1919q13 19 52 52.5t59 33.5q10 0 26 -12q90 -75 221 -191 q31 -26 43.5 -43t12.5 -39q0 -28 -27 -90q-16 8 -83.5 42t-100.5 54q-79 47 -158 113q-45 41 -45 80zM412 510l180 51l-6 68q-18 175 -25 215q0 2 -1 13t-2.5 21t-4.5 21t-9 18t-14 7q-9 -3 -38.5 -106.5t-54.5 -205.5z" />
<glyph unicode="&#xc1;" horiz-adv-x="970" d="M8 111q0 12 17 43l118 184l7 8q14 30 18 74q2 23 3.5 32.5t6.5 22.5t15.5 20t27.5 11l8 10l74 186q10 28 25.5 81.5t21.5 70.5l125 467q13 68 60 68q35 0 75 -29t47 -64q27 -126 45 -276q13 -110 23 -252l8 -111v-12l12 -4q5 0 14.5 -1t14.5 -1q5 -1 19.5 -2.5t21.5 -2.5 t19 -3.5t18.5 -6t13.5 -8.5t10 -12.5t3 -17.5q-2 -20 -27.5 -51.5t-50.5 -52.5l-25 -21l90 -283q2 -14 15 -35q0 -3 2.5 -7.5t3.5 -6.5l4 -10q14 -35 14 -51q0 -20 -20 -37t-37 -17q-33 0 -72 54q-41 56 -61 118q-11 25 -29.5 78.5t-21.5 61.5q-2 7 -11 30t-12 37l-6 13 l-88 -25q-132 -35 -176 -53q-15 -7 -31 -21.5t-24.5 -26t-24.5 -34.5l-107 -183q-35 -55 -65 -55q-9 0 -13 4q-7 3 -14 8t-12.5 9.5t-13.5 12.5l-12 12t-12.5 14.5t-11 13.5t-12 15.5t-10.5 13.5zM412 510l180 51l-6 68q-18 175 -25 215q0 2 -1 13t-2.5 21t-4.5 21t-9 18 t-14 7q-9 -3 -38.5 -106.5t-54.5 -205.5zM457 1640q0 20 9.5 39.5t19 30t30.5 31.5q90 88 205 219q18 20 29 57q8 35 30 35q8 0 25 -10q58 -55 113 -113q18 -24 18 -43q0 -32 -33 -55q-35 -27 -117 -80q-111 -75 -190 -121q-18 -9 -39 -16.5t-49 -16t-39 -12.5 q-12 30 -12 55z" />
<glyph unicode="&#xc2;" horiz-adv-x="1013" d="M8 111q0 12 17 43l118 184l7 8q14 30 18 74q2 23 3.5 32.5t6.5 22.5t15.5 20t27.5 11l8 10l74 186q10 28 25.5 81.5t21.5 70.5l125 467q13 68 60 68q35 0 75 -29t47 -64q27 -126 45 -276q13 -110 23 -252l8 -111v-12l12 -4q5 0 14.5 -1t14.5 -1q5 -1 19.5 -2.5t21.5 -2.5 t19 -3.5t18.5 -6t13.5 -8.5t10 -12.5t3 -17.5q-2 -20 -27.5 -51.5t-50.5 -52.5l-25 -21l90 -283q2 -14 15 -35q0 -3 2.5 -7.5t3.5 -6.5l4 -10q14 -35 14 -51q0 -20 -20 -37t-37 -17q-33 0 -72 54q-41 56 -61 118q-11 25 -29.5 78.5t-21.5 61.5q-2 7 -11 30t-12 37l-6 13 l-88 -25q-132 -35 -176 -53q-15 -7 -31 -21.5t-24.5 -26t-24.5 -34.5l-107 -183q-35 -55 -65 -55q-9 0 -13 4q-7 3 -14 8t-12.5 9.5t-13.5 12.5l-12 12t-12.5 14.5t-11 13.5t-12 15.5t-10.5 13.5zM160 1505q0 4 6 13l51 63q19 23 60 60t57 55q13 14 24.5 29.5t28 41 t21.5 33.5q2 3 16 25q12 18 12 37q0 32 13 45q16 16 49 16h12q83 -6 119 -55q22 -29 68 -82t55 -64l6 -8l67 -74q8 -4 31 -28q29 -29 29 -45v-13q0 -47 -41 -61q-12 -6 -27 -6q-20 0 -55 20l-10 11q-65 39 -113 116q-29 43 -59 76q-13 10 -21 23l-29 -37l-98 -115 q-44 -49 -70 -70q-56 -47 -96 -47q-30 0 -68 11t-38 30zM412 510l180 51l-6 68q-18 175 -25 215q0 2 -1 13t-2.5 21t-4.5 21t-9 18t-14 7q-9 -3 -38.5 -106.5t-54.5 -205.5z" />
<glyph unicode="&#xc3;" horiz-adv-x="964" d="M8 111q0 12 17 43l118 184l7 8q14 30 18 74q2 23 3.5 32.5t6.5 22.5t15.5 20t27.5 11l8 10l74 186q10 28 25.5 81.5t21.5 70.5l125 467q13 68 60 68q35 0 75 -29t47 -64q27 -126 45 -276q13 -110 23 -252l8 -111v-12l12 -4q5 0 14.5 -1t14.5 -1q5 -1 19.5 -2.5t21.5 -2.5 t19 -3.5t18.5 -6t13.5 -8.5t10 -12.5t3 -17.5q-2 -20 -27.5 -51.5t-50.5 -52.5l-25 -21l90 -283q2 -14 15 -35q0 -3 2.5 -7.5t3.5 -6.5l4 -10q14 -35 14 -51q0 -20 -20 -37t-37 -17q-33 0 -72 54q-41 56 -61 118q-11 25 -29.5 78.5t-21.5 61.5q-2 7 -11 30t-12 37l-6 13 l-88 -25q-132 -35 -176 -53q-15 -7 -31 -21.5t-24.5 -26t-24.5 -34.5l-107 -183q-35 -55 -65 -55q-9 0 -13 4q-7 3 -14 8t-12.5 9.5t-13.5 12.5l-12 12t-12.5 14.5t-11 13.5t-12 15.5t-10.5 13.5zM141 1618q0 22 37 68q36 46 51 61q83 96 158 96q61 0 156 -71 q6 -5 24.5 -20.5t28.5 -22.5q74 -56 125 -56q29 0 57.5 14.5t71.5 45.5l10 6q8 1 22.5 13.5t26.5 12.5q21 0 37 -24q25 -32 25 -58t-29 -55q-17 -16 -36 -30.5t-41 -29.5t-29 -20q-34 -6 -60 -6q-111 0 -221 82q-41 38 -80 62q-2 4 -20.5 13t-30.5 9q-25 0 -59 -37 q-39 -50 -74 -110q-25 -43 -49 -43q-21 0 -45 24q-56 50 -56 76zM412 510l180 51l-6 68q-18 175 -25 215q0 2 -1 13t-2.5 21t-4.5 21t-9 18t-14 7q-9 -3 -38.5 -106.5t-54.5 -205.5z" />
<glyph unicode="&#xc4;" horiz-adv-x="1021" d="M8 111q0 12 17 43l118 184l7 8q14 30 18 74q2 23 3.5 32.5t6.5 22.5t15.5 20t27.5 11l8 10l74 186q10 28 25.5 81.5t21.5 70.5l125 467q13 68 60 68q35 0 75 -29t47 -64q27 -126 45 -276q13 -110 23 -252l8 -111v-12l12 -4q5 0 14.5 -1t14.5 -1q5 -1 19.5 -2.5t21.5 -2.5 t19 -3.5t18.5 -6t13.5 -8.5t10 -12.5t3 -17.5q-2 -20 -27.5 -51.5t-50.5 -52.5l-25 -21l90 -283q2 -14 15 -35q0 -3 2.5 -7.5t3.5 -6.5l4 -10q14 -35 14 -51q0 -20 -20 -37t-37 -17q-33 0 -72 54q-41 56 -61 118q-11 25 -29.5 78.5t-21.5 61.5q-2 7 -11 30t-12 37l-6 13 l-88 -25q-132 -35 -176 -53q-15 -7 -31 -21.5t-24.5 -26t-24.5 -34.5l-107 -183q-35 -55 -65 -55q-9 0 -13 4q-7 3 -14 8t-12.5 9.5t-13.5 12.5l-12 12t-12.5 14.5t-11 13.5t-12 15.5t-10.5 13.5zM350 1610v18q0 19 6 27l6 12q14 42 39 49q2 0 5.5 2t5.5 2q19 0 61 -30 q17 -14 33 -43l4 -11q18 -27 18 -55q0 -12 -4 -18q-10 -33 -45 -50q-18 -12 -41 -12q-47 0 -73 60q-3 6 -13 36q0 7 -2 13zM412 510l180 51l-6 68q-18 175 -25 215q0 2 -1 13t-2.5 21t-4.5 21t-9 18t-14 7q-9 -3 -38.5 -106.5t-54.5 -205.5zM627 1548q0 38 14 92q6 12 6 31 q3 8 14 13.5t21 5.5q11 -7 18 -7q40 -12 52 -28q49 -61 49 -101q0 -20 -8 -36q-11 -17 -43 -31l-29 -10q-41 0 -65 19t-29 52z" />
<glyph unicode="&#xc5;" horiz-adv-x="960" d="M8 111q0 12 17 43l118 184l7 8q14 30 18 74q2 23 3.5 32.5t6.5 22.5t15.5 20t27.5 11l8 10l74 186q10 28 25.5 81.5t21.5 70.5l125 467q13 68 60 68q35 0 75 -29t47 -64q27 -126 45 -276q13 -110 23 -252l8 -111v-12l12 -4q5 0 14.5 -1t14.5 -1q5 -1 19.5 -2.5t21.5 -2.5 t19 -3.5t18.5 -6t13.5 -8.5t10 -12.5t3 -17.5q-2 -20 -27.5 -51.5t-50.5 -52.5l-25 -21l90 -283q2 -14 15 -35q0 -3 2.5 -7.5t3.5 -6.5l4 -10q14 -35 14 -51q0 -20 -20 -37t-37 -17q-33 0 -72 54q-41 56 -61 118q-11 25 -29.5 78.5t-21.5 61.5q-2 7 -11 30t-12 37l-6 13 l-88 -25q-132 -35 -176 -53q-15 -7 -31 -21.5t-24.5 -26t-24.5 -34.5l-107 -183q-35 -55 -65 -55q-9 0 -13 4q-7 3 -14 8t-12.5 9.5t-13.5 12.5l-12 12t-12.5 14.5t-11 13.5t-12 15.5t-10.5 13.5zM365 1708v21q0 34 24.5 72.5t49 70.5t24.5 51q26 24 37.5 34.5t27.5 19 t31 8.5q20 0 86 -25q154 -66 191 -201q8 -27 8 -57q0 -89 -82 -135q-97 -60 -176 -78q-3 0 -17.5 -3t-21.5 -3q-65 0 -112 47t-64 129zM412 510l180 51l-6 68q-18 175 -25 215q0 2 -1 13t-2.5 21t-4.5 21t-9 18t-14 7q-9 -3 -38.5 -106.5t-54.5 -205.5zM498 1690 q0 -21 12 -37q17 -17 45 -23q84 9 145 72q12 12 19 33q0 12 -25 37q-43 43 -84 43h-12q-34 -9 -64.5 -44t-35.5 -69v-12z" />
<glyph unicode="&#xc6;" horiz-adv-x="2088" d="M8 111q0 12 17 43l118 184l7 8q14 30 18 74q2 23 3.5 32.5t6.5 22.5t15.5 20t27.5 11l8 10l74 186q10 28 25.5 81.5t21.5 70.5l125 467q13 68 60 68q35 0 75 -29t47 -64q27 -126 45 -276q13 -110 23 -252l8 -111v-12l12 -4q5 0 14.5 -1t14.5 -1q5 -1 19.5 -2.5t21.5 -2.5 t19 -3.5t18.5 -6t13.5 -8.5t10 -12.5t3 -17.5q-2 -20 -27.5 -51.5t-50.5 -52.5l-25 -21l90 -283q2 -14 15 -35q0 -3 2.5 -7.5t3.5 -6.5l4 -10q14 -35 14 -51q0 -20 -20 -37t-37 -17q-33 0 -72 54q-41 56 -61 118q-11 25 -29.5 78.5t-21.5 61.5q-2 7 -11 30t-12 37l-6 13 l-88 -25q-132 -35 -176 -53q-15 -7 -31 -21.5t-24.5 -26t-24.5 -34.5l-107 -183q-35 -55 -65 -55q-9 0 -13 4q-7 3 -14 8t-12.5 9.5t-13.5 12.5l-12 12t-12.5 14.5t-11 13.5t-12 15.5t-10.5 13.5zM412 510l180 51l-6 68q-18 175 -25 215q0 2 -1 13t-2.5 21t-4.5 21t-9 18 t-14 7q-9 -3 -38.5 -106.5t-54.5 -205.5zM801 156q0 133 61 239q51 85 99 228q16 43 108 307q15 54 43 129q8 24 8 43q0 23 -24 47q-19 16 -19 61q0 34 10 86q6 50 74 50h21q74 0 147 6q22 1 62.5 2.5t73.5 2.5t61 1h47q177 -6 399 -31q28 -4 57 -27.5t29 -56.5 q-8 -27 -18 -37q-25 -20 -111 -20h-59q-182 -12 -522 -25q-32 0 -46.5 -13t-23.5 -48q-6 -29 -16 -64t-17 -58.5t-20.5 -65t-18.5 -58.5l-26 -80h303q25 2 71 2q21 0 53.5 -1t45.5 -1q27 -3 54.5 -21t33.5 -40q4 -10 4 -29q0 -14 -10 -31q-18 -31 -68 -37l-211 -26 q-95 -12 -153 -23l-158 -20q-30 -5 -47.5 -20.5t-26.5 -47.5l-86 -282l139 12q4 0 11 1t10 1q211 23 325 25h37q43 4 142 4q59 0 104.5 -3.5t93.5 -12.5t78 -29.5t37 -51.5v-14q0 -23 -12 -37q-31 -43 -156 -43q-233 0 -545 -24q-54 -4 -180 -41q-21 -2 -59 -15 q-12 -4 -37 -4q-60 0 -112 38.5t-56 94.5q0 10 -2 29.5t-2 28.5z" />
<glyph unicode="&#xc8;" horiz-adv-x="1351" d="M92 156q0 136 62 239q39 65 98 228q52 143 106 307q7 25 23 71.5t20 57.5q11 33 11 43q0 22 -25 47q-18 13 -18 61q0 45 8 86q6 50 74 50h22q75 0 148 6q189 6 196 6h45q179 -6 400 -31q28 -4 57 -27.5t29 -56.5q-3 -21 -19 -37q-25 -20 -110 -20h-58q-187 -12 -522 -25 q-32 0 -47.5 -13.5t-24.5 -47.5q-17 -80 -69 -246l-29 -80h305q25 2 70 2q22 0 54 -1t44 -1q28 -3 55.5 -21t34.5 -40q2 -10 2 -29q0 -18 -8 -31q-18 -31 -68 -37l-213 -26q-89 -11 -153 -23l-156 -20q-31 -5 -48 -20.5t-26 -47.5l-86 -282l138 12q6 0 13 1t9 1 q212 23 326 25h37q43 4 141 4q46 0 82.5 -1.5t78.5 -7.5t71.5 -16.5t51.5 -28.5t29 -43v-14q0 -19 -12 -37q-34 -43 -158 -43q-233 0 -542 -24q-57 -4 -183 -41q-18 -2 -57 -15q-12 -4 -37 -4q-61 0 -113.5 38.5t-56.5 94.5q0 10 -1 29.5t-1 28.5zM487 1782q13 19 52 52.5 t59 33.5q7 0 29 -13q42 -35 119.5 -102t101.5 -88q55 -46 55 -84q0 -25 -29 -88q-23 12 -87 43.5t-97 50.5q-95 61 -155 115q-48 38 -48 80z" />
<glyph unicode="&#xc9;" horiz-adv-x="1378" d="M92 156q0 136 62 239q39 65 98 228q52 143 106 307q7 25 23 71.5t20 57.5q11 33 11 43q0 22 -25 47q-18 13 -18 61q0 45 8 86q6 50 74 50h22q75 0 148 6q189 6 196 6h45q179 -6 400 -31q28 -4 57 -27.5t29 -56.5q-3 -21 -19 -37q-25 -20 -110 -20h-58q-187 -12 -522 -25 q-32 0 -47.5 -13.5t-24.5 -47.5q-17 -80 -69 -246l-29 -80h305q25 2 70 2q22 0 54 -1t44 -1q28 -3 55.5 -21t34.5 -40q2 -10 2 -29q0 -18 -8 -31q-18 -31 -68 -37l-213 -26q-89 -11 -153 -23l-156 -20q-31 -5 -48 -20.5t-26 -47.5l-86 -282l138 12q6 0 13 1t9 1 q212 23 326 25h37q43 4 141 4q46 0 82.5 -1.5t78.5 -7.5t71.5 -16.5t51.5 -28.5t29 -43v-14q0 -19 -12 -37q-34 -43 -158 -43q-233 0 -542 -24q-57 -4 -183 -41q-18 -2 -57 -15q-12 -4 -37 -4q-61 0 -113.5 38.5t-56.5 94.5q0 10 -1 29.5t-1 28.5zM713 1511q0 20 9 39 t18.5 30.5t29.5 31.5q48 45 207 219q16 21 27 57q8 35 30 35q12 0 25 -10q54 -49 115 -113q18 -24 18 -43q0 -34 -35 -55q-50 -39 -117 -80q-130 -87 -190 -121q-17 -9 -38.5 -16.5t-47.5 -15.5t-39 -13q-12 24 -12 55z" />
<glyph unicode="&#xca;" horiz-adv-x="1388" d="M92 156q0 136 62 239q39 65 98 228q52 143 106 307q7 25 23 71.5t20 57.5q11 33 11 43q0 22 -25 47q-18 13 -18 61q0 45 8 86q6 50 74 50h22q75 0 148 6q189 6 196 6h45q179 -6 400 -31q28 -4 57 -27.5t29 -56.5q-3 -21 -19 -37q-25 -20 -110 -20h-58q-187 -12 -522 -25 q-32 0 -47.5 -13.5t-24.5 -47.5q-17 -80 -69 -246l-29 -80h305q25 2 70 2q22 0 54 -1t44 -1q28 -3 55.5 -21t34.5 -40q2 -10 2 -29q0 -18 -8 -31q-18 -31 -68 -37l-213 -26q-89 -11 -153 -23l-156 -20q-31 -5 -48 -20.5t-26 -47.5l-86 -282l138 12q6 0 13 1t9 1 q212 23 326 25h37q43 4 141 4q46 0 82.5 -1.5t78.5 -7.5t71.5 -16.5t51.5 -28.5t29 -43v-14q0 -19 -12 -37q-34 -43 -158 -43q-233 0 -542 -24q-57 -4 -183 -41q-18 -2 -57 -15q-12 -4 -37 -4q-61 0 -113.5 38.5t-56.5 94.5q0 10 -1 29.5t-1 28.5zM494 1532q0 2 2.5 5.5 t3.5 6.5l53 66q19 24 61 61t56 51q12 14 23.5 30.5t27 40.5t22.5 34q3 3 7.5 12t7.5 12q12 14 12 37q0 35 12 47q15 15 49 15h13q43 -1 71 -14.5t50 -41.5q40 -53 122 -143l7 -10l67 -74q16 -12 31 -27q27 -27 27 -47v-12q0 -45 -39 -61q-3 -1 -13 -4t-16 -3q-9 0 -17.5 2.5 t-12.5 4.5t-14 8.5t-11 7.5l-9 8q-58 34 -114 117q-15 25 -58 78q-13 8 -22 20l-27 -37l-98 -112q-30 -38 -72 -72q-54 -45 -94 -45q-30 0 -69 10.5t-39 28.5z" />
<glyph unicode="&#xcb;" horiz-adv-x="1394" d="M92 156q0 136 62 239q39 65 98 228q52 143 106 307q7 25 23 71.5t20 57.5q11 33 11 43q0 22 -25 47q-18 13 -18 61q0 45 8 86q6 50 74 50h22q75 0 148 6q189 6 196 6h45q179 -6 400 -31q28 -4 57 -27.5t29 -56.5q-3 -21 -19 -37q-25 -20 -110 -20h-58q-187 -12 -522 -25 q-32 0 -47.5 -13.5t-24.5 -47.5q-17 -80 -69 -246l-29 -80h305q25 2 70 2q22 0 54 -1t44 -1q28 -3 55.5 -21t34.5 -40q2 -10 2 -29q0 -18 -8 -31q-18 -31 -68 -37l-213 -26q-89 -11 -153 -23l-156 -20q-31 -5 -48 -20.5t-26 -47.5l-86 -282l138 12q6 0 13 1t9 1 q212 23 326 25h37q43 4 141 4q46 0 82.5 -1.5t78.5 -7.5t71.5 -16.5t51.5 -28.5t29 -43v-14q0 -19 -12 -37q-34 -43 -158 -43q-233 0 -542 -24q-57 -4 -183 -41q-18 -2 -57 -15q-12 -4 -37 -4q-61 0 -113.5 38.5t-56.5 94.5q0 10 -1 29.5t-1 28.5zM670 1634v19q0 18 6 26 l6 13q14 42 39 49q2 0 5 2t5 2q19 0 62 -31q15 -12 32 -43l4 -10q19 -29 19 -55q0 -13 -4 -19q-10 -32 -45 -49q-18 -12 -41 -12q-48 0 -74 59q-4 7 -8 21.5t-4 15.5q0 6 -2 12zM946 1573q0 34 15 92q6 12 6 31q6 18 34 18q9 -6 19 -6q38 -11 51 -29q49 -61 49 -100 q0 -21 -8 -37q-11 -17 -43 -31l-29 -10q-40 0 -64.5 19.5t-29.5 52.5z" />
<glyph unicode="&#xcc;" horiz-adv-x="720" d="M33 76q0 6 3 16t3 12q12 28 27 39t38 11q16 0 50 -8.5t49 -8.5q13 0 30 10q11 9 17 35.5t7.5 49.5t2 59t0.5 41q32 385 117 897q-52 -23 -92 -23q-50 0 -83.5 25.5t-33.5 77.5v18q3 28 31.5 51t73.5 38t86.5 25t90.5 19.5t66 14.5l12 2l-49 -13q8 5 37 11q6 2 21 2 q50 0 103.5 -34.5t53.5 -78.5q0 -17 -4 -23q-6 -20 -23 -29.5t-34.5 -10.5t-39.5 -4t-34 -11q-27 -18 -68.5 -358.5t-54.5 -538.5q-1 -4 -7.5 -41t-11.5 -72.5t-5 -60.5q0 -41 12 -53q8 -12 37 -12h31q42 0 61 -31q14 -25 14 -43q0 -33 -36.5 -59t-92 -39.5t-110 -20 t-101.5 -6.5q-35 0 -47 2q-51 9 -99 43t-48 80zM172 1919q13 19 52 52.5t59 33.5q10 0 26 -12q90 -75 221 -191q31 -26 43.5 -43t12.5 -39q0 -28 -27 -90q-16 8 -83.5 42t-100.5 54q-79 47 -158 113q-45 41 -45 80z" />
<glyph unicode="&#xcd;" horiz-adv-x="743" d="M33 76q0 6 3 16t3 12q12 28 27 39t38 11q16 0 50 -8.5t49 -8.5q13 0 30 10q11 9 17 35.5t7.5 49.5t2 59t0.5 41q32 385 117 897q-52 -23 -92 -23q-50 0 -83.5 25.5t-33.5 77.5v18q3 28 31.5 51t73.5 38t86.5 25t90.5 19.5t66 14.5l12 2l-49 -13q8 5 37 11q6 2 21 2 q50 0 103.5 -34.5t53.5 -78.5q0 -17 -4 -23q-6 -20 -23 -29.5t-34.5 -10.5t-39.5 -4t-34 -11q-27 -18 -68.5 -358.5t-54.5 -538.5q-1 -4 -7.5 -41t-11.5 -72.5t-5 -60.5q0 -41 12 -53q8 -12 37 -12h31q42 0 61 -31q14 -25 14 -43q0 -33 -36.5 -59t-92 -39.5t-110 -20 t-101.5 -6.5q-35 0 -47 2q-51 9 -99 43t-48 80zM457 1640q0 20 9.5 39.5t19 30t30.5 31.5q90 88 205 219q18 20 29 57q8 35 30 35q8 0 25 -10q58 -55 113 -113q18 -24 18 -43q0 -32 -33 -55q-35 -27 -117 -80q-111 -75 -190 -121q-18 -9 -39 -16.5t-49 -16t-39 -12.5 q-12 30 -12 55z" />
<glyph unicode="&#xce;" horiz-adv-x="768" d="M33 76q0 6 3 16t3 12q12 28 27 39t38 11q16 0 50 -8.5t49 -8.5q13 0 30 10q11 9 17 35.5t7.5 49.5t2 59t0.5 41q32 385 117 897q-52 -23 -92 -23q-50 0 -83.5 25.5t-33.5 77.5v18q3 28 31.5 51t73.5 38t86.5 25t90.5 19.5t66 14.5l12 2l-49 -13q8 5 37 11q6 2 21 2 q50 0 103.5 -34.5t53.5 -78.5q0 -17 -4 -23q-6 -20 -23 -29.5t-34.5 -10.5t-39.5 -4t-34 -11q-27 -18 -68.5 -358.5t-54.5 -538.5q-1 -4 -7.5 -41t-11.5 -72.5t-5 -60.5q0 -41 12 -53q8 -12 37 -12h31q42 0 61 -31q14 -25 14 -43q0 -33 -36.5 -59t-92 -39.5t-110 -20 t-101.5 -6.5q-35 0 -47 2q-51 9 -99 43t-48 80zM129 1599q0 4 6 13l51 65q20 24 61.5 61t55.5 52q13 14 24.5 29.5t28 41t21.5 33.5q3 3 8.5 12.5t7.5 12.5q13 19 13 37q0 35 12 47q14 14 49 14h12q81 -3 119 -55q17 -22 37.5 -46t47 -53.5t38.5 -43.5l6 -11l68 -73 q8 -5 30 -27q29 -29 29 -47v-12q0 -46 -41 -62q-24 -6 -27 -6q-23 0 -55 23l-10 8q-64 39 -113 117q-25 40 -59 77q-12 9 -21 21l-28 -37l-99 -113q-33 -42 -69 -71q-54 -45 -96 -45q-30 0 -68.5 10t-38.5 28z" />
<glyph unicode="&#xcf;" horiz-adv-x="718" d="M33 76q0 6 3 16t3 12q12 28 27 39t38 11q16 0 50 -8.5t49 -8.5q13 0 30 10q11 9 17 35.5t7.5 49.5t2 59t0.5 41q32 385 117 897q-52 -23 -92 -23q-50 0 -83.5 25.5t-33.5 77.5v18q3 28 31.5 51t73.5 38t86.5 25t90.5 19.5t66 14.5l12 2l-49 -13q8 5 37 11q6 2 21 2 q50 0 103.5 -34.5t53.5 -78.5q0 -17 -4 -23q-6 -20 -23 -29.5t-34.5 -10.5t-39.5 -4t-34 -11q-27 -18 -68.5 -358.5t-54.5 -538.5q-1 -4 -7.5 -41t-11.5 -72.5t-5 -60.5q0 -41 12 -53q8 -12 37 -12h31q42 0 61 -31q14 -25 14 -43q0 -33 -36.5 -59t-92 -39.5t-110 -20 t-101.5 -6.5q-35 0 -47 2q-51 9 -99 43t-48 80zM205 1698v18q0 19 6 29l6 12l5 10t5.5 10.5t5 9t7 9t8 6t10.5 4.5q1 0 4 1t4 1q20 0 62 -30q13 -10 34 -43l3 -9q18 -27 18 -55q0 -12 -2 -18q-8 -30 -47 -49q-16 -13 -39 -13q-24 0 -44 15.5t-30 42.5q-9 18 -12 37 q0 6 -4 12zM481 1636q0 40 17 93q1 3 2.5 9t2.5 11t1 10q1 8 12 13.5t21 5.5q2 -1 5.5 -2.5t6.5 -2.5t6 -1q38 -10 53 -27q49 -61 49 -103q0 -16 -10 -36q-11 -19 -43 -31l-26 -8q-41 0 -66.5 18.5t-30.5 50.5z" />
<glyph unicode="&#xd0;" horiz-adv-x="1032" d="M-53 764q0 20 10 43q9 18 45 18h188l15 250q0 3 2 14t2 17t1 19t1 20q0 22 -6 43q-12 34 -12 61q0 55 43 133q1 0 4.5 3.5t7.5 3.5q10 0 36.5 -10.5t34.5 -12.5l21 -6q116 -28 219 -64q162 -54 258 -150.5t137 -246.5q23 -73 23 -154q0 -151 -90 -288 q-197 -300 -525 -383q-14 -4 -33.5 -16t-34.5 -22l-15 -11l-13 -11q-36 -26 -51 -26q-20 0 -55 43q-6 7 -31.5 27.5t-45.5 38.5t-20 26q0 1 2.5 3.5t4.5 2.5q25 8 42.5 22t26.5 28t14.5 36t6.5 37t2 39q0 8 2 23.5t2 23.5l18 338q-3 0 -96 -6h-49q-41 4 -66.5 30.5 t-25.5 63.5zM297 209l41 14q187 87 304 210.5t175 297.5q19 59 19 107q0 70 -30 131t-85 102q-103 78 -217 78q-50 0 -127 -25l-25 -6l-14 -295q62 0 137 -10q66 -11 66 -61q-6 -62 -74 -62h-37q-111 -6 -115 -6q-18 -308 -18 -430v-45z" />
<glyph unicode="&#xd1;" horiz-adv-x="1044" d="M-47 -92q0 11 3.5 24.5t6.5 22t10.5 27t10.5 24.5q74 165 129 393q50 208 116 578q7 31 7 55q0 6 -1.5 20t-1.5 23q0 10 -2 30t-2 32q0 42 23 69q2 6 20 6q20 0 47 -6q87 -23 125 -131q32 -81 105.5 -273.5t116.5 -301.5q5 -14 13.5 -29t21.5 -35.5t18 -29.5 q1 -3 5.5 -10.5t6.5 -12.5v25q0 242 28 657t54 473l6 16l17 -6l32 -16q57 -22 80 -45q29 -42 29 -92q0 -19 -4 -29q-76 -320 -76 -690q0 -178 8 -295q2 -32 10 -92.5t9 -73.5l10 -68q0 -5 1 -16.5t1 -17.5q0 -70 -62 -93q-11 -8 -32 -8q-23 0 -41.5 14t-42.5 42 q-223 271 -369 659q-5 17 -12 23l-43 -220q-29 -148 -48 -234.5t-56 -213.5t-80 -227q-7 -23 -30 -46.5t-46 -23.5q-32 0 -80 45q-41 41 -41 78zM135 1677q0 24 37 70l45 65q80 99 145 99q33 0 65.5 -18.5t78.5 -55.5l49 -47q70 -55 117 -55q44 0 116 59l11 8q8 2 21.5 15.5 t23.5 13.5q18 0 35 -25q20 -33 20 -61q0 -34 -25 -59q-18 -18 -98 -82q-35 -7 -55 -7q-99 0 -203 86q-38 38 -74 64q-2 4 -19.5 13t-29.5 9q-25 0 -51 -36q-41 -52 -68 -117q-25 -43 -47 -43q-19 0 -43 24q-21 23 -29 33t-15 23t-7 24z" />
<glyph unicode="&#xd2;" horiz-adv-x="1064" d="M45 528q0 159 59.5 308.5t167.5 308.5q49 75 152 182q95 98 178 98q96 0 178 -108q208 -261 211 -592q-23 -476 -420 -639q-88 -37 -184 -37q-38 0 -68 6q-101 13 -166.5 97.5t-91.5 216.5q-16 73 -16 159zM229 1831q13 19 52 52.5t59 33.5q9 0 29 -12q42 -34 118 -101 t103 -90q55 -46 55 -84q0 -25 -29 -88q-23 12 -87 43.5t-97 50.5q-99 63 -156 115q-47 38 -47 80zM233 426q1 -89 33.5 -131.5t98.5 -42.5q34 0 92 14q68 11 138.5 55t126 106t91 140t35.5 152q0 27 -10 69q-51 198 -95 312q-36 80 -90 80q-35 0 -75 -37 q-165 -153 -255 -320t-90 -368v-29z" />
<glyph unicode="&#xd3;" horiz-adv-x="1058" d="M45 528q0 159 59.5 308.5t167.5 308.5q49 75 152 182q95 98 178 98q96 0 178 -108q208 -261 211 -592q-23 -476 -420 -639q-88 -37 -184 -37q-38 0 -68 6q-101 13 -166.5 97.5t-91.5 216.5q-16 73 -16 159zM233 426q1 -89 33.5 -131.5t98.5 -42.5q34 0 92 14 q68 11 138.5 55t126 106t91 140t35.5 152q0 27 -10 69q-51 198 -95 312q-36 80 -90 80q-35 0 -75 -37q-165 -153 -255 -320t-90 -368v-29zM494 1618q0 20 9.5 39.5t19.5 31t30 31.5q78 76 205 217q17 20 28 60q8 33 31 33q10 0 25 -9q63 -60 112 -114q19 -22 19 -43 q0 -30 -33 -56q-45 -33 -117 -79q-142 -91 -190 -119q-24 -14 -71.5 -29t-55.5 -18q-12 34 -12 55z" />
<glyph unicode="&#xd4;" horiz-adv-x="1071" d="M45 528q0 159 59.5 308.5t167.5 308.5q49 75 152 182q95 98 178 98q96 0 178 -108q208 -261 211 -592q-23 -476 -420 -639q-88 -37 -184 -37q-38 0 -68 6q-101 13 -166.5 97.5t-91.5 216.5q-16 73 -16 159zM233 426q1 -89 33.5 -131.5t98.5 -42.5q34 0 92 14 q68 11 138.5 55t126 106t91 140t35.5 152q0 27 -10 69q-51 198 -95 312q-36 80 -90 80q-35 0 -75 -37q-165 -153 -255 -320t-90 -368v-29zM236 1511q0 1 1 3t2.5 4.5t2.5 5.5l53 63q18 24 60 61t57 54q12 14 73 104q3 3 5 6.5t5 9t5 9.5q12 14 12 37q0 33 12 45q16 16 49 16 h13q45 -3 72 -15.5t49 -39.5q29 -38 122 -145l7 -9l67 -73q8 -6 31 -29q27 -27 27 -45v-12q0 -48 -39 -62q-15 -6 -29 -6q-9 0 -17.5 2t-13 4.5t-13 7t-11.5 6.5l-9 11q-59 35 -114 116q-14 21 -58 76q-13 8 -22 23l-27 -37l-98 -115q-36 -40 -72 -69q-57 -48 -94 -48 q-31 0 -69.5 11t-38.5 30z" />
<glyph unicode="&#xd5;" horiz-adv-x="1062" d="M45 528q0 159 59.5 308.5t167.5 308.5q49 75 152 182q95 98 178 98q96 0 178 -108q208 -261 211 -592q-23 -476 -420 -639q-88 -37 -184 -37q-38 0 -68 6q-101 13 -166.5 97.5t-91.5 216.5q-16 73 -16 159zM233 426q1 -89 33.5 -131.5t98.5 -42.5q34 0 92 14 q68 11 138.5 55t126 106t91 140t35.5 152q0 27 -10 69q-51 198 -95 312q-36 80 -90 80q-35 0 -75 -37q-165 -153 -255 -320t-90 -368v-29zM258 1634q0 22 37 68q7 8 24 29.5t27 31.5q82 95 158 95q56 0 155 -70q32 -28 54 -43q73 -55 125 -55q50 0 129 57l10 6 q7 2 21.5 15.5t27.5 13.5q20 0 37 -25q24 -31 24 -59t-28 -56q-20 -18 -58 -43.5t-49 -35.5q-9 -1 -29 -4t-30 -3q-108 0 -221 84q-69 55 -80 62q-3 3 -21 11.5t-30 8.5q-27 0 -60 -36q-34 -42 -73 -111q-25 -43 -50 -43q-21 0 -45 24q-30 29 -42.5 45.5t-12.5 32.5z" />
<glyph unicode="&#xd6;" horiz-adv-x="1107" d="M45 528q0 159 59.5 308.5t167.5 308.5q49 75 152 182q95 98 178 98q96 0 178 -108q208 -261 211 -592q-23 -476 -420 -639q-88 -37 -184 -37q-38 0 -68 6q-101 13 -166.5 97.5t-91.5 216.5q-16 73 -16 159zM233 426q1 -89 33.5 -131.5t98.5 -42.5q34 0 92 14 q68 11 138.5 55t126 106t91 140t35.5 152q0 27 -10 69q-51 198 -95 312q-36 80 -90 80q-35 0 -75 -37q-165 -153 -255 -320t-90 -368v-29zM426 1708v18q0 19 6 27l6 12q7 17 10.5 23t11.5 15t19 12q1 0 4 2t4 2q19 0 62 -31q9 -7 35 -43l2 -10q18 -27 18 -56q0 -12 -2 -18 q-9 -31 -47 -49q-19 -13 -39 -13q-23 0 -43.5 16t-30.5 44q-9 17 -12 37q0 6 -4 12zM702 1647q0 39 17 92q6 24 6 30q1 8 12 13.5t21 5.5q9 -6 18 -6q39 -10 53 -29q50 -62 50 -100q0 -15 -11 -37q-9 -18 -43 -31l-26 -10q-41 0 -66.5 19.5t-30.5 52.5z" />
<glyph unicode="&#xd7;" horiz-adv-x="843" d="M68 399q0 36 14 80q5 15 14 30t21 33.5t18 28.5l31 45q76 83 76 158q0 54 -33 111q-19 32 -30.5 76t-15 73t-7.5 84q0 42 -6 82q0 3 -1.5 12t-1.5 13q0 51 43 71q2 2 15 2q61 -9 89.5 -36.5t37.5 -87.5q6 -55 43 -228l2 -16q0 -3 2 -7.5t2 -7.5l27 31q74 94 147 180 l84 105q33 41 70 41q20 0 47 -17q40 -30 49 -73v-13q0 -27 -19 -55q-14 -17 -55 -63l-37 -43q-4 -5 -30.5 -36t-54 -64.5t-56.5 -69.5t-47.5 -63.5t-18.5 -35.5v-14l164 -215q19 -22 19 -43v-31q-19 -35 -54 -35q-14 0 -36 13q-82 44 -129 84q-25 23 -74 80l-8 8 q-80 -92 -154 -240q-11 -22 -36.5 -32.5t-47.5 -10.5q-21 0 -41 19t-20 40q0 6 -1 18.5t-1 18.5z" />
<glyph unicode="&#xd8;" horiz-adv-x="1087" d="M20 61q0 23 13 52q94 170 184 323q66 113 182 301l9 15q21 32 71 102q9 15 31 46t31 46l159 266q70 116 119 185q35 53 96 53q77 0 117 -84q1 -1 2.5 -6t3.5 -8v-23q0 -1 -2 -4t-2 -4q-11 -23 -24 -29q-38 -18 -70.5 -55t-71.5 -94l-8 -17q-3 -8 -11.5 -22t-12.5 -21 q-68 -106 -145.5 -228t-169.5 -268.5t-144 -228.5l-94 -153q-37 -59 -72 -123l-49 -80q-20 -45 -58 -45q-22 0 -47 25q-37 37 -37 79zM45 528q0 159 59.5 308.5t167.5 308.5q49 75 152 182q95 98 178 98q96 0 178 -108q208 -261 211 -592q-23 -476 -420 -639 q-88 -37 -184 -37q-38 0 -68 6q-101 13 -166.5 97.5t-91.5 216.5q-16 73 -16 159zM233 426q1 -89 33.5 -131.5t98.5 -42.5q34 0 92 14q68 11 138.5 55t126 106t91 140t35.5 152q0 27 -10 69q-51 198 -95 312q-36 80 -90 80q-35 0 -75 -37q-165 -153 -255 -320t-90 -368v-29z " />
<glyph unicode="&#xd9;" horiz-adv-x="1212" d="M98 580q0 -42 6 -82v-72q11 -129 42 -227.5t106 -180.5q59 -73 131 -73q31 0 53 12q17 8 35 19.5t30.5 20.5t33.5 27t28.5 25t31.5 29t28 26q17 15 31.5 33.5t34.5 48.5t32 47q7 -84 10 -96q8 -33 33 -69q20 -25 41 -37.5t55 -12.5q31 0 53.5 24t22.5 62v13 q-14 89 -14 227q0 108 14.5 235.5t31 217.5t46.5 240.5t43 224.5q1 5 3.5 23t2.5 26q0 90 -115 129q-23 10 -37 10q-19 0 -30 -13.5t-19 -41.5q-12 -62 -51 -209q-4 -15 -15.5 -77.5t-21.5 -94.5q-18 -61 -57 -216t-76.5 -259.5t-97.5 -204.5q-76 -124 -154 -199 q-10 -10 -14 -10q-10 0 -19 12q-5 15 -17 45t-20 54.5t-12 46.5q-24 132 -24 270q0 277 98 614q2 8 2 31q0 57 -41.5 102.5t-101.5 45.5q-12 0 -26.5 -13t-16.5 -24q-6 -23 -12.5 -71t-12.5 -71q-74 -336 -74 -587zM172 1919q13 19 52 52.5t59 33.5q10 0 26 -12 q90 -75 221 -191q31 -26 43.5 -43t12.5 -39q0 -28 -27 -90q-16 8 -83.5 42t-100.5 54q-79 47 -158 113q-45 41 -45 80z" />
<glyph unicode="&#xda;" horiz-adv-x="1181" d="M98 580q0 251 74 587q6 23 12.5 71t12.5 71q2 11 16.5 24t26.5 13q60 0 101.5 -45.5t41.5 -102.5q0 -23 -2 -31q-98 -337 -98 -614q0 -138 24 -270q4 -22 12 -46.5t20 -54.5t17 -45q9 -12 19 -12q4 0 14 10q78 75 154 199q60 100 97.5 204.5t76.5 259.5t57 216 q10 32 21.5 94.5t15.5 77.5q39 147 51 209q8 28 19 41.5t30 13.5q14 0 37 -10q115 -39 115 -129q0 -8 -2.5 -26t-3.5 -23q-13 -74 -43 -224.5t-46.5 -240.5t-31 -217.5t-14.5 -235.5q0 -138 14 -227v-13q0 -38 -22.5 -62t-53.5 -24q-34 0 -55 12.5t-41 37.5q-25 36 -33 69 q-3 12 -10 96q-12 -17 -32 -47t-34.5 -48.5t-31.5 -33.5q-4 -4 -28 -26t-31.5 -29t-28.5 -25t-33.5 -27t-30.5 -20.5t-35 -19.5q-22 -12 -53 -12q-72 0 -131 73q-75 82 -106 180.5t-42 227.5v72q-6 40 -6 82zM457 1640q0 20 9.5 39.5t19 30t30.5 31.5q90 88 205 219 q18 20 29 57q8 35 30 35q8 0 25 -10q58 -55 113 -113q18 -24 18 -43q0 -32 -33 -55q-35 -27 -117 -80q-111 -75 -190 -121q-18 -9 -39 -16.5t-49 -16t-39 -12.5q-12 30 -12 55z" />
<glyph unicode="&#xdb;" horiz-adv-x="1187" d="M98 580q0 -42 6 -82v-72q11 -129 42 -227.5t106 -180.5q59 -73 131 -73q31 0 53 12q17 8 35 19.5t30.5 20.5t33.5 27t28.5 25t31.5 29t28 26q17 15 31.5 33.5t34.5 48.5t32 47q7 -84 10 -96q8 -33 33 -69q20 -25 41 -37.5t55 -12.5q31 0 53.5 24t22.5 62v13 q-14 89 -14 227q0 108 14.5 235.5t31 217.5t46.5 240.5t43 224.5q1 5 3.5 23t2.5 26q0 90 -115 129q-23 10 -37 10q-19 0 -30 -13.5t-19 -41.5q-12 -62 -51 -209q-4 -15 -15.5 -77.5t-21.5 -94.5q-18 -61 -57 -216t-76.5 -259.5t-97.5 -204.5q-76 -124 -154 -199 q-10 -10 -14 -10q-10 0 -19 12q-5 15 -17 45t-20 54.5t-12 46.5q-24 132 -24 270q0 277 98 614q2 8 2 31q0 57 -41.5 102.5t-101.5 45.5q-12 0 -26.5 -13t-16.5 -24q-6 -23 -12.5 -71t-12.5 -71q-74 -336 -74 -587zM246 1563q0 3 6 12l51 65q20 24 61.5 61t55.5 52 q13 14 24.5 30t27.5 41t22 34q3 3 8.5 12t7.5 12q12 18 12 37q0 34 13 47q14 14 49 14h12q81 -3 119 -55q17 -22 37.5 -46t47 -53.5t38.5 -43.5l6 -10l67 -74q10 -6 31 -27q29 -29 29 -47v-12q0 -46 -41 -62q-24 -6 -27 -6q-23 0 -55 23l-10 8q-64 39 -113 117 q-25 40 -59 77q-12 9 -21 21l-29 -37l-98 -113q-33 -42 -69 -71q-54 -45 -97 -45q-29 0 -67.5 10.5t-38.5 28.5z" />
<glyph unicode="&#xdc;" horiz-adv-x="1130" d="M98 580q0 -42 6 -82v-72q11 -129 42 -227.5t106 -180.5q59 -73 131 -73q31 0 53 12q17 8 35 19.5t30.5 20.5t33.5 27t28.5 25t31.5 29t28 26q17 15 31.5 33.5t34.5 48.5t32 47q7 -84 10 -96q8 -33 33 -69q20 -25 41 -37.5t55 -12.5q31 0 53.5 24t22.5 62v13 q-14 89 -14 227q0 108 14.5 235.5t31 217.5t46.5 240.5t43 224.5q1 5 3.5 23t2.5 26q0 90 -115 129q-23 10 -37 10q-19 0 -30 -13.5t-19 -41.5q-12 -62 -51 -209q-4 -15 -15.5 -77.5t-21.5 -94.5q-18 -61 -57 -216t-76.5 -259.5t-97.5 -204.5q-76 -124 -154 -199 q-10 -10 -14 -10q-10 0 -19 12q-5 15 -17 45t-20 54.5t-12 46.5q-24 132 -24 270q0 277 98 614q2 8 2 31q0 57 -41.5 102.5t-101.5 45.5q-12 0 -26.5 -13t-16.5 -24q-6 -23 -12.5 -71t-12.5 -71q-74 -336 -74 -587zM399 1653v18q0 18 7 27l6 12q14 42 39 49q2 0 5 2t5 2 q19 0 61 -30q17 -14 33 -43l4 -11q19 -29 19 -55q0 -10 -5 -18q-10 -33 -45 -50q-18 -12 -41 -12q-47 0 -73 60q-3 6 -13 36q0 7 -2 13zM676 1591q0 38 14 92q6 12 6 31q3 8 14 13.5t21 5.5q10 -7 19 -7q39 -12 51 -28q49 -61 49 -101q0 -20 -8 -36q-11 -17 -43 -31l-29 -10 q-41 0 -65 19t-29 52z" />
<glyph unicode="&#xdd;" horiz-adv-x="921" d="M14 1389v12q3 21 24.5 41t43.5 20l18 -4q40 -17 63 -29t54 -42t47 -70q35 -89 92 -199l15 -28l276 374q20 47 62 47q20 0 39 -14t25.5 -23t25.5 -36l20 -31q35 -27 35 -68q0 -31 -29 -71l-303 -389q-22 -35 -22 -72q9 -93 12 -319t12 -310q0 -6 2.5 -19.5t3.5 -17.5 q7 -28 7 -59q0 -69 -43 -107q-48 -36 -93 -36q-30 0 -50 15t-28.5 43t-11.5 48t-4 49q0 25 -4 35q-12 90 -24.5 303.5t-12.5 269.5v78q0 119 -6 119q0 2 -1 5t-1 5l-227 424q-17 20 -17 56zM346 1671q0 20 10 39.5t19 29.5t31 32q84 81 204 219q18 20 29 57q8 35 31 35 q7 0 24 -10q58 -55 113 -113q18 -24 18 -43q0 -33 -32 -55q-35 -27 -117 -80q-104 -70 -191 -121q-18 -9 -39 -16.5t-49 -16t-39 -12.5q-12 30 -12 55z" />
<glyph unicode="&#xe0;" horiz-adv-x="874" d="M45 283q0 91 61 233q23 51 109 178l6 8q73 107 240 121h12q49 0 87.5 -24t80.5 -66q34 -37 55 -80l23 -32q14 -28 14 -48q0 -14 -2 -20q-10 -27 -37 -35q-2 0 -6.5 -1t-5.5 -1q-30 0 -80 43q-11 13 -22 43q-4 22 -13 31q-46 49 -98 49q-40 0 -82 -31q-184 -142 -184 -411 q0 -26 18 -62q6 -4 19 -4q18 0 37.5 11.5t29.5 23.5q114 125 131 246q5 26 19 69l6 25q4 14 8.5 23.5t16 17.5t28.5 8h14q41 -6 63.5 -32t22.5 -66q0 -14 -3.5 -37.5t-4.5 -30.5q0 -1 -6 -55v-31q-6 -40 -6 -80q0 -31 2 -45q9 -63 36.5 -97t78.5 -44q57 -16 69 -41 q0 -3 2 -10.5t2 -10.5l-6 -24q-9 -23 -42 -41.5t-62 -18.5q-78 7 -127.5 55.5t-87.5 123.5l-6 22l-13 -10l-43 -49q-67 -70 -139 -70q-52 0 -98.5 34t-79.5 95q-37 73 -37 148zM172 1253q13 19 52 52.5t59 33.5q10 0 26 -12q42 -35 119.5 -102t101.5 -88q30 -25 43 -43.5 t13 -40.5q0 -29 -27 -88q-159 79 -184 94q-97 62 -158 115q-45 36 -45 79z" />
<glyph unicode="&#xe1;" horiz-adv-x="874" d="M45 283q0 91 61 233q23 51 109 178l6 8q73 107 240 121h12q49 0 87.5 -24t80.5 -66q34 -37 55 -80l23 -32q14 -28 14 -48q0 -14 -2 -20q-10 -27 -37 -35q-2 0 -6.5 -1t-5.5 -1q-30 0 -80 43q-11 13 -22 43q-4 22 -13 31q-46 49 -98 49q-40 0 -82 -31q-184 -142 -184 -411 q0 -26 18 -62q6 -4 19 -4q18 0 37.5 11.5t29.5 23.5q114 125 131 246q5 26 19 69l6 25q4 14 8.5 23.5t16 17.5t28.5 8h14q41 -6 63.5 -32t22.5 -66q0 -14 -3.5 -37.5t-4.5 -30.5q0 -1 -6 -55v-31q-6 -40 -6 -80q0 -31 2 -45q9 -63 36.5 -97t78.5 -44q57 -16 69 -41 q0 -3 2 -10.5t2 -10.5l-6 -24q-9 -23 -42 -41.5t-62 -18.5q-78 7 -127.5 55.5t-87.5 123.5l-6 22l-13 -10l-43 -49q-67 -70 -139 -70q-52 0 -98.5 34t-79.5 95q-37 73 -37 148zM254 940q0 20 10 39.5t18.5 29t30.5 31.5q84 82 205 220q18 20 29 57q8 35 31 35q6 0 24 -11 q67 -64 113 -112q18 -24 18 -43q0 -33 -33 -56q-33 -25 -116 -79q-104 -70 -191 -121q-18 -9 -39 -16.5t-49 -16t-39 -12.5q-12 30 -12 55z" />
<glyph unicode="&#xe2;" horiz-adv-x="890" d="M27 991q0 2 2.5 6t3.5 7l53 65q19 24 61.5 61.5t55.5 51.5q12 14 73 104q3 3 7.5 12.5t7.5 12.5q12 14 12 37q0 35 12 47q14 14 50 14h12q44 -1 71.5 -14t49.5 -41q40 -53 123 -144l6 -10l67 -74q20 -15 31 -26q27 -27 27 -47v-13q0 -45 -39 -61q-1 0 -12 -3t-17 -3 q-20 0 -55 22l-8 9q-61 36 -115 116q-19 30 -57 78q-13 8 -23 21l-27 -37l-98 -113q-30 -38 -72 -72q-54 -45 -94 -45q-31 0 -69.5 10.5t-38.5 28.5zM45 283q0 91 61 233q23 51 109 178l6 8q73 107 240 121h12q49 0 87.5 -24t80.5 -66q34 -37 55 -80l23 -32q14 -28 14 -48 q0 -14 -2 -20q-10 -27 -37 -35q-2 0 -6.5 -1t-5.5 -1q-30 0 -80 43q-11 13 -22 43q-4 22 -13 31q-46 49 -98 49q-40 0 -82 -31q-184 -142 -184 -411q0 -26 18 -62q6 -4 19 -4q18 0 37.5 11.5t29.5 23.5q114 125 131 246q5 26 19 69l6 25q4 14 8.5 23.5t16 17.5t28.5 8h14 q41 -6 63.5 -32t22.5 -66q0 -14 -3.5 -37.5t-4.5 -30.5q0 -1 -6 -55v-31q-6 -40 -6 -80q0 -31 2 -45q9 -63 36.5 -97t78.5 -44q57 -16 69 -41q0 -3 2 -10.5t2 -10.5l-6 -24q-9 -23 -42 -41.5t-62 -18.5q-78 7 -127.5 55.5t-87.5 123.5l-6 22l-13 -10l-43 -49 q-67 -70 -139 -70q-52 0 -98.5 34t-79.5 95q-37 73 -37 148z" />
<glyph unicode="&#xe3;" horiz-adv-x="825" d="M45 283q0 91 61 233q23 51 109 178l6 8q73 107 240 121h12q49 0 87.5 -24t80.5 -66q34 -37 55 -80l23 -32q14 -28 14 -48q0 -14 -2 -20q-10 -27 -37 -35q-2 0 -6.5 -1t-5.5 -1q-30 0 -80 43q-11 13 -22 43q-4 22 -13 31q-46 49 -98 49q-40 0 -82 -31q-184 -142 -184 -411 q0 -26 18 -62q6 -4 19 -4q18 0 37.5 11.5t29.5 23.5q114 125 131 246q5 26 19 69l6 25q4 14 8.5 23.5t16 17.5t28.5 8h14q41 -6 63.5 -32t22.5 -66q0 -14 -3.5 -37.5t-4.5 -30.5q0 -1 -6 -55v-31q-6 -40 -6 -80q0 -31 2 -45q9 -63 36.5 -97t78.5 -44q57 -16 69 -41 q0 -3 2 -10.5t2 -10.5l-6 -24q-9 -23 -42 -41.5t-62 -18.5q-78 7 -127.5 55.5t-87.5 123.5l-6 22l-13 -10l-43 -49q-67 -70 -139 -70q-52 0 -98.5 34t-79.5 95q-37 73 -37 148zM51 1065q0 5 1 9t4.5 10.5t5.5 10t8.5 14t9.5 15.5q1 2 17 24t26 32q63 86 123 86q46 0 123 -66 q5 -4 13 -12t15.5 -14.5t14.5 -10.5q58 -49 98 -49q39 0 104 53l7 2q6 2 17 13.5t21 11.5q18 0 29 -20q21 -28 21 -54q0 -21 -25 -49q-14 -14 -43.5 -37.5t-38.5 -32.5q-18 -4 -47 -4q-93 0 -174 74q-7 5 -30 24.5t-36 28.5q-3 4 -18 11.5t-25 7.5q-17 0 -45 -31 q-21 -28 -59 -98q-15 -37 -37 -37q-19 0 -37 20q-43 40 -43 68z" />
<glyph unicode="&#xe4;" horiz-adv-x="837" d="M45 283q0 91 61 233q23 51 109 178l6 8q73 107 240 121h12q49 0 87.5 -24t80.5 -66q34 -37 55 -80l23 -32q14 -28 14 -48q0 -14 -2 -20q-10 -27 -37 -35q-2 0 -6.5 -1t-5.5 -1q-30 0 -80 43q-11 13 -22 43q-4 22 -13 31q-46 49 -98 49q-40 0 -82 -31q-184 -142 -184 -411 q0 -26 18 -62q6 -4 19 -4q18 0 37.5 11.5t29.5 23.5q114 125 131 246q5 26 19 69l6 25q4 14 8.5 23.5t16 17.5t28.5 8h14q41 -6 63.5 -32t22.5 -66q0 -14 -3.5 -37.5t-4.5 -30.5q0 -1 -6 -55v-31q-6 -40 -6 -80q0 -31 2 -45q9 -63 36.5 -97t78.5 -44q57 -16 69 -41 q0 -3 2 -10.5t2 -10.5l-6 -24q-9 -23 -42 -41.5t-62 -18.5q-78 7 -127.5 55.5t-87.5 123.5l-6 22l-13 -10l-43 -49q-67 -70 -139 -70q-52 0 -98.5 34t-79.5 95q-37 73 -37 148zM203 1020v18q0 19 6 27l6 12q14 42 39 49q2 0 5 2t5 2q20 0 62 -30q15 -12 32 -43l4 -10 q19 -29 19 -56q0 -12 -4 -18q-10 -32 -45 -49q-19 -13 -41 -13q-48 0 -74 60q-4 7 -8 21.5t-4 15.5q0 6 -2 12zM479 958q0 35 15 93q6 12 6 30q3 8 14 13.5t21 5.5q9 -6 18 -6q38 -11 51 -29q49 -61 49 -100q0 -21 -8 -37q-11 -17 -43 -31l-29 -10q-41 0 -65 19t-29 52z" />
<glyph unicode="&#xe5;" horiz-adv-x="817" d="M45 283q0 91 61 233q23 51 109 178l6 8q73 107 240 121h12q49 0 87.5 -24t80.5 -66q34 -37 55 -80l23 -32q14 -28 14 -48q0 -14 -2 -20q-10 -27 -37 -35q-2 0 -6.5 -1t-5.5 -1q-30 0 -80 43q-11 13 -22 43q-4 22 -13 31q-46 49 -98 49q-40 0 -82 -31q-184 -142 -184 -411 q0 -26 18 -62q6 -4 19 -4q18 0 37.5 11.5t29.5 23.5q114 125 131 246q5 26 19 69l6 25q4 14 8.5 23.5t16 17.5t28.5 8h14q41 -6 63.5 -32t22.5 -66q0 -14 -3.5 -37.5t-4.5 -30.5q0 -1 -6 -55v-31q-6 -40 -6 -80q0 -31 2 -45q9 -63 36.5 -97t78.5 -44q57 -16 69 -41 q0 -3 2 -10.5t2 -10.5l-6 -24q-9 -23 -42 -41.5t-62 -18.5q-78 7 -127.5 55.5t-87.5 123.5l-6 22l-13 -10l-43 -49q-67 -70 -139 -70q-52 0 -98.5 34t-79.5 95q-37 73 -37 148zM168 1137v20q0 34 24.5 73t49 71t24.5 51q36 34 55.5 47.5t40.5 13.5q24 0 87 -24 q153 -66 190 -201q8 -27 8 -58q0 -89 -82 -135q-94 -58 -176 -77q-5 -1 -18.5 -4t-20.5 -3q-64 0 -111.5 47t-64.5 129zM301 1118q0 -21 12 -37q15 -15 45 -22q87 9 146 71q10 10 18 33q0 13 -24 37q-43 43 -84 43h-13q-34 -9 -64.5 -44t-35.5 -69v-12z" />
<glyph unicode="&#xe6;" horiz-adv-x="1482" d="M45 283q0 91 61 233q23 51 109 178l6 8q73 107 240 121h12q49 0 87.5 -24t80.5 -66q34 -37 55 -80l23 -32q14 -28 14 -48q0 -14 -2 -20q-10 -27 -37 -35q-2 0 -6.5 -1t-5.5 -1q-30 0 -80 43q-11 13 -22 43q-4 22 -13 31q-46 49 -98 49q-40 0 -82 -31q-184 -142 -184 -411 q0 -26 18 -62q6 -4 19 -4q18 0 37.5 11.5t29.5 23.5q114 125 131 246q5 26 19 69l6 25q4 14 8.5 23.5t16 17.5t28.5 8h14q41 -6 63.5 -32t22.5 -66q0 -14 -3.5 -37.5t-4.5 -30.5q0 -1 -6 -55v-31q-6 -40 -6 -80q0 -31 2 -45q9 -63 36.5 -97t78.5 -44q57 -16 69 -41 q0 -3 2 -10.5t2 -10.5l-6 -24q-9 -23 -42 -41.5t-62 -18.5q-78 7 -127.5 55.5t-87.5 123.5l-6 22l-13 -10l-43 -49q-67 -70 -139 -70q-52 0 -98.5 34t-79.5 95q-37 73 -37 148zM739 377q0 105 43.5 201t122.5 165q107 91 182 123q59 25 89 25q68 0 127 -84q43 -62 43 -123 q0 -60 -48 -117q-38 -45 -73 -78.5t-82.5 -68.5t-104.5 -55.5t-120 -24.5q-10 0 -19 -14q9 -170 117 -170q38 0 74 16q54 18 170 88q50 32 73 43l39 25q23 16 37 16q9 0 16 -10q13 -23 13 -49q0 -59 -68 -123q-134 -137 -276 -160l-54 -6q-92 0 -163.5 56.5t-106.5 156.5 q-31 85 -31 168zM958 528q68 15 132.5 69.5t83.5 111.5q-51 -6 -121 -65t-95 -116z" />
<glyph unicode="&#xe8;" horiz-adv-x="774" d="M31 377q0 106 42.5 202t123.5 164q101 89 180 123q62 25 90 25q70 0 125 -84q43 -58 43 -123q0 -63 -45 -117q-39 -45 -74.5 -78.5t-83 -68.5t-104.5 -55.5t-119 -24.5q-5 0 -11.5 -5t-7.5 -9q2 -71 28.5 -120.5t88.5 -49.5q35 0 74 16q51 18 168 88q47 30 74 43l41 25 q20 16 36 16q12 0 15 -10q12 -17 12 -49q0 -59 -68 -123q-134 -137 -276 -160q-3 0 -21.5 -3t-29.5 -3q-92 0 -164.5 56.5t-106.5 156.5q-30 72 -30 168zM172 1274q13 19 52 52.5t59 33.5q10 0 26 -12q90 -75 221 -191q31 -26 43.5 -43t12.5 -39q0 -29 -27 -90 q-16 8 -83.5 42t-100.5 54q-79 47 -158 113q-45 41 -45 80zM248 528q68 15 132 69t83 112q-50 -6 -119 -64.5t-96 -116.5z" />
<glyph unicode="&#xe9;" horiz-adv-x="837" d="M31 377q0 106 42.5 202t123.5 164q101 89 180 123q62 25 90 25q70 0 125 -84q43 -58 43 -123q0 -63 -45 -117q-39 -45 -74.5 -78.5t-83 -68.5t-104.5 -55.5t-119 -24.5q-5 0 -11.5 -5t-7.5 -9q2 -71 28.5 -120.5t88.5 -49.5q35 0 74 16q51 18 168 88q47 30 74 43l41 25 q20 16 36 16q12 0 15 -10q12 -17 12 -49q0 -59 -68 -123q-134 -137 -276 -160q-3 0 -21.5 -3t-29.5 -3q-92 0 -164.5 56.5t-106.5 156.5q-30 72 -30 168zM248 528q68 15 132 69t83 112q-50 -6 -119 -64.5t-96 -116.5zM283 1032q0 20 9 39t18.5 30.5t29.5 31.5q48 45 207 219 q14 19 26 57q8 35 31 35q12 0 25 -10q47 -43 114 -113q19 -25 19 -43q0 -34 -35 -55q-50 -39 -117 -80q-130 -87 -190 -121q-17 -9 -38.5 -16.5t-47.5 -15.5t-39 -13q-12 24 -12 55z" />
<glyph unicode="&#xea;" horiz-adv-x="825" d="M27 1022q0 2 2.5 5.5t3.5 6.5l53 66q19 24 61 61t56 51q12 14 23.5 30.5t27 40.5t22.5 34q3 3 7.5 12t7.5 12q12 14 12 37q0 35 12 47q15 15 50 15h12q43 -1 71 -14.5t50 -41.5q35 -47 123 -143l6 -10l67 -74q16 -12 31 -27q27 -27 27 -47v-12q0 -45 -39 -61q-1 0 -12 -3 t-17 -3q-20 0 -55 22l-8 8q-60 35 -115 117q-19 30 -57 78q-15 9 -23 20l-27 -37l-98 -112q-30 -38 -72 -72q-54 -45 -94 -45q-31 0 -69.5 10.5t-38.5 28.5zM31 377q0 106 42.5 202t123.5 164q101 89 180 123q62 25 90 25q70 0 125 -84q43 -58 43 -123q0 -63 -45 -117 q-39 -45 -74.5 -78.5t-83 -68.5t-104.5 -55.5t-119 -24.5q-5 0 -11.5 -5t-7.5 -9q2 -71 28.5 -120.5t88.5 -49.5q35 0 74 16q51 18 168 88q47 30 74 43l41 25q20 16 36 16q12 0 15 -10q12 -17 12 -49q0 -59 -68 -123q-134 -137 -276 -160q-3 0 -21.5 -3t-29.5 -3 q-92 0 -164.5 56.5t-106.5 156.5q-30 72 -30 168zM248 528q68 15 132 69t83 112q-50 -6 -119 -64.5t-96 -116.5z" />
<glyph unicode="&#xeb;" horiz-adv-x="768" d="M31 377q0 106 42.5 202t123.5 164q101 89 180 123q62 25 90 25q70 0 125 -84q43 -58 43 -123q0 -63 -45 -117q-39 -45 -74.5 -78.5t-83 -68.5t-104.5 -55.5t-119 -24.5q-5 0 -11.5 -5t-7.5 -9q2 -71 28.5 -120.5t88.5 -49.5q35 0 74 16q51 18 168 88q47 30 74 43l41 25 q20 16 36 16q12 0 15 -10q12 -17 12 -49q0 -59 -68 -123q-134 -137 -276 -160q-3 0 -21.5 -3t-29.5 -3q-92 0 -164.5 56.5t-106.5 156.5q-30 72 -30 168zM180 1219v18q0 19 6 29l7 12q1 2 5.5 11.5t6.5 13t6.5 10t9.5 9.5t12 5q1 0 4.5 1t4.5 1q18 0 61 -31q15 -11 35 -43 l2 -8q18 -27 18 -55q0 -12 -2 -18q-8 -31 -47 -50q-14 -12 -39 -12q-51 0 -73 57q-10 21 -13 37q0 7 -4 13zM248 528q68 15 132 69t83 112q-50 -6 -119 -64.5t-96 -116.5zM457 1157q0 42 16 92q6 30 6 31q1 8 12 13t21 5q2 -1 5.5 -2.5t6.5 -2.5t6 -1q41 -11 54 -26 q49 -61 49 -103q0 -17 -10 -37q-10 -18 -43 -30l-27 -9q-41 0 -66 18.5t-30 51.5z" />
<glyph unicode="&#xec;" horiz-adv-x="407" d="M-92 1364q13 19 51.5 52.5t58.5 33.5q11 0 27 -12q42 -34 118 -101t103 -90q30 -25 43 -43.5t13 -40.5q0 -30 -27 -88q-159 79 -184 94q-97 62 -158 115q-45 36 -45 80zM88 266q0 99 12 221l4 41q0 39 -4 68q0 14 -1 41t-1 39q0 82 25 104q13 13 37 13q22 0 46 -16 t36 -32q41 -36 41 -75q0 -9 -2 -42t-2 -57q-19 -273 -19 -409q0 -19 4 -31q2 -27 2 -76q0 -71 -20 -84q-18 -12 -37 -12q-29 0 -50.5 24.5t-33.5 53.5q-37 84 -37 229z" />
<glyph unicode="&#xed;" horiz-adv-x="462" d="M88 266q0 99 12 221l4 41q0 39 -4 68q0 14 -1 41t-1 39q0 82 25 104q13 13 37 13q22 0 46 -16t36 -32q41 -36 41 -75q0 -9 -2 -42t-2 -57q-19 -273 -19 -409q0 -19 4 -31q2 -27 2 -76q0 -71 -20 -84q-18 -12 -37 -12q-29 0 -50.5 24.5t-33.5 53.5q-37 84 -37 229z M137 1051q0 20 10.5 39.5t18.5 28.5t31 32q84 81 204 219q18 20 29 57q8 35 31 35q7 0 24 -10q58 -55 113 -113q18 -24 18 -43q0 -33 -32 -55q-35 -27 -117 -80q-104 -70 -191 -121q-13 -7 -126 -45q-13 33 -13 56z" />
<glyph unicode="&#xee;" horiz-adv-x="528" d="M-135 1071q0 3 6 12l51 66q20 24 61.5 61t55.5 52q13 14 24.5 29.5t28 41t21.5 33.5q3 3 8.5 12.5t7.5 12.5q12 18 12 36q0 35 13 48q14 14 49 14h12q81 -3 119 -55q12 -16 123 -144l6 -10l67 -74q13 -7 31 -26q29 -29 29 -47v-13q0 -45 -41 -61q-24 -6 -27 -6 q-24 0 -55 22l-10 8q-64 39 -113 117q-26 43 -59 78q-14 10 -21 20l-28 -36l-99 -113q-35 -44 -69 -72q-54 -45 -97 -45q-29 0 -67.5 10.5t-38.5 28.5zM178 266q0 99 12 221l3 41q0 24 -3 68q0 14 -2 41t-2 39q0 82 25 104q16 13 37 13q23 0 47.5 -16t36.5 -32 q39 -39 39 -75q0 -9 -1 -42t-1 -57q-19 -219 -19 -409q0 -19 2 -31q4 -27 4 -76q0 -69 -22 -84q-18 -12 -37 -12q-50 0 -82 78q-37 78 -37 229z" />
<glyph unicode="&#xef;" horiz-adv-x="395" d="M-25 1278v18q0 18 7 27l6 12q14 42 39 49q2 0 5 2.5t5 2.5q18 0 61 -31q17 -14 33 -43l4 -10q19 -29 19 -56q0 -12 -4 -18q-9 -31 -46 -49q-19 -13 -41 -13q-47 0 -73 60q-2 4 -13 37q0 6 -2 12zM88 266q0 99 12 221l4 41q0 39 -4 68q0 14 -1 41t-1 39q0 82 25 104 q13 13 37 13q22 0 46 -16t36 -32q41 -36 41 -75q0 -9 -2 -42t-2 -57q-19 -273 -19 -409q0 -19 4 -31q2 -27 2 -76q0 -71 -20 -84q-18 -12 -37 -12q-29 0 -50.5 24.5t-33.5 53.5q-37 84 -37 229zM252 1217q0 38 14 92q6 12 6 30q3 8 14 13.5t21 5.5q9 -6 19 -6q38 -11 51 -29 q49 -61 49 -100q0 -21 -8 -37q-11 -17 -43 -31l-29 -10q-40 0 -64.5 19.5t-29.5 52.5z" />
<glyph unicode="&#xf0;" horiz-adv-x="1044" d="M39 940q0 86 27 153t72 109t109.5 70t132.5 39t148 12q92 0 181.5 -61.5t144.5 -156t55 -187.5q0 -38 -12 -76q-19 -58 -34 -122.5t-31 -150t-25 -125.5q-21 -105 -111 -583q-40 -19 -69 -19q-41 0 -68 37q-37 55 -37 121q0 36 8 63q60 273 127 607l-16 -11 q-69 -38 -125 -61q-92 -39 -166 -39q-124 0 -208 86.5t-99 233.5q-4 20 -4 61zM203 905q0 -36 8 -67q23 -80 86 -80q25 0 37 4q273 64 366 289q-37 52 -75 75t-90 23q-42 0 -129 -25q-88 -28 -145.5 -89t-57.5 -130z" />
<glyph unicode="&#xf1;" horiz-adv-x="811" d="M25 98q20 173 63 310q35 104 102 256l25 57q32 78 88 78q19 0 41 -11q57 -29 57 -81q0 -22 -14 -66l-108 -246l47 66q67 98 116 186l7 10q9 17 16 26.5t22.5 17.5t36.5 8q105 -7 111 -82q4 -43 4 -127q-4 -14 -4 -43q0 -27 4 -39q3 -187 14 -336q3 -19 13 -37t22 -25 q43 -19 43 -57q0 -28 -22 -43q-40 -37 -93 -37q-18 0 -24 2q-51 21 -98 97q-58 106 -58 254q0 52 6 98v18l-22 -33q-70 -96 -80 -108l-31 -45q-73 -102 -100 -127q-20 -21 -50.5 -38t-54.5 -17q-4 0 -8 2l-4 2q-26 6 -46.5 40t-20.5 70zM123 1075q0 21 27 74q8 9 20 31.5 t20 31.5q64 105 119 105q47 0 123 -76q28 -37 41 -47q54 -57 94 -57q42 0 103 61l6 6q7 1 18 16t19 15q15 0 30 -29q19 -43 19 -61t-23 -62q-14 -17 -43.5 -45.5t-38.5 -40.5q-5 -1 -21.5 -3.5t-25.5 -2.5q-85 0 -168 90q-10 15 -33 38.5t-28 29.5l-9 5q-9 6 -18 10.5 t-14 4.5q-25 0 -45 -39q-29 -44 -59 -116q-9 -26 -17 -36.5t-20 -10.5q-17 0 -33 24q-43 51 -43 84z" />
<glyph unicode="&#xf2;" horiz-adv-x="671" d="M61 319q0 -18 2 -28q0 -23 7 -39q4 -31 22 -72q14 -38 51 -92q20 -27 36.5 -42t43.5 -26q61 -14 90 -14q34 0 70 8q27 6 72 29q33 19 63 49l37 37q38 38 65 101.5t27 121.5q0 67 -7.5 119.5t-29 112t-68.5 104.5t-118 70q-6 6 -25 6h-12q-15 -4 -22 -24t-19 -21 q-10 1 -11 19t-13 18q-91 -88 -150 -191q-7 -11 -26.5 -40t-29.5 -45t-22 -42t-18 -49q0 -1 -1 -4t-1 -4q-13 -50 -13 -62zM178 1182q13 19 52 52.5t59 33.5q9 0 26 -13q118 -98 222 -190q30 -25 42.5 -42.5t12.5 -39.5q0 -29 -27 -90q-16 8 -83.5 42t-100.5 54 q-79 47 -158 113q-45 41 -45 80zM215 221q0 31 8 58q11 36 30.5 74.5t34.5 61.5t44 64q6 8 21.5 31t24 34t23.5 26.5t31 25.5q5 1 12.5 7t12.5 12t6 6q11 0 21 -24.5t14 -47.5q0 -15 6 -27q8 -39 8 -84q0 -50 -14 -82q-38 -80 -110 -141t-136 -61q-3 0 -11.5 1t-11.5 1 q-14 27 -14 65z" />
<glyph unicode="&#xf3;" horiz-adv-x="714" d="M61 319q0 12 13 62q0 1 1 4t1 4q6 23 18 49t22 42t29.5 45t26.5 40q59 103 150 191q12 0 13 -18t11 -19q12 1 19 21t22 24h12q19 0 25 -6q71 -25 118 -70t68.5 -104.5t29 -112t7.5 -119.5q0 -58 -27 -121.5t-65 -101.5l-37 -37q-30 -30 -63 -49q-45 -23 -72 -29 q-36 -8 -70 -8q-29 0 -90 14q-27 11 -43.5 26t-36.5 42q-37 54 -51 92q-18 41 -22 72q-7 16 -7 39q-2 10 -2 28zM215 221q0 -38 14 -65q3 0 11.5 -1t11.5 -1q64 0 136 61t110 141q14 32 14 82q0 45 -8 84q-6 12 -6 27q-4 23 -14 47.5t-21 24.5q-1 0 -6 -6t-12.5 -12 t-12.5 -7q-16 -10 -31 -25.5t-23.5 -26.5t-24 -34t-21.5 -31q-29 -41 -44 -64t-34.5 -61.5t-30.5 -74.5q-8 -27 -8 -58zM215 952q0 20 9 39t18.5 30.5t29.5 31.5q48 45 207 219q16 21 27 57q8 35 31 35q11 0 24 -10q54 -49 115 -113q18 -24 18 -43q0 -34 -35 -55 q-53 -42 -116 -80q-125 -84 -191 -121q-17 -9 -38.5 -16.5t-47.5 -15.5t-39 -13q-12 24 -12 55z" />
<glyph unicode="&#xf4;" horiz-adv-x="743" d="M-18 958q0 4 6 13l51 63q19 23 60 60t57 55q13 14 24.5 30t26.5 40t22 34q5 5 17 25q12 18 12 37q0 33 12 45q16 16 49 16h13q83 -6 119 -55q22 -29 67.5 -81.5t54.5 -63.5l7 -9l67 -73q5 -3 31 -29q29 -29 29 -45v-12q0 -48 -41 -62q-12 -6 -27 -6q-9 0 -18 2.5t-13 4.5 t-14 8l-10 6l-11 10q-63 38 -112 116q-26 39 -60 76q-11 8 -20 23l-29 -37l-98 -115q-41 -46 -70 -69q-56 -47 -96 -47q-30 0 -68 10.5t-38 29.5zM61 319q0 -18 2 -28q0 -23 7 -39q4 -31 22 -72q14 -38 51 -92q20 -27 36.5 -42t43.5 -26q61 -14 90 -14q34 0 70 8q27 6 72 29 q33 19 63 49l37 37q38 38 65 101.5t27 121.5q0 67 -7.5 119.5t-29 112t-68.5 104.5t-118 70q-6 6 -25 6h-12q-15 -4 -22 -24t-19 -21q-10 1 -11 19t-13 18q-91 -88 -150 -191q-7 -11 -26.5 -40t-29.5 -45t-22 -42t-18 -49q0 -1 -1 -4t-1 -4q-13 -50 -13 -62zM215 221 q0 31 8 58q11 36 30.5 74.5t34.5 61.5t44 64q6 8 21.5 31t24 34t23.5 26.5t31 25.5q5 1 12.5 7t12.5 12t6 6q11 0 21 -24.5t14 -47.5q0 -15 6 -27q8 -39 8 -84q0 -50 -14 -82q-38 -80 -110 -141t-136 -61q-3 0 -11.5 1t-11.5 1q-14 27 -14 65z" />
<glyph unicode="&#xf5;" horiz-adv-x="751" d="M2 954q0 22 37 68q29 37 53 61q81 97 156 97q61 0 158 -72q7 -6 24 -21t27 -22q73 -55 127 -55q44 0 129 59l8 6q8 1 23 14t26 13q20 0 37 -25q24 -27 24 -57q0 -29 -26 -55q-17 -16 -35 -29.5t-45 -31t-29 -19.5q-30 -6 -57 -6q-116 0 -221 82q-30 28 -80 61 q-5 5 -23 13.5t-30 8.5q-29 0 -58 -36q-42 -51 -73 -111q-25 -43 -50 -43q-22 0 -47 25q-55 49 -55 75zM61 319q0 12 13 62q0 1 1 4t1 4q6 23 18 49t22 42t29.5 45t26.5 40q59 103 150 191q12 0 13 -18t11 -19q12 1 19 21t22 24h12q19 0 25 -6q71 -25 118 -70t68.5 -104.5 t29 -112t7.5 -119.5q0 -58 -27 -121.5t-65 -101.5l-37 -37q-30 -30 -63 -49q-45 -23 -72 -29q-36 -8 -70 -8q-29 0 -90 14q-27 11 -43.5 26t-36.5 42q-37 54 -51 92q-18 41 -22 72q-7 16 -7 39q-2 10 -2 28zM215 221q0 -38 14 -65q3 0 11.5 -1t11.5 -1q64 0 136 61t110 141 q14 32 14 82q0 45 -8 84q-6 12 -6 27q-4 23 -14 47.5t-21 24.5q-1 0 -6 -6t-12.5 -12t-12.5 -7q-16 -10 -31 -25.5t-23.5 -26.5t-24 -34t-21.5 -31q-29 -41 -44 -64t-34.5 -61.5t-30.5 -74.5q-8 -27 -8 -58z" />
<glyph unicode="&#xf6;" horiz-adv-x="786" d="M61 319q0 -18 2 -28q0 -23 7 -39q4 -31 22 -72q14 -38 51 -92q20 -27 36.5 -42t43.5 -26q61 -14 90 -14q34 0 70 8q27 6 72 29q33 19 63 49l37 37q38 38 65 101.5t27 121.5q0 67 -7.5 119.5t-29 112t-68.5 104.5t-118 70q-6 6 -25 6h-12q-15 -4 -22 -24t-19 -21 q-10 1 -11 19t-13 18q-91 -88 -150 -191q-7 -11 -26.5 -40t-29.5 -45t-22 -42t-18 -49q0 -1 -1 -4t-1 -4q-13 -50 -13 -62zM156 1034v19q0 18 6 28l6 13l5 10t5.5 10.5t5 9t7 9t8 6t10.5 4.5q1 0 4 1t4 1q19 0 62 -31q13 -10 34 -43l2 -8q19 -29 19 -55q0 -13 -2 -19 q-8 -30 -47 -49q-14 -12 -39 -12q-52 0 -74 57q-9 17 -12 37q0 6 -4 12zM215 221q0 31 8 58q11 36 30.5 74.5t34.5 61.5t44 64q6 8 21.5 31t24 34t23.5 26.5t31 25.5q5 1 12.5 7t12.5 12t6 6q11 0 21 -24.5t14 -47.5q0 -15 6 -27q8 -39 8 -84q0 -50 -14 -82 q-38 -80 -110 -141t-136 -61q-3 0 -11.5 1t-11.5 1q-14 27 -14 65zM432 973q0 39 17 92q6 30 6 31q1 8 11.5 13t20.5 5q18 -6 19 -6q38 -10 53 -27q49 -61 49 -102q0 -17 -10 -37q-11 -19 -43 -31l-27 -8q-41 0 -66 18.5t-30 51.5z" />
<glyph unicode="&#xf7;" horiz-adv-x="825" d="M131 657q0 16 10 43q4 8 18.5 13.5t26.5 5.5q225 0 336 -4q77 0 137 -8q66 -11 66 -62q-5 -61 -74 -61h-37q-194 -10 -342 -23h-49q-41 4 -66.5 31.5t-25.5 64.5zM291 666q0 16 4 22q6 15 25 29t36 14q1 0 4.5 -2t4.5 -2q40 -15 86 -80q10 -13 10 -49q0 -15 -6 -39 q-4 -11 -13.5 -21t-20 -19t-13.5 -13q-37 0 -77 57.5t-40 102.5zM332 1229q0 46 18 61q6 6 25 6q29 0 60 -24t44 -60q8 -19 8 -45q0 -42 -23 -70t-63 -28q-2 4 -21 25t-28 39q-20 44 -20 96z" />
<glyph unicode="&#xf8;" horiz-adv-x="737" d="M39 -117q0 21 6 37l252 438l12 7q29 46 49 71q6 10 21.5 32t21.5 32l111 188q7 11 37.5 57.5t48.5 71.5q24 37 66 37q52 0 81 -59q5 -3 5 -9v-16q-8 -19 -19 -27q-45 -20 -98 -104l-6 -10l-496 -787q-8 -32 -33 -32q-14 0 -35 14q-24 24 -24 59zM61 319q0 12 13 62 q0 1 1 4t1 4q6 23 18 49t22 42t29.5 45t26.5 40q59 103 150 191q12 0 13 -18t11 -19q12 1 19 21t22 24h12q19 0 25 -6q71 -25 118 -70t68.5 -104.5t29 -112t7.5 -119.5q0 -58 -27 -121.5t-65 -101.5l-37 -37q-30 -30 -63 -49q-45 -23 -72 -29q-36 -8 -70 -8q-29 0 -90 14 q-27 11 -43.5 26t-36.5 42q-37 54 -51 92q-18 41 -22 72q-7 16 -7 39q-2 10 -2 28zM215 221q0 -38 14 -65q3 0 11.5 -1t11.5 -1q64 0 136 61t110 141q14 32 14 82q0 45 -8 84q-6 12 -6 27q-4 23 -14 47.5t-21 24.5q-1 0 -6 -6t-12.5 -12t-12.5 -7q-16 -10 -31 -25.5 t-23.5 -26.5t-24 -34t-21.5 -31q-29 -41 -44 -64t-34.5 -61.5t-30.5 -74.5q-8 -27 -8 -58z" />
<glyph unicode="&#xf9;" horiz-adv-x="743" d="M33 297q0 77 16 152q13 80 37 149q3 8 7 26t7 27q27 83 35 129q16 51 74 51q21 0 37 -2q15 -6 24.5 -12.5t18 -21.5t8.5 -37q0 -21 -2 -31q0 -1 -2 -4t-2 -4l-21 -84q-38 -125 -61 -246l-4 -8q-12 -62 -12 -90q0 -40 24 -98q3 -1 9.5 -7t9.5 -6q10 4 18 6q149 67 190 258 q26 101 41 142q0 3 3.5 9t3.5 9l18 84q2 6 2 39q4 10 4 29q1 15 3.5 25.5t9.5 23t23 19.5t40 7q60 -3 84 -30q14 -16 14 -49v-19l-63 -291q-54 -181 -54 -360q0 -27 -22.5 -55.5t-46.5 -36.5q-10 -6 -25 -6q-58 0 -71 79q-2 0 -4.5 4t-2.5 7q-6 -3 -26.5 -18t-40.5 -25 q-50 -29 -94 -29q-59 0 -105 33t-67 88q-35 74 -35 174zM172 1253q13 19 52 52.5t59 33.5q10 0 26 -12q42 -35 119.5 -102t101.5 -88q30 -25 43 -43.5t13 -40.5q0 -29 -27 -88q-159 79 -184 94q-97 62 -158 115q-45 36 -45 79z" />
<glyph unicode="&#xfa;" horiz-adv-x="751" d="M33 297q0 77 16 152q13 80 37 149q3 8 7 26t7 27q27 83 35 129q16 51 74 51q21 0 37 -2q15 -6 24.5 -12.5t18 -21.5t8.5 -37q0 -21 -2 -31q0 -1 -2 -4t-2 -4l-21 -84q-38 -125 -61 -246l-4 -8q-12 -62 -12 -90q0 -40 24 -98q3 -1 9.5 -7t9.5 -6q10 4 18 6q149 67 190 258 q26 101 41 142q0 3 3.5 9t3.5 9l18 84q2 6 2 39q4 10 4 29q1 15 3.5 25.5t9.5 23t23 19.5t40 7q60 -3 84 -30q14 -16 14 -49v-19l-63 -291q-54 -181 -54 -360q0 -27 -22.5 -55.5t-46.5 -36.5q-10 -6 -25 -6q-58 0 -71 79q-2 0 -4.5 4t-2.5 7q-6 -3 -26.5 -18t-40.5 -25 q-50 -29 -94 -29q-59 0 -105 33t-67 88q-35 74 -35 174zM297 1026q0 20 10 39.5t18.5 29t30.5 31.5q84 82 205 220q18 20 29 57q8 35 31 35q6 0 24 -11q67 -64 113 -112q18 -24 18 -43q0 -32 -33 -55q-40 -31 -116 -80q-104 -70 -191 -121q-18 -9 -39 -16.5t-49 -16 t-39 -12.5q-12 30 -12 55z" />
<glyph unicode="&#xfb;" horiz-adv-x="854" d="M33 297q0 77 16 152q13 80 37 149q3 8 7 26t7 27q27 83 35 129q16 51 74 51q21 0 37 -2q15 -6 24.5 -12.5t18 -21.5t8.5 -37q0 -21 -2 -31q0 -1 -2 -4t-2 -4l-21 -84q-38 -125 -61 -246l-4 -8q-12 -62 -12 -90q0 -40 24 -98q3 -1 9.5 -7t9.5 -6q10 4 18 6q149 67 190 258 q26 101 41 142q0 3 3.5 9t3.5 9l18 84q2 6 2 39q4 10 4 29q1 15 3.5 25.5t9.5 23t23 19.5t40 7q60 -3 84 -30q14 -16 14 -49v-19l-63 -291q-54 -181 -54 -360q0 -27 -22.5 -55.5t-46.5 -36.5q-10 -6 -25 -6q-58 0 -71 79q-2 0 -4.5 4t-2.5 7q-6 -3 -26.5 -18t-40.5 -25 q-50 -29 -94 -29q-59 0 -105 33t-67 88q-35 74 -35 174zM63 1034q0 2 3 6t4 7l53 65q19 24 61.5 61.5t55.5 51.5q12 14 73 104q3 3 7.5 12t7.5 13q12 14 12 37q0 35 12 47q14 14 49 14h13q44 -1 71.5 -14t49.5 -41q45 -59 122 -144l7 -10l67 -74q20 -15 31 -26 q26 -26 26 -47v-13q0 -14 -1 -21.5t-10 -20t-27 -19.5q-1 0 -12 -3t-17 -3q-20 0 -55 22l-9 9q-59 35 -114 116q-15 25 -58 78q-11 7 -22 21l-27 -37l-98 -113q-30 -38 -72 -72q-54 -45 -94 -45q-31 0 -70 10.5t-39 28.5z" />
<glyph unicode="&#xfc;" horiz-adv-x="780" d="M33 297q0 77 16 152q13 80 37 149q3 8 7 26t7 27q27 83 35 129q16 51 74 51q21 0 37 -2q15 -6 24.5 -12.5t18 -21.5t8.5 -37q0 -21 -2 -31q0 -1 -2 -4t-2 -4l-21 -84q-38 -125 -61 -246l-4 -8q-12 -62 -12 -90q0 -40 24 -98q3 -1 9.5 -7t9.5 -6q10 4 18 6q149 67 190 258 q26 101 41 142q0 3 3.5 9t3.5 9l18 84q2 6 2 39q4 10 4 29q1 15 3.5 25.5t9.5 23t23 19.5t40 7q60 -3 84 -30q14 -16 14 -49v-19l-63 -291q-54 -181 -54 -360q0 -27 -22.5 -55.5t-46.5 -36.5q-10 -6 -25 -6q-58 0 -71 79q-2 0 -4.5 4t-2.5 7q-6 -3 -26.5 -18t-40.5 -25 q-50 -29 -94 -29q-59 0 -105 33t-67 88q-35 74 -35 174zM203 1145v18q0 19 6 29l6 12q17 42 39 49q2 0 5 1t5 1q20 0 62 -30q18 -16 32 -43l4 -8q19 -28 19 -56q0 -12 -4 -18q-8 -31 -45 -49q-16 -13 -41 -13q-49 0 -74 58q-4 7 -8 21.5t-4 15.5q0 6 -2 12zM479 1083 q0 35 15 93q6 15 6 30q3 8 14 13.5t21 5.5q2 -1 5.5 -2.5t6.5 -2.5t6 -1q37 -11 51 -27q49 -61 49 -102q0 -21 -8 -37q-13 -18 -43 -31l-29 -8q-84 0 -94 69z" />
<glyph unicode="&#xfd;" horiz-adv-x="948" d="M27 -780q0 8 1 17.5t2.5 21t2.5 18.5q42 180 133 508q21 77 55 149l39 111q4 10 4 31q0 18 -4 28q-29 103 -131 408q-27 81 -61 141q-23 48 -23 72q0 54 43 76q20 10 41 10q28 0 54.5 -18t39.5 -48q45 -88 68 -172q33 -101 65 -235l9 -35l16 31q86 178 100 203 q53 100 158 270l14 29l49 69q28 35 62 35q37 0 72 -35q20 -20 20 -61q0 -23 -8 -39q-18 -37 -47 -66l-31 -43q-185 -294 -303 -598l-6 -37q0 -2 -2 -12t-2 -18q0 -30 -15 -43q-40 -68 -73 -143t-61.5 -168t-44.5 -152t-44.5 -174t-38.5 -156l-8 -55q-4 -20 -18 -36.5 t-37 -16.5q-33 0 -53.5 21t-26.5 44q-10 45 -10 68zM399 1057q0 20 9.5 39t18.5 29.5t30 31.5q48 45 207 219q14 18 26 58q8 34 31 34q11 0 24 -10q61 -55 115 -112q19 -25 19 -43q0 -35 -35 -56q-50 -39 -117 -80q-121 -81 -190 -120q-17 -9 -38.5 -17t-48 -16.5 t-38.5 -12.5q-13 26 -13 56z" />
<glyph unicode="&#xff;" horiz-adv-x="964" d="M27 -780q0 8 1 17.5t2.5 21t2.5 18.5q42 180 133 508q21 77 55 149l39 111q4 10 4 31q0 18 -4 28q-29 103 -131 408q-27 81 -61 141q-23 48 -23 72q0 54 43 76q20 10 41 10q28 0 54.5 -18t39.5 -48q45 -88 68 -172q33 -101 65 -235l9 -35l16 31q86 178 100 203 q53 100 158 270l14 29l49 69q28 35 62 35q37 0 72 -35q20 -20 20 -61q0 -23 -8 -39q-18 -37 -47 -66l-31 -43q-185 -294 -303 -598l-6 -37q0 -2 -2 -12t-2 -18q0 -30 -15 -43q-40 -68 -73 -143t-61.5 -168t-44.5 -152t-44.5 -174t-38.5 -156l-8 -55q-4 -20 -18 -36.5 t-37 -16.5q-33 0 -53.5 21t-26.5 44q-10 45 -10 68zM252 1278v18q0 19 6 27l6 12q14 42 39 49q2 0 5 2.5t5 2.5q19 0 62 -31q17 -14 33 -43l4 -10q18 -27 18 -56q0 -12 -4 -18q-10 -32 -45 -49q-19 -13 -41 -13q-48 0 -74 60q-4 7 -8 21.5t-4 15.5q0 6 -2 12zM528 1217 q0 34 15 92q6 12 6 30q3 8 14 13.5t21 5.5q9 -6 18 -6q38 -11 51 -29q49 -61 49 -100q0 -21 -8 -37q-11 -17 -43 -31l-28 -10q-40 0 -65 19.5t-30 52.5z" />
<glyph unicode="&#x152;" horiz-adv-x="1916" d="M45 528q0 159 59.5 308.5t167.5 308.5q49 75 152 182q95 98 178 98q96 0 178 -108q208 -261 211 -592q-23 -476 -420 -639q-88 -37 -184 -37q-38 0 -68 6q-101 13 -166.5 97.5t-91.5 216.5q-16 73 -16 159zM233 426q1 -89 33.5 -131.5t98.5 -42.5q34 0 92 14 q68 11 138.5 55t126 106t91 140t35.5 152q0 27 -10 69q-51 198 -95 312q-36 80 -90 80q-35 0 -75 -37q-165 -153 -255 -320t-90 -368v-29zM664 156q0 138 61 239q39 65 98 228q63 174 107 307q7 25 23.5 71.5t19.5 57.5q10 30 10 43q0 22 -25 47q-18 13 -18 61q0 45 8 86 q6 50 74 50h22q74 0 148 6q189 6 197 6h45q177 -6 399 -31q28 -4 57 -27.5t29 -56.5q-3 -22 -18 -37q-25 -20 -111 -20h-57q-186 -12 -523 -25q-32 0 -47 -13.5t-24 -47.5q-15 -70 -70 -246l-29 -80h306q25 2 69 2q22 0 54 -1t44 -1q28 -3 56 -21t35 -40q2 -10 2 -29 q0 -16 -9 -31q-18 -31 -67 -37l-213 -26q-91 -11 -154 -23l-155 -20q-31 -5 -48 -20.5t-26 -47.5l-86 -282l137 12q6 0 13.5 1t9.5 1q212 23 325 25h37q43 4 141 4q46 0 83 -1.5t79 -7.5t71 -16.5t51.5 -28.5t29.5 -43v-14q0 -17 -13 -37q-34 -43 -157 -43q-234 0 -543 -24 q-56 -4 -182 -41q-20 -2 -58 -15q-12 -4 -36 -4q-61 0 -113.5 38.5t-56.5 94.5q0 10 -1 29.5t-1 28.5z" />
<glyph unicode="&#x153;" horiz-adv-x="1222" d="M61 319q0 12 13 62q0 1 1 4t1 4q6 23 18 49t22 42t29.5 45t26.5 40q59 103 150 191q12 0 13 -18t11 -19q12 1 19 21t22 24h12q19 0 25 -6q102 -37 156 -117q41 61 90 102q101 89 180 123q62 25 90 25q70 0 125 -84q43 -58 43 -123q0 -63 -45 -117q-39 -45 -74.5 -78.5 t-83 -68.5t-104.5 -55.5t-119 -24.5q-4 0 -10 -4.5t-8 -9.5q4 -170 116 -170q35 0 74 16q51 18 168 88q47 30 74 43l41 25q21 16 37 16q11 0 14 -10q12 -17 12 -49q0 -60 -67 -123q-133 -137 -277 -160q-3 0 -21.5 -3t-29.5 -3q-152 0 -240 141l-47 -45q-30 -30 -63 -49 q-45 -23 -72 -29q-36 -8 -70 -8q-29 0 -90 14q-27 11 -43.5 26t-36.5 42q-37 54 -51 92q-18 41 -22 72q-7 16 -7 39q-2 10 -2 28zM215 221q0 -38 14 -65q3 0 11.5 -1t11.5 -1q64 0 136 61t110 141q0 7 6 13q0 59 8 100l-8 53q-6 12 -6 27q-4 23 -14 47.5t-21 24.5 q-1 0 -6 -6t-12.5 -12t-12.5 -7q-16 -10 -31 -25.5t-23.5 -26.5t-24 -34t-21.5 -31q-29 -41 -44 -64t-34.5 -61.5t-30.5 -74.5q-8 -27 -8 -58zM721 528q68 15 132 69t83 112q-50 -6 -119 -64.5t-96 -116.5z" />
<glyph unicode="&#x178;" horiz-adv-x="847" d="M14 1389v12q3 21 24.5 41t43.5 20l18 -4q40 -17 63 -29t54 -42t47 -70q35 -89 92 -199l15 -28l276 374q20 47 62 47q20 0 39 -14t25.5 -23t25.5 -36l20 -31q35 -27 35 -68q0 -31 -29 -71l-303 -389q-22 -35 -22 -72q9 -93 12 -319t12 -310q0 -6 2.5 -19.5t3.5 -17.5 q7 -28 7 -59q0 -69 -43 -107q-48 -36 -93 -36q-30 0 -50 15t-28.5 43t-11.5 48t-4 49q0 25 -4 35q-12 90 -24.5 303.5t-12.5 269.5v78q0 119 -6 119q0 2 -1 5t-1 5l-227 424q-17 20 -17 56zM199 1892v19q0 18 6 26l6 13q7 16 10.5 22.5t11.5 15t19 11.5q1 0 4 2t4 2 q19 0 62 -31q7 -5 12.5 -12t12.5 -17.5l9 -13.5l2 -10q19 -29 19 -55q0 -13 -2 -19q-9 -31 -47 -49q-18 -12 -39 -12q-24 0 -44 16t-30 43q-9 17 -12 37q0 6 -4 12zM475 1831q0 39 17 92q6 24 6 31q1 8 11.5 13t20.5 5q9 -6 19 -6q39 -10 53 -29q49 -61 49 -100 q0 -17 -10 -37q-9 -18 -43 -31l-27 -10q-41 0 -66 19.5t-30 52.5z" />
<glyph unicode="&#x2c6;" horiz-adv-x="843" d="M-61 1161q0 4 6 13l51 63q19 23 60 60t57 55q13 14 24.5 30t26.5 40t22 34q5 5 17 25q12 18 12 37q0 33 12 45q16 16 49 16h13q83 -6 119 -55q22 -29 69.5 -84t52.5 -62l7 -8l67 -74q8 -4 31 -28q29 -29 29 -45v-13q0 -47 -41 -61q-12 -6 -27 -6q-20 0 -55 20l-11 11 q-63 38 -112 116q-26 39 -60 76q-11 8 -20 23l-29 -37l-98 -115q-44 -49 -70 -70q-56 -47 -96 -47q-30 0 -68 11t-38 30z" />
<glyph unicode="&#x2dc;" horiz-adv-x="946" d="M74 1634q0 22 37 68q7 8 24 29.5t27 31.5q82 95 157 95q57 0 156 -70q34 -31 53 -43q73 -55 125 -55q50 0 129 57l11 6q7 2 21.5 15.5t27.5 13.5q20 0 37 -25q24 -31 24 -59q0 -27 -29 -56q-20 -18 -57.5 -44t-48.5 -35q-9 -1 -29 -4t-30 -3q-109 0 -222 84 q-72 58 -79 62q-3 3 -21.5 11.5t-30.5 8.5q-26 0 -59 -36q-37 -46 -74 -111q-25 -43 -49 -43q-21 0 -45 24q-30 29 -42.5 45.5t-12.5 32.5z" />
<glyph unicode="&#x2000;" horiz-adv-x="1116" />
<glyph unicode="&#x2001;" horiz-adv-x="2232" />
<glyph unicode="&#x2002;" horiz-adv-x="1116" />
<glyph unicode="&#x2003;" horiz-adv-x="2232" />
<glyph unicode="&#x2004;" horiz-adv-x="744" />
<glyph unicode="&#x2005;" horiz-adv-x="558" />
<glyph unicode="&#x2006;" horiz-adv-x="372" />
<glyph unicode="&#x2007;" horiz-adv-x="372" />
<glyph unicode="&#x2008;" horiz-adv-x="279" />
<glyph unicode="&#x2009;" horiz-adv-x="446" />
<glyph unicode="&#x200a;" horiz-adv-x="124" />
<glyph unicode="&#x2010;" horiz-adv-x="712" d="M37 657q0 22 8 43q4 8 19 13.5t28 5.5q223 0 334 -4q76 0 139 -8q64 -10 64 -62q-3 -61 -74 -61h-37q-200 -11 -340 -23h-49q-41 4 -66.5 31.5t-25.5 64.5z" />
<glyph unicode="&#x2011;" horiz-adv-x="712" d="M37 657q0 22 8 43q4 8 19 13.5t28 5.5q223 0 334 -4q76 0 139 -8q64 -10 64 -62q-3 -61 -74 -61h-37q-200 -11 -340 -23h-49q-41 4 -66.5 31.5t-25.5 64.5z" />
<glyph unicode="&#x2012;" horiz-adv-x="712" d="M37 657q0 22 8 43q4 8 19 13.5t28 5.5q223 0 334 -4q76 0 139 -8q64 -10 64 -62q-3 -61 -74 -61h-37q-200 -11 -340 -23h-49q-41 4 -66.5 31.5t-25.5 64.5z" />
<glyph unicode="&#x2013;" horiz-adv-x="892" d="M12 621q0 38 6 69q46 6 82 6h19q49 -2 171 -5t210.5 -6.5t171.5 -8.5h30q40 0 63 -16.5t23 -43.5q0 -25 -17 -41t-50 -16q-3 0 -14 -2t-17 -2q-67 0 -190 2t-181 2q-157 0 -237 -6q-39 0 -54.5 13t-15.5 55z" />
<glyph unicode="&#x2014;" horiz-adv-x="1138" d="M39 614q0 22 12 56q3 8 15 16t22 10l84 -2q54 2 305 11.5t385 13.5q12 0 32 1t30 1q45 0 86 -6q19 -2 39 -11t20 -22q0 -45 -47 -61q-80 -28 -160 -31l-690 -43h-29q-4 0 -11.5 -2t-12.5 -2q-38 0 -59 19t-21 52z" />
<glyph unicode="&#x2018;" horiz-adv-x="577" d="M190 1044q3 96 68 199q46 63 92 109q11 11 30.5 20.5t31.5 9.5q20 0 32.5 -10t12.5 -24q0 -9 -2 -15q-5 -10 -22 -33.5t-21 -37.5q-36 -77 -60 -150q0 -1 -3 -14.5t-3 -20.5q0 -27 25 -63q12 -20 12 -25q0 -22 -61 -28h-25q-65 0 -82 36z" />
<glyph unicode="&#x2019;" horiz-adv-x="577" d="M190 995q0 6 3 15q5 10 22 33.5t21 37.5q33 70 59 150q0 1 3 14.5t3 20.5q0 27 -25 63q-12 20 -12 25q0 22 62 28h24q65 0 82 -36l25 -48q-3 -95 -68 -198q-46 -63 -92 -109q-11 -11 -30 -20.5t-31 -9.5q-20 0 -33 10t-13 24z" />
<glyph unicode="&#x201a;" horiz-adv-x="364" d="M-25 -283q0 1 1 6t1 7q8 28 50 106l16 29q55 104 55 149q0 17 -4 31q0 32 41 59q23 13 51 13h19q32 -11 47 -23q5 0 14 -6l23 -8l-17 -84q-17 -58 -30.5 -94.5t-48 -94.5t-82.5 -106q-13 -13 -41 -27l-37 -24l-15 18q-4 0 -10 6q-1 1 -6.5 4.5t-9 6.5t-8 7.5t-7 11 t-2.5 13.5z" />
<glyph unicode="&#x201c;" horiz-adv-x="720" d="M61 1204l7 13q13 34 30 55t49 26q10 0 25 -8.5t21 -17.5q47 -66 86 -133q53 -84 90 -154q6 -24 6 -27q0 -27 -17.5 -47.5t-44.5 -23.5q-5 4 -17.5 11.5t-23.5 15t-18 16.5q-105 125 -172 213q-21 37 -21 61zM291 1311q0 19 12 37q24 36 41 53q21 24 43 24q29 0 49 -41 q31 -67 64 -116l114 -156q18 -29 50 -102q-9 -5 -30 -46.5t-38 -41.5q-12 0 -34.5 14.5t-33.5 28.5q-43 54 -116 158t-103 143q-18 27 -18 45z" />
<glyph unicode="&#x201d;" horiz-adv-x="739" d="M94 979q0 18 10 31q32 47 92.5 128t82.5 111q68 91 90 121q26 45 45 45q16 0 47 -31q9 -8 17 -20t17 -28.5t15 -26.5q-7 -9 -14.5 -24t-10.5 -19l-262 -330q-35 -39 -63 -39q-15 0 -31 8q-13 7 -24 30.5t-11 43.5zM399 934q0 18 2 24q22 62 68 156l92 195q19 32 47 32 q9 0 21 -6q25 -10 43 -44t18 -68q0 -26 -8 -37l-158 -271q-6 -10 -17 -20.5t-22.5 -19.5t-15.5 -13q-31 0 -50.5 21.5t-19.5 50.5z" />
<glyph unicode="&#x201e;" horiz-adv-x="626" d="M-29 -164q0 16 11 31q32 48 93 129t81 110q68 90 90 121q26 45 45 45q17 0 47 -30q9 -8 17 -20.5t17 -29t15 -26.5q-7 -9 -14.5 -24t-10.5 -19l-262 -330q-35 -39 -63 -39q-15 0 -31 8q-13 7 -24 30.5t-11 43.5zM276 -209q0 16 3 25q23 65 67 155l92 195q20 33 47 33 q9 0 21 -6q25 -10 43 -44.5t18 -68.5q0 -26 -8 -37l-158 -270q-6 -10 -16.5 -20.5t-22.5 -20t-16 -13.5q-31 0 -50.5 21.5t-19.5 50.5z" />
<glyph unicode="&#x2022;" horiz-adv-x="528" d="M129 776q0 26 8 37t18.5 20.5t25.5 19.5t23 15t28.5 16.5t25.5 14.5q2 4 18 4q28 0 37 -12q24 -22 93 -105q43 -53 43 -108q0 -23 -7 -39q-12 -31 -61 -54.5t-96 -23.5q-75 0 -110.5 34.5t-39.5 113.5q-6 35 -6 67z" />
<glyph unicode="&#x2026;" horiz-adv-x="878" d="M92 125v12q3 78 51 78q30 -3 57 -41t27 -74q-9 -67 -71 -67h-13q-51 9 -51 92zM371 55q0 41 15 66.5t40 25.5q35 0 63.5 -33.5t28.5 -76.5q0 -32 -17 -50t-46 -18q-37 0 -60.5 23.5t-23.5 62.5zM666 94q0 40 16 66t39 26q35 -1 63.5 -37.5t28.5 -78.5q0 -28 -20.5 -49.5 t-49.5 -24.5q-33 0 -55 28t-22 70z" />
<glyph unicode="&#x202f;" horiz-adv-x="446" />
<glyph unicode="&#x2039;" horiz-adv-x="940" d="M57 524q0 16 13 34t28 28l185 98q31 16 202 109q67 36 156 100q27 18 53 18q35 0 62 -37q30 -45 30 -79q0 -3 -2 -9.5t-2 -9.5q-9 -40 -61 -74l-438 -247q104 -93 276 -148l57 -18l109 -37q92 -37 92 -123q0 -3 1 -8t1 -8q0 -15 -9 -26t-22 -11q-3 0 -11.5 2.5t-12.5 3.5 q-376 48 -653 299q-54 49 -54 143z" />
<glyph unicode="&#x203a;" horiz-adv-x="890" d="M129 807v18q9 62 51 62q21 0 37 -8l109 -54q81 -45 141 -67q73 -35 186 -68l29 -12q24 -6 46.5 -28t35.5 -52q16 -32 16 -57q0 -17 -4 -23q-13 -40 -57 -61q-210 -82 -379 -295l-12 -15q-22 -43 -58 -43q-12 0 -18 2q-74 25 -74 97v14q4 61 39 102q99 95 182 173l76 69 l-67 35q-23 11 -62.5 29t-71 32.5t-59.5 26.5q-40 17 -63 50.5t-23 72.5z" />
<glyph unicode="&#x205f;" horiz-adv-x="558" />
<glyph unicode="&#x2122;" horiz-adv-x="745" d="M8 1440v18q6 14 29 19l239 49q7 0 9 4q3 0 11 1t11 1q24 0 33 -21q6 -15 6 -24q0 -21 -20 -35l-29 -6q-35 -12 -57 -14q-26 -7 -31.5 -14.5t-5.5 -33.5v-104l-4 -14v-117q0 -9 -1 -27t-1 -26l-4 -13q0 -29 -39 -32q-29 0 -37 24q-6 18 -6 43q0 104 -5 178v99 q-20 -10 -38 -13q-6 -4 -23 -4q-21 0 -27 17q-10 20 -10 45zM279 1137q0 10 10 30q11 16 14 43l4 9l62 251q0 6 1 13t1 10l10 18q12 9 25 9q22 0 39 -25t22 -55q1 -16 4 -33.5t7.5 -38.5t6.5 -33q0 -3 3.5 -16.5t3.5 -20.5q1 2 2.5 7t3.5 10q2 7 19 63.5t24 85.5q8 31 8 37 l6 12q6 19 25 19q6 0 12 -2q38 -13 49 -49l4 -11q28 -104 33 -135l12 -75q0 -10 1 -21t2.5 -24t2.5 -21q0 -3 2 -10t2 -10q0 -40 -41 -44q-31 0 -43 58l-18 127l-6 33q0 -1 -1 -4.5t-1 -4.5l-47 -133q0 -5 -13 -18q-17 -25 -36 -25q-12 0 -23 10.5t-16 24.5q-16 27 -31 64 l-10 18q0 2 -1 5.5t-1 6.5l-4 -18q-11 -39 -21 -88q-6 -15 -6 -31l-6 -29q-7 -24 -13 -32q-16 -19 -36 -19t-35 21q-12 24 -12 41z" />
<glyph unicode="&#x25fc;" horiz-adv-x="911" d="M0 0v911h911v-911h-911z" />
</font>
</defs>
</svg>
