<?xml version="1.0" encoding="utf-8"?>
<!-- Generator: Adobe Illustrator 22.1.0, SVG Export Plug-In . SVG Version: 6.00 Build 0)  -->
<svg version="1.1" id="Layer_1" xmlns="http://www.w3.org/2000/svg" xmlns:xlink="http://www.w3.org/1999/xlink" x="0px" y="0px"
	 viewBox="0 0 30 30" style="enable-background:new 0 0 30 30;" xml:space="preserve">
<style type="text/css">
	.st0{fill:#901F61;}
</style>
<path class="st0" d="M30,15c0-8.3-6.7-15-15-15S0,6.7,0,15s6.7,15,15,15S30,23.3,30,15z M15,28.9c-1.1,0-2.1-0.1-3.1-0.4
	c0.7-1.1,1.8-1.7,3.1-1.7s2.4,0.7,3.1,1.7C17.1,28.7,16.1,28.9,15,28.9z M19.2,28.2c-0.8-1.6-2.4-2.6-4.2-2.6s-3.4,1-4.2,2.6
	c-0.7-0.2-1.4-0.5-2.1-0.9c1.2-2.4,3.6-3.9,6.3-3.9s5.1,1.5,6.3,3.9C20.6,27.7,19.9,28,19.2,28.2z M22.3,26.8
	c-1.4-2.8-4.2-4.5-7.3-4.5S9.1,24,7.7,26.8c-0.7-0.4-1.3-0.9-1.9-1.4C7.7,22.1,11.2,20,15,20s7.3,2.1,9.1,5.4
	C23.6,25.9,22.9,26.4,22.3,26.8z M15,18.9c-4.2,0-7.9,2.2-10,5.7c-2.4-2.5-3.9-5.9-3.9-9.6C1.1,7.4,7.4,1.1,15,1.1S28.9,7.4,28.9,15
	c0,3.7-1.5,7.1-3.9,9.6C22.9,21.1,19.2,18.9,15,18.9z M15,10.1c-2.6,0-4.8,2.1-4.8,4.8c0,0.8,0.2,1.7,0.6,2.4
	c0.1,0.1,0.1,0.2,0.2,0.3c0.1,0.2,0.3,0.2,0.5,0.2c0.1,0,0.2,0,0.3-0.1c0.3-0.2,0.3-0.5,0.1-0.8c-0.1-0.1-0.1-0.2-0.2-0.2
	c-0.3-0.6-0.5-1.2-0.5-1.8c0-2,1.6-3.7,3.7-3.7c2,0,3.7,1.6,3.7,3.7c0,0.6-0.2,1.3-0.5,1.8c0,0.1-0.1,0.2-0.2,0.2
	c-0.2,0.3-0.1,0.6,0.1,0.8c0.3,0.2,0.6,0.1,0.8-0.1c0.1-0.1,0.1-0.2,0.2-0.3c0.4-0.7,0.6-1.5,0.6-2.4C19.8,12.3,17.6,10.1,15,10.1z
	 M15,6.8c-4.5,0-8.1,3.7-8.1,8.1c0,1.4,0.4,2.8,1,4c0.1,0.2,0.3,0.3,0.5,0.3c0.1,0,0.2,0,0.3-0.1c0.3-0.2,0.4-0.5,0.2-0.8
	c-0.6-1-0.9-2.2-0.9-3.4c0-3.9,3.1-7,7-7s7,3.1,7,7c0,1.2-0.3,2.4-0.9,3.4c-0.2,0.3-0.1,0.6,0.2,0.8c0.3,0.2,0.6,0.1,0.8-0.2
	c0.7-1.2,1-2.6,1-4C23.1,10.4,19.5,6.8,15,6.8z M15,3.4C8.6,3.4,3.4,8.5,3.4,14.9c0,2,0.6,4.2,1.8,6.1c0.1,0.2,0.3,0.3,0.5,0.3
	c0.1,0,0.2,0,0.3-0.1c0.3-0.2,0.4-0.5,0.2-0.8c-1-1.7-1.6-3.8-1.6-5.6C4.6,9.2,9.2,4.5,15,4.5s10.4,4.7,10.4,10.4
	c0,1.8-0.6,3.8-1.6,5.5c-0.2,0.3-0.1,0.6,0.2,0.8c0.3,0.2,0.6,0.1,0.8-0.2c1.1-1.8,1.7-4.1,1.7-6.1C26.6,8.5,21.4,3.4,15,3.4z
	 M27.2,26.3c-0.8,0-1.5,0.7-1.5,1.5c0,0.8,0.7,1.5,1.5,1.5c0.8,0,1.5-0.6,1.5-1.5C28.7,27,28,26.3,27.2,26.3 M27.2,29
	c-0.7,0-1.2-0.5-1.2-1.2c0-0.7,0.5-1.2,1.2-1.2c0.7,0,1.2,0.5,1.2,1.2C28.4,28.5,27.9,29,27.2,29 M27.5,27.9
	c0.2-0.1,0.4-0.2,0.4-0.4c0-0.3-0.3-0.5-0.6-0.5h-0.4c-0.1,0-0.2,0.1-0.2,0.2v1.2c0,0.1,0.1,0.2,0.2,0.2c0.1,0,0.2,0,0.2-0.2v-0.5
	h0.2l0.4,0.6c0,0.1,0.1,0.1,0.2,0.1c0.1,0,0.2-0.1,0.2-0.2c0,0,0-0.1,0-0.1L27.5,27.9z M27.5,27.4c0,0.1-0.1,0.2-0.3,0.2H27v-0.4
	h0.2C27.3,27.2,27.5,27.3,27.5,27.4"/>
</svg>
